<?xml version="1.0" encoding="UTF-8" standalone="no"?>
<!-- Created with Inkscape (http://www.inkscape.org/) -->

<svg
   xmlns:dc="http://purl.org/dc/elements/1.1/"
   xmlns:cc="http://creativecommons.org/ns#"
   xmlns:rdf="http://www.w3.org/1999/02/22-rdf-syntax-ns#"
   xmlns:svg="http://www.w3.org/2000/svg"
   xmlns="http://www.w3.org/2000/svg"
   version="1.1"
   width="208.8096"
   height="25.818316"
   id="svg16767">
  <defs
     id="defs16769" />
  <metadata
     id="metadata16772">
    <rdf:RDF>
      <cc:Work
         rdf:about="">
        <dc:format>image/svg+xml</dc:format>
        <dc:type
           rdf:resource="http://purl.org/dc/dcmitype/StillImage" />
        <dc:title></dc:title>
      </cc:Work>
    </rdf:RDF>
  </metadata>
  <g
     transform="translate(426.85391,241.62902)"
     id="layer1">
    <g
       transform="matrix(0.3,0,0,0.3,-564.10072,-777.26711)"
       id="g10882">
      <path
         d="m 543,1833 0,34 m 2,-4 0,-65 m 7,72 0,-3 m 0,-69 0,60 m 2,-58 0,67 m 6,3 0,-3 m 39,-73 0,-7 m 6,7 0,-7 m -51,29 -2,3 m -7,9 -1,2 m 69,37 0,-67 m 6,47 0,-60 m 13,26 0,19 m 3,-20 0,24 m -83,22 -4,5 m 12,-69 -6,6 m 135,12 0,24 m 3,-4 0,-19 m 13,34 0,-60 m 13,54 0,-54 m -112,7 7,6 m 141,67 0,-11 m 2,11 0,1 m 13,-1 0,1 m 15,-46 0,-24 m 0,17 0,9 m 0,23 0,20 m 4,2 0,-7 m 1,-74 0,6 m 2,19 0,17 m 0,17 0,5 m 3,17 0,-7 m 5,-40 0,8 m 0,17 0,5 m 2,-29 0,7 m 0,17 0,15 m 2,-51 0,-7 m 2,13 0,7 m -10,-12 -1,6 m -33,31 -7,7 m 40,-38 -6,-24 m 6,18 -5,-24 m 20,23 0,-7 m 10,0 0,7 m 4,6 0,7 m 2,-20 0,7 m 2,12 0,7 m 0,17 0,15 m 2,-40 0,8 m 0,17 0,5 m 5,17 0,-7 m 0,-50 6,-19 m -6,25 6,-19 m -42,14 4,-3 m 1,5 4,-3 m 0,5 5,-3 m 26,-1 0,17 m 0,17 0,5 m 2,17 0,-7 m 0,-63 0,-11 m 4,34 0,-24 m 0,49 0,20 m 7,0 0,1 m 288,2 -32,0 m -555,0 23,0 m 509,-1 -51,0 m -193,0 -52,0 m -32,-1 13,0 m 82,0 12,0 m 35,0 13,0 m 34,0 13,0 m 34,0 13,0 m 81,0 13,0 m -556,-1 245,0 m 52,0 193,0 m 51,0 68,0 m -607,-4 3,0 m 596,0 3,0 m -284,4 0,1 m 18,-27 0,-54 m 6,80 0,-11 m -99,6 52,0 m 193,0 51,0 m -283,-4 26,0 m 219,0 25,0 m 81,-3 -2,0 m -605,0 7,0 m 589,0 6,0 m -521,-1 72,0 m 202,0 73,0 m 116,-2 -18,0 m -25,0 -18,0 m -184,0 -17,0 m -26,0 -17,0 m 355,0 2,0 m 6,0 3,0 m -366,-3 -23,0 m 83,0 37,0 m 115,0 32,0 m 61,0 23,0 m 40,-1 -2,0 m -50,-1 -98,0 m -128,0 -150,0 m -181,-5 2,0 m 7,0 2,0 m 596,-1 -3,0 m -509,-3 48,0 m 226,0 49,0 m -326,-2 54,0 m 221,0 53,0 m -146,-22 4,3 m 0,-5 5,3 m 0,-5 4,3 m 57,43 -6,-7 m 12,-2 0,-60 m 5,80 0,1 m 8,-55 0,19 m 4,-20 0,24 m 1,31 0,1 m 239,-34 -3,0 m -311,-4 -44,0 m 245,0 43,0 m -117,-3 -53,0 m -221,0 -54,0 m 435,-3 -21,0 m -223,0 -23,0 m 160,-1 -53,0 m -221,0 -54,0"
         id="path10884"
         style="fill:none;stroke:#000000;stroke-width:3;stroke-linecap:round;stroke-linejoin:round;stroke-miterlimit:10;stroke-opacity:1;stroke-dasharray:none" />
    </g>
    <g
       transform="matrix(0.3,0,0,0.3,-564.10072,-777.26711)"
       id="g10886">
      <path
         d="m 821,1817 -14,0 m 242,0 19,0 m 41,-2 -2,0 m -323,0 1,0 m 18,0 22,0 m 223,0 21,0 m 40,-2 -2,0 m -18,0 -7,0 m -47,0 -7,0 m -184,0 -6,0 m -47,0 -7,0 m -149,-1 54,0 m 221,0 53,0 m -160,-1 22,0 m 223,0 21,0 m -108,-3 -49,0 m -226,0 -48,0 m 307,59 0,1 m -142,-64 22,0 m 223,0 21,0 m -74,-4 -16,0 m -86,0 -12,0 m -163,0 -13,0 m -86,0 -6,0 m 496,0 3,0 m -5,-2 -18,0 m -61,0 -33,0 m -114,0 -37,0 m -60,0 -66,0 m -99,0 86,0 m 188,0 86,0 m -135,-4 -4,0 m -51,0 -5,0 m -228,0 63,0 m 86,0 13,0 m 163,0 12,0 m 86,0 16,0 m 112,0 30,0 m -581,-7 581,0 m -179,80 0,1 m 5,-56 0,24 m 3,-4 0,-19 m 30,36 -6,7 m 50,-44 4,-3"
         id="path10888"
         style="fill:none;stroke:#000000;stroke-width:3;stroke-linecap:round;stroke-linejoin:round;stroke-miterlimit:10;stroke-opacity:1;stroke-dasharray:none" />
    </g>
    <g
       transform="matrix(0.3,0,0,0.3,-564.10072,-777.26711)"
       id="g10890">
      <path
         d="m 1044,1815 5,-3"
         id="path10892"
         style="fill:none;stroke:#000000;stroke-width:3;stroke-linecap:round;stroke-linejoin:round;stroke-miterlimit:10;stroke-opacity:1;stroke-dasharray:none" />
    </g>
    <g
       transform="matrix(0.3,0,0,0.3,-564.10072,-777.26711)"
       id="g10894">
      <path
         d="m 1049,1817 5,-3 m -75,33 0,-60 m 11,80 0,-11 m 2,11 0,1 m 3,-27 0,-54 m 10,80 0,1 m 23,-70 0,24 m 0,25 0,20 m 91,-73 -7,6 m -48,14 4,3"
         id="path10896"
         style="fill:none;stroke:#000000;stroke-width:3;stroke-linecap:round;stroke-linejoin:round;stroke-miterlimit:10;stroke-opacity:1;stroke-dasharray:none" />
    </g>
    <g
       transform="matrix(0.3,0,0,0.3,-564.10072,-777.26711)"
       id="g10898">
      <path
         d="m 1068,1812 5,3"
         id="path10900"
         style="fill:none;stroke:#000000;stroke-width:3;stroke-linecap:round;stroke-linejoin:round;stroke-miterlimit:10;stroke-opacity:1;stroke-dasharray:none" />
    </g>
    <g
       transform="matrix(0.3,0,0,0.3,-564.10072,-777.26711)"
       id="g10902">
      <path
         d="m 1073,1809 4,3 m -44,57 0,-7 m 0,-62 0,-12 m 2,25 0,17 m 0,17 0,5 m 3,17 0,-7 m 6,-40 0,8 m 0,17 0,5 m 2,-29 0,7 m 0,17 0,15 m 2,-58 0,11 m 1,2 0,7 m 4,-13 0,-7"
         id="path10904"
         style="fill:none;stroke:#000000;stroke-width:3;stroke-linecap:round;stroke-linejoin:round;stroke-miterlimit:10;stroke-opacity:1;stroke-dasharray:none" />
    </g>
    <g
       transform="matrix(0.3,0,0,0.3,-564.10072,-777.26711)"
       id="g10906">
      <path
         d="m 1038,1812 0,6 -5,-18"
         id="path10908"
         style="fill:none;stroke:#000000;stroke-width:3;stroke-linecap:round;stroke-linejoin:round;stroke-miterlimit:10;stroke-opacity:1;stroke-dasharray:none" />
    </g>
    <g
       transform="matrix(0.3,0,0,0.3,-564.10072,-777.26711)"
       id="g10910">
      <path
         d="m 1038,1812 -5,-18 m 46,24 0,-6 m -15,-8 0,7 m 4,6 0,7 m 1,-20 0,11 m 2,8 0,7 m 0,17 0,15 m 3,-40 0,8 m 0,17 0,5 m 5,17 0,-7 m 3,-49 0,17 m 0,17 0,5 m 2,17 0,-7 m 0,-62 0,-12 m 1,23 0,2 m 1,54 0,1 m -7,-56 5,-18 m -5,24 5,-18 m 64,41 -1,0 m -6,-7 -2,-2 m -50,-34 0,24 m 0,25 0,20 m 10,0 0,1 m 8,-81 0,54 m 0,26 0,3 m 2,-76 0,21 m 3,-15 0,49 m 3,18 0,3 m 17,-76 7,6 m 2,58 3,5 m -24,-76 0,7 m 6,-7 0,7 m 13,73 0,-67 m 2,58 0,-60 m 6,0 0,65 m 3,-29 0,33 m 2,-19 0,19"
         id="path10912"
         style="fill:none;stroke:#000000;stroke-width:3;stroke-linecap:round;stroke-linejoin:round;stroke-miterlimit:10;stroke-opacity:1;stroke-dasharray:none" />
    </g>
    <g
       transform="matrix(0.3,0,0,0.3,-564.10072,-777.26711)"
       id="g11262">
      <path
         d="m 556,1787 -6,2 -3,4 -2,5"
         id="path11264"
         style="fill:none;stroke:#000000;stroke-width:3;stroke-linecap:round;stroke-linejoin:round;stroke-miterlimit:10;stroke-opacity:1;stroke-dasharray:none" />
    </g>
    <g
       transform="matrix(0.3,0,0,0.3,-564.10072,-777.26711)"
       id="g11266">
      <path
         d="m 1147,1798 -1,-5 -4,-4 -5,-2"
         id="path11268"
         style="fill:none;stroke:#000000;stroke-width:3;stroke-linecap:round;stroke-linejoin:round;stroke-miterlimit:10;stroke-opacity:1;stroke-dasharray:none" />
    </g>
    <g
       transform="matrix(0.3,0,0,0.3,-564.10072,-777.26711)"
       id="g11270">
      <path
         d="m 784,1822 1,4 3,3 4,1"
         id="path11272"
         style="fill:none;stroke:#000000;stroke-width:3;stroke-linecap:round;stroke-linejoin:round;stroke-miterlimit:10;stroke-opacity:1;stroke-dasharray:none" />
    </g>
    <g
       transform="matrix(0.3,0,0,0.3,-564.10072,-777.26711)"
       id="g11274">
      <path
         d="m 836,1830 4,-1 3,-3 1,-4"
         id="path11276"
         style="fill:none;stroke:#000000;stroke-width:3;stroke-linecap:round;stroke-linejoin:round;stroke-miterlimit:10;stroke-opacity:1;stroke-dasharray:none" />
    </g>
    <g
       transform="matrix(0.3,0,0,0.3,-564.10072,-777.26711)"
       id="g11278">
      <path
         d="m 1080,1830 4,-1 3,-3 2,-4"
         id="path11280"
         style="fill:none;stroke:#000000;stroke-width:3;stroke-linecap:round;stroke-linejoin:round;stroke-miterlimit:10;stroke-opacity:1;stroke-dasharray:none" />
    </g>
    <g
       transform="matrix(0.3,0,0,0.3,-564.10072,-777.26711)"
       id="g11282">
      <path
         d="m 575,1870 4,-1 3,-2"
         id="path11284"
         style="fill:none;stroke:#000000;stroke-width:3;stroke-linecap:round;stroke-linejoin:round;stroke-miterlimit:10;stroke-opacity:1;stroke-dasharray:none" />
    </g>
    <g
       transform="matrix(0.3,0,0,0.3,-564.10072,-777.26711)"
       id="g11286">
      <path
         d="m 1139,1870 4,-1 3,-2"
         id="path11288"
         style="fill:none;stroke:#000000;stroke-width:3;stroke-linecap:round;stroke-linejoin:round;stroke-miterlimit:10;stroke-opacity:1;stroke-dasharray:none" />
    </g>
    <g
       transform="matrix(0.3,0,0,0.3,-564.10072,-777.26711)"
       id="g11290">
      <path
         d="m 1048,1811 -4,-2 m 29,0 -4,2 m -525,19 -1,3 m 607,13 -2,-5"
         id="path11292"
         style="fill:none;stroke:#000000;stroke-width:3;stroke-linecap:round;stroke-linejoin:round;stroke-miterlimit:10;stroke-opacity:1;stroke-dasharray:none" />
    </g>
    <g
       transform="matrix(0.3,0,0,0.3,-564.10072,-777.26711)"
       id="g11294">
      <path
         d="m 995,1841 2,4 5,2"
         id="path11296"
         style="fill:none;stroke:#000000;stroke-width:3;stroke-linecap:round;stroke-linejoin:round;stroke-miterlimit:10;stroke-opacity:1;stroke-dasharray:none" />
    </g>
    <g
       transform="matrix(0.3,0,0,0.3,-564.10072,-777.26711)"
       id="g11298">
      <path
         d="m 1100,1847 5,-2 2,-4"
         id="path11300"
         style="fill:none;stroke:#000000;stroke-width:3;stroke-linecap:round;stroke-linejoin:round;stroke-miterlimit:10;stroke-opacity:1;stroke-dasharray:none" />
    </g>
    <g
       transform="matrix(0.3,0,0,0.3,-564.10072,-777.26711)"
       id="g11302">
      <path
         d="m 718,1841 2,4 4,2"
         id="path11304"
         style="fill:none;stroke:#000000;stroke-width:3;stroke-linecap:round;stroke-linejoin:round;stroke-miterlimit:10;stroke-opacity:1;stroke-dasharray:none" />
    </g>
    <g
       transform="matrix(0.3,0,0,0.3,-564.10072,-777.26711)"
       id="g11306">
      <path
         d="m 874,1847 5,-2 2,-4"
         id="path11308"
         style="fill:none;stroke:#000000;stroke-width:3;stroke-linecap:round;stroke-linejoin:round;stroke-miterlimit:10;stroke-opacity:1;stroke-dasharray:none" />
    </g>
    <g
       transform="matrix(0.3,0,0,0.3,-564.10072,-777.26711)"
       id="g11310">
      <path
         d="m 893,1847 2,5 5,2"
         id="path11312"
         style="fill:none;stroke:#000000;stroke-width:3;stroke-linecap:round;stroke-linejoin:round;stroke-miterlimit:10;stroke-opacity:1;stroke-dasharray:none" />
    </g>
    <g
       transform="matrix(0.3,0,0,0.3,-564.10072,-777.26711)"
       id="g11314">
      <path
         d="m 973,1854 4,-2 2,-5"
         id="path11316"
         style="fill:none;stroke:#000000;stroke-width:3;stroke-linecap:round;stroke-linejoin:round;stroke-miterlimit:10;stroke-opacity:1;stroke-dasharray:none" />
    </g>
    <g
       transform="matrix(0.3,0,0,0.3,-564.10072,-777.26711)"
       id="g11318">
      <path
         d="m 619,1847 2,5 5,2"
         id="path11320"
         style="fill:none;stroke:#000000;stroke-width:3;stroke-linecap:round;stroke-linejoin:round;stroke-miterlimit:10;stroke-opacity:1;stroke-dasharray:none" />
    </g>
    <g
       transform="matrix(0.3,0,0,0.3,-564.10072,-777.26711)"
       id="g11322">
      <path
         d="m 698,1854 5,-2 2,-5"
         id="path11324"
         style="fill:none;stroke:#000000;stroke-width:3;stroke-linecap:round;stroke-linejoin:round;stroke-miterlimit:10;stroke-opacity:1;stroke-dasharray:none" />
    </g>
    <g
       transform="matrix(0.3,0,0,0.3,-564.10072,-777.26711)"
       id="g11326">
      <path
         d="m 826,1810 -1,0 m -22,0 -1,0"
         id="path11328"
         style="fill:none;stroke:#000000;stroke-width:3;stroke-linecap:round;stroke-linejoin:round;stroke-miterlimit:10;stroke-opacity:1;stroke-dasharray:none" />
    </g>
    <g
       transform="matrix(0.3,0,0,0.3,-564.10072,-777.26711)"
       id="g11330">
      <path
         d="m 692,1813 -2,-4 -4,-1"
         id="path11332"
         style="fill:none;stroke:#000000;stroke-width:3;stroke-linecap:round;stroke-linejoin:round;stroke-miterlimit:10;stroke-opacity:1;stroke-dasharray:none" />
    </g>
    <g
       transform="matrix(0.3,0,0,0.3,-564.10072,-777.26711)"
       id="g11334">
      <path
         d="m 686,1838 4,-2 2,-4"
         id="path11336"
         style="fill:none;stroke:#000000;stroke-width:3;stroke-linecap:round;stroke-linejoin:round;stroke-miterlimit:10;stroke-opacity:1;stroke-dasharray:none" />
    </g>
    <g
       transform="matrix(0.3,0,0,0.3,-564.10072,-777.26711)"
       id="g11338">
      <path
         d="m 632,1832 2,4 4,2"
         id="path11340"
         style="fill:none;stroke:#000000;stroke-width:3;stroke-linecap:round;stroke-linejoin:round;stroke-miterlimit:10;stroke-opacity:1;stroke-dasharray:none" />
    </g>
    <g
       transform="matrix(0.3,0,0,0.3,-564.10072,-777.26711)"
       id="g11342">
      <path
         d="m 638,1808 -4,1 -2,4"
         id="path11344"
         style="fill:none;stroke:#000000;stroke-width:3;stroke-linecap:round;stroke-linejoin:round;stroke-miterlimit:10;stroke-opacity:1;stroke-dasharray:none" />
    </g>
    <g
       transform="matrix(0.3,0,0,0.3,-564.10072,-777.26711)"
       id="g11346">
      <path
         d="m 912,1808 -4,1 -2,4"
         id="path11348"
         style="fill:none;stroke:#000000;stroke-width:3;stroke-linecap:round;stroke-linejoin:round;stroke-miterlimit:10;stroke-opacity:1;stroke-dasharray:none" />
    </g>
    <g
       transform="matrix(0.3,0,0,0.3,-564.10072,-777.26711)"
       id="g11350">
      <path
         d="m 906,1832 2,4 4,2"
         id="path11352"
         style="fill:none;stroke:#000000;stroke-width:3;stroke-linecap:round;stroke-linejoin:round;stroke-miterlimit:10;stroke-opacity:1;stroke-dasharray:none" />
    </g>
    <g
       transform="matrix(0.3,0,0,0.3,-564.10072,-777.26711)"
       id="g11354">
      <path
         d="m 966,1813 -1,-4 -4,-1"
         id="path11356"
         style="fill:none;stroke:#000000;stroke-width:3;stroke-linecap:round;stroke-linejoin:round;stroke-miterlimit:10;stroke-opacity:1;stroke-dasharray:none" />
    </g>
    <g
       transform="matrix(0.3,0,0,0.3,-564.10072,-777.26711)"
       id="g11358">
      <path
         d="m 961,1838 4,-2 1,-4"
         id="path11360"
         style="fill:none;stroke:#000000;stroke-width:3;stroke-linecap:round;stroke-linejoin:round;stroke-miterlimit:10;stroke-opacity:1;stroke-dasharray:none" />
    </g>
    <g
       transform="matrix(0.3,0,0,0.3,-564.10072,-777.26711)"
       id="g11362">
      <path
         d="m 556,1794 -3,1 -1,3"
         id="path11364"
         style="fill:none;stroke:#000000;stroke-width:3;stroke-linecap:round;stroke-linejoin:round;stroke-miterlimit:10;stroke-opacity:1;stroke-dasharray:none" />
    </g>
    <g
       transform="matrix(0.3,0,0,0.3,-564.10072,-777.26711)"
       id="g11366">
      <path
         d="m 1141,1798 -1,-3 -3,-1"
         id="path11368"
         style="fill:none;stroke:#000000;stroke-width:3;stroke-linecap:round;stroke-linejoin:round;stroke-miterlimit:10;stroke-opacity:1;stroke-dasharray:none" />
    </g>
    <g
       transform="matrix(0.3,0,0,0.3,-564.10072,-777.26711)"
       id="g11370">
      <path
         d="m 1089,1808 -3,1 -1,2"
         id="path11372"
         style="fill:none;stroke:#000000;stroke-width:3;stroke-linecap:round;stroke-linejoin:round;stroke-miterlimit:10;stroke-opacity:1;stroke-dasharray:none" />
    </g>
    <g
       transform="matrix(0.3,0,0,0.3,-564.10072,-777.26711)"
       id="g11450">
      <path
         d="m 1033,1794 -1,0 -2,0 -2,0"
         id="path11452"
         style="fill:none;stroke:#000000;stroke-width:3;stroke-linecap:round;stroke-linejoin:round;stroke-miterlimit:10;stroke-opacity:1;stroke-dasharray:none" />
    </g>
    <g
       transform="matrix(0.3,0,0,0.3,-564.10072,-777.26711)"
       id="g11454">
      <path
         d="m 1089,1794 -3,0 -2,0"
         id="path11456"
         style="fill:none;stroke:#000000;stroke-width:3;stroke-linecap:round;stroke-linejoin:round;stroke-miterlimit:10;stroke-opacity:1;stroke-dasharray:none" />
    </g>
    <g
       transform="matrix(0.3,0,0,0.3,-564.10072,-777.26711)"
       id="g11458">
      <path
         d="m 807,1812 2,-1 2,0 3,0 4,0 2,0 1,1"
         id="path11460"
         style="fill:none;stroke:#000000;stroke-width:3;stroke-linecap:round;stroke-linejoin:round;stroke-miterlimit:10;stroke-opacity:1;stroke-dasharray:none" />
    </g>
    <g
       transform="matrix(0.3,0,0,0.3,-564.10072,-777.26711)"
       id="g11462">
      <path
         d="m 1054,1814 1,0 1,-1 3,0 2,0 1,1 2,0"
         id="path11464"
         style="fill:none;stroke:#000000;stroke-width:3;stroke-linecap:round;stroke-linejoin:round;stroke-miterlimit:10;stroke-opacity:1;stroke-dasharray:none" />
    </g>
    <g
       transform="matrix(0.3,0,0,0.3,-564.10072,-777.26711)"
       id="g11466">
      <path
         d="m 812,1814 1,0 1,0 1,0 2,0"
         id="path11468"
         style="fill:none;stroke:#000000;stroke-width:3;stroke-linecap:round;stroke-linejoin:round;stroke-miterlimit:10;stroke-opacity:1;stroke-dasharray:none" />
    </g>
    <g
       transform="matrix(0.3,0,0,0.3,-564.10072,-777.26711)"
       id="g11470">
      <path
         d="m 1077,1812 -1,1 -2,0 -1,1 0,1"
         id="path11472"
         style="fill:none;stroke:#000000;stroke-width:3;stroke-linecap:round;stroke-linejoin:round;stroke-miterlimit:10;stroke-opacity:1;stroke-dasharray:none" />
    </g>
    <g
       transform="matrix(0.3,0,0,0.3,-564.10072,-777.26711)"
       id="g11474">
      <path
         d="m 1044,1819 5,0"
         id="path11476"
         style="fill:none;stroke:#000000;stroke-width:3;stroke-linecap:round;stroke-linejoin:round;stroke-miterlimit:10;stroke-opacity:1;stroke-dasharray:none" />
    </g>
    <g
       transform="matrix(0.3,0,0,0.3,-564.10072,-777.26711)"
       id="g11478">
      <path
         d="m 1073,1815 -1,1 -2,1 -1,0 -1,0"
         id="path11480"
         style="fill:none;stroke:#000000;stroke-width:3;stroke-linecap:round;stroke-linejoin:round;stroke-miterlimit:10;stroke-opacity:1;stroke-dasharray:none" />
    </g>
    <g
       transform="matrix(0.3,0,0,0.3,-564.10072,-777.26711)"
       id="g11482">
      <path
         d="m 823,1819 6,0"
         id="path11484"
         style="fill:none;stroke:#000000;stroke-width:3;stroke-linecap:round;stroke-linejoin:round;stroke-miterlimit:10;stroke-opacity:1;stroke-dasharray:none" />
    </g>
    <g
       transform="matrix(0.3,0,0,0.3,-564.10072,-777.26711)"
       id="g11486">
      <path
         d="m 1049,1812 1,-1 1,0 2,0"
         id="path11488"
         style="fill:none;stroke:#000000;stroke-width:3;stroke-linecap:round;stroke-linejoin:round;stroke-miterlimit:10;stroke-opacity:1;stroke-dasharray:none" />
    </g>
    <g
       transform="matrix(0.3,0,0,0.3,-564.10072,-777.26711)"
       id="g11490">
      <path
         d="m 1064,1811 2,0 1,0 1,1"
         id="path11492"
         style="fill:none;stroke:#000000;stroke-width:3;stroke-linecap:round;stroke-linejoin:round;stroke-miterlimit:10;stroke-opacity:1;stroke-dasharray:none" />
    </g>
    <g
       transform="matrix(0.3,0,0,0.3,-564.10072,-777.26711)"
       id="g11494">
      <path
         d="m 1044,1809 1,0 1,0 2,0"
         id="path11496"
         style="fill:none;stroke:#000000;stroke-width:3;stroke-linecap:round;stroke-linejoin:round;stroke-miterlimit:10;stroke-opacity:1;stroke-dasharray:none" />
    </g>
    <g
       transform="matrix(0.3,0,0,0.3,-564.10072,-777.26711)"
       id="g11498">
      <path
         d="m 1069,1809 2,0 1,0 1,0"
         id="path11500"
         style="fill:none;stroke:#000000;stroke-width:3;stroke-linecap:round;stroke-linejoin:round;stroke-miterlimit:10;stroke-opacity:1;stroke-dasharray:none" />
    </g>
    <g
       transform="matrix(0.3,0,0,0.3,-564.10072,-777.26711)"
       id="g11502">
      <path
         d="m 1028,1822 1,1 0,1 1,2 1,1 1,1 1,1 1,1 2,0 1,0"
         id="path11504"
         style="fill:none;stroke:#000000;stroke-width:3;stroke-linecap:round;stroke-linejoin:round;stroke-miterlimit:10;stroke-opacity:1;stroke-dasharray:none" />
    </g>
    <g
       transform="matrix(0.3,0,0,0.3,-564.10072,-777.26711)"
       id="g11506">
      <path
         d="m 1047,1824 1,0 1,0"
         id="path11508"
         style="fill:none;stroke:#000000;stroke-width:3;stroke-linecap:round;stroke-linejoin:round;stroke-miterlimit:10;stroke-opacity:1;stroke-dasharray:none" />
    </g>
    <g
       transform="matrix(0.3,0,0,0.3,-564.10072,-777.26711)"
       id="g11510">
      <path
         d="m 1089,1787 0,1 0,1 0,1 0,1 0,2 0,1 0,2 0,2"
         id="path11512"
         style="fill:none;stroke:#000000;stroke-width:3;stroke-linecap:round;stroke-linejoin:round;stroke-miterlimit:10;stroke-opacity:1;stroke-dasharray:none" />
    </g>
    <g
       transform="matrix(0.3,0,0,0.3,-564.10072,-777.26711)"
       id="g11514">
      <path
         d="m 1028,1798 0,-2 0,-2 0,-1 0,-2 0,-1 0,-1 0,-1 0,-1"
         id="path11516"
         style="fill:none;stroke:#000000;stroke-width:3;stroke-linecap:round;stroke-linejoin:round;stroke-miterlimit:10;stroke-opacity:1;stroke-dasharray:none" />
    </g>
    <g
       transform="matrix(0.3,0,0,0.3,-564.10072,-777.26711)"
       id="g11518">
      <path
         d="m 845,1787 -1,1 0,1 0,1 0,1 0,2 0,1 0,2 0,2"
         id="path11520"
         style="fill:none;stroke:#000000;stroke-width:3;stroke-linecap:round;stroke-linejoin:round;stroke-miterlimit:10;stroke-opacity:1;stroke-dasharray:none" />
    </g>
    <g
       transform="matrix(0.3,0,0,0.3,-564.10072,-777.26711)"
       id="g11522">
      <path
         d="m 784,1798 0,-2 0,-2 0,-1 0,-2 0,-1 0,-1 0,-1 0,-1"
         id="path11524"
         style="fill:none;stroke:#000000;stroke-width:3;stroke-linecap:round;stroke-linejoin:round;stroke-miterlimit:10;stroke-opacity:1;stroke-dasharray:none" />
    </g>
    <g
       transform="matrix(0.3,0,0,0.3,-564.10072,-777.26711)"
       id="g11526">
      <path
         d="m 845,1787 -2,0 -1,0 0,1 -1,0 -1,0"
         id="path11528"
         style="fill:none;stroke:#000000;stroke-width:3;stroke-linecap:round;stroke-linejoin:round;stroke-miterlimit:10;stroke-opacity:1;stroke-dasharray:none" />
    </g>
    <g
       transform="matrix(0.3,0,0,0.3,-564.10072,-777.26711)"
       id="g11530">
      <path
         d="m 789,1788 -1,0 -1,0 -1,-1 -1,0 -1,0"
         id="path11532"
         style="fill:none;stroke:#000000;stroke-width:3;stroke-linecap:round;stroke-linejoin:round;stroke-miterlimit:10;stroke-opacity:1;stroke-dasharray:none" />
    </g>
    <g
       transform="matrix(0.3,0,0,0.3,-564.10072,-777.26711)"
       id="g11534">
      <path
         d="m 1033,1788 -1,0 -1,0 -1,-1 -1,0 -1,0"
         id="path11536"
         style="fill:none;stroke:#000000;stroke-width:3;stroke-linecap:round;stroke-linejoin:round;stroke-miterlimit:10;stroke-opacity:1;stroke-dasharray:none" />
    </g>
    <g
       transform="matrix(0.3,0,0,0.3,-564.10072,-777.26711)"
       id="g11538">
      <path
         d="m 1089,1787 -1,0 -1,0 -1,1 -1,0 -1,0"
         id="path11540"
         style="fill:none;stroke:#000000;stroke-width:3;stroke-linecap:round;stroke-linejoin:round;stroke-miterlimit:10;stroke-opacity:1;stroke-dasharray:none" />
    </g>
    <g
       transform="matrix(0.3,0,0,0.3,-564.10072,-777.26711)"
       id="g11542">
      <path
         d="m 1038,1812 1,0 1,0"
         id="path11544"
         style="fill:none;stroke:#000000;stroke-width:3;stroke-linecap:round;stroke-linejoin:round;stroke-miterlimit:10;stroke-opacity:1;stroke-dasharray:none" />
    </g>
    <g
       transform="matrix(0.3,0,0,0.3,-564.10072,-777.26711)"
       id="g11546">
      <path
         d="m 1077,1812 1,0 1,0"
         id="path11548"
         style="fill:none;stroke:#000000;stroke-width:3;stroke-linecap:round;stroke-linejoin:round;stroke-miterlimit:10;stroke-opacity:1;stroke-dasharray:none" />
    </g>
    <g
       transform="matrix(0.3,0,0,0.3,-564.10072,-777.26711)"
       id="g11550">
      <path
         d="m 830,1813 2,0 1,-1 1,0"
         id="path11552"
         style="fill:none;stroke:#000000;stroke-width:3;stroke-linecap:round;stroke-linejoin:round;stroke-miterlimit:10;stroke-opacity:1;stroke-dasharray:none" />
    </g>
    <g
       transform="matrix(0.3,0,0,0.3,-564.10072,-777.26711)"
       id="g15298">
      <path
         d="m 1038,1818 4,3 5,3"
         id="path15300"
         style="fill:none;stroke:#000000;stroke-width:3;stroke-linecap:round;stroke-linejoin:round;stroke-miterlimit:10;stroke-opacity:1;stroke-dasharray:none" />
    </g>
    <g
       transform="matrix(0.3,0,0,0.3,-564.10072,-777.26711)"
       id="g15302">
      <path
         d="m 1038,1818 6,1 m 29,0 -5,0"
         id="path15304"
         style="fill:none;stroke:#000000;stroke-width:3;stroke-linecap:round;stroke-linejoin:round;stroke-miterlimit:10;stroke-opacity:1;stroke-dasharray:none" />
    </g>
    <g
       transform="matrix(0.3,0,0,0.3,-564.10072,-777.26711)"
       id="g15306">
      <path
         d="m 1079,1818 -4,3 -5,3"
         id="path15308"
         style="fill:none;stroke:#000000;stroke-width:3;stroke-linecap:round;stroke-linejoin:round;stroke-miterlimit:10;stroke-opacity:1;stroke-dasharray:none" />
    </g>
    <g
       transform="matrix(0.3,0,0,0.3,-564.10072,-777.26711)"
       id="g15310">
      <path
         d="m 1073,1819 6,-1"
         id="path15312"
         style="fill:none;stroke:#000000;stroke-width:3;stroke-linecap:round;stroke-linejoin:round;stroke-miterlimit:10;stroke-opacity:1;stroke-dasharray:none" />
    </g>
    <g
       transform="matrix(0.3,0,0,0.3,-564.10072,-777.26711)"
       id="g15314">
      <path
         d="m 1089,1811 -2,0 -2,2"
         id="path15316"
         style="fill:none;stroke:#000000;stroke-width:3;stroke-linecap:round;stroke-linejoin:round;stroke-miterlimit:10;stroke-opacity:1;stroke-dasharray:none" />
    </g>
    <g
       transform="matrix(0.3,0,0,0.3,-564.10072,-777.26711)"
       id="g15318">
      <path
         d="m 1049,1812 5,2 m 10,0 4,-2"
         id="path15320"
         style="fill:none;stroke:#000000;stroke-width:3;stroke-linecap:round;stroke-linejoin:round;stroke-miterlimit:10;stroke-opacity:1;stroke-dasharray:none" />
    </g>
    <g
       transform="matrix(0.3,0,0,0.3,-564.10072,-777.26711)"
       id="g15322">
      <path
         d="m 1049,1817 -5,-2 -4,-3"
         id="path15324"
         style="fill:none;stroke:#000000;stroke-width:3;stroke-linecap:round;stroke-linejoin:round;stroke-miterlimit:10;stroke-opacity:1;stroke-dasharray:none" />
    </g>
    <g
       transform="matrix(0.3,0,0,0.3,-564.10072,-777.26711)"
       id="g15326">
      <path
         d="m 829,1819 5,-1 0,-6"
         id="path15328"
         style="fill:none;stroke:#000000;stroke-width:3;stroke-linecap:round;stroke-linejoin:round;stroke-miterlimit:10;stroke-opacity:1;stroke-dasharray:none" />
    </g>
    <g
       transform="matrix(0.3,0,0,0.3,-564.10072,-777.26711)"
       id="g15330">
      <path
         d="m 834,1818 -4,3 -4,3"
         id="path15332"
         style="fill:none;stroke:#000000;stroke-width:3;stroke-linecap:round;stroke-linejoin:round;stroke-miterlimit:10;stroke-opacity:1;stroke-dasharray:none" />
    </g>
    <g
       transform="matrix(0.3,0,0,0.3,-564.10072,-777.26711)"
       id="g15334">
      <path
         d="m 826,1810 -1,-1"
         id="path15336"
         style="fill:none;stroke:#000000;stroke-width:3;stroke-linecap:round;stroke-linejoin:round;stroke-miterlimit:10;stroke-opacity:1;stroke-dasharray:none" />
    </g>
    <g
       transform="matrix(0.3,0,0,0.3,-564.10072,-777.26711)"
       id="g15338">
      <path
         d="m 830,1813 -4,2 -5,2"
         id="path15340"
         style="fill:none;stroke:#000000;stroke-width:3;stroke-linecap:round;stroke-linejoin:round;stroke-miterlimit:10;stroke-opacity:1;stroke-dasharray:none" />
    </g>
    <g
       transform="matrix(0.3,0,0,0.3,-564.10072,-777.26711)"
       id="g15342">
      <path
         d="m 805,1819 -6,0 -5,-1 4,3 5,3"
         id="path15344"
         style="fill:none;stroke:#000000;stroke-width:3;stroke-linecap:round;stroke-linejoin:round;stroke-miterlimit:10;stroke-opacity:1;stroke-dasharray:none" />
    </g>
    <g
       transform="matrix(0.3,0,0,0.3,-564.10072,-777.26711)"
       id="g15346">
      <path
         d="m 803,1809 -1,1"
         id="path15348"
         style="fill:none;stroke:#000000;stroke-width:3;stroke-linecap:round;stroke-linejoin:round;stroke-miterlimit:10;stroke-opacity:1;stroke-dasharray:none" />
    </g>
    <g
       transform="matrix(0.3,0,0,0.3,-564.10072,-777.26711)"
       id="g15350">
      <path
         d="m 817,1814 4,-2 1,-1"
         id="path15352"
         style="fill:none;stroke:#000000;stroke-width:3;stroke-linecap:round;stroke-linejoin:round;stroke-miterlimit:10;stroke-opacity:1;stroke-dasharray:none" />
    </g>
    <g
       transform="matrix(0.3,0,0,0.3,-564.10072,-777.26711)"
       id="g15354">
      <path
         d="m 812,1814 -5,-2 -1,-1"
         id="path15356"
         style="fill:none;stroke:#000000;stroke-width:3;stroke-linecap:round;stroke-linejoin:round;stroke-miterlimit:10;stroke-opacity:1;stroke-dasharray:none" />
    </g>
    <g
       transform="matrix(0.3,0,0,0.3,-564.10072,-777.26711)"
       id="g15358">
      <path
         d="m 798,1813 -1,0 -1,-1 -1,0 -1,0"
         id="path15360"
         style="fill:none;stroke:#000000;stroke-width:3;stroke-linecap:round;stroke-linejoin:round;stroke-miterlimit:10;stroke-opacity:1;stroke-dasharray:none" />
    </g>
    <g
       transform="matrix(0.3,0,0,0.3,-564.10072,-777.26711)"
       id="g15362">
      <path
         d="m 798,1813 5,2 4,2"
         id="path15364"
         style="fill:none;stroke:#000000;stroke-width:3;stroke-linecap:round;stroke-linejoin:round;stroke-miterlimit:10;stroke-opacity:1;stroke-dasharray:none" />
    </g>
    <g
       transform="matrix(0.3,0,0,0.3,-564.10072,-777.26711)"
       id="g16014">
      <path
         d="m 544,1787 -62,0 m 50,80 -50,0 m 11,-57 0,34"
         id="path16016"
         style="fill:none;stroke:#000000;stroke-width:3;stroke-linecap:round;stroke-linejoin:round;stroke-miterlimit:10;stroke-opacity:1;stroke-dasharray:none" />
    </g>
    <path
       d="m -417.40072,-234.26711 2.4,0 -1.2,-6.9 -1.2,6.9 z"
       id="path16018"
       style="fill:#000000;fill-opacity:1;fill-rule:evenodd;stroke:none" />
    <path
       d="m -417.40072,-224.06711 2.4,0 -1.2,6.9 -1.2,-6.9 z"
       id="path16020"
       style="fill:#000000;fill-opacity:1;fill-rule:evenodd;stroke:none" />
    <g
       transform="matrix(0.3,0,0,0.3,-564.10072,-777.26711)"
       id="g16022">
      <path
         d="m 463,1860 -1,-2 -3,-3 23,0"
         id="path16024"
         style="fill:none;stroke:#000000;stroke-width:3;stroke-linecap:round;stroke-linejoin:round;stroke-miterlimit:10;stroke-opacity:1;stroke-dasharray:none" />
    </g>
    <g
       transform="matrix(0.3,0,0,0.3,-564.10072,-777.26711)"
       id="g16026">
      <path
         d="m 479,1839 1,2 2,-2 -2,-1 -1,1 z"
         id="path16028"
         style="fill:none;stroke:#000000;stroke-width:3;stroke-linecap:round;stroke-linejoin:round;stroke-miterlimit:10;stroke-opacity:1;stroke-dasharray:none" />
    </g>
    <g
       transform="matrix(0.3,0,0,0.3,-564.10072,-777.26711)"
       id="g16030">
      <path
         d="m 459,1825 1,4 2,1 2,0 2,-1 1,-3 1,-4 2,-3 2,-2 2,-2 3,0 2,2 1,1 2,3 0,4 -2,4 -1,1 -2,1 -3,0 -2,-1 -2,-3 -2,-3 -1,-4 -1,-2 -2,-1 -2,0 -2,1 -1,3 0,4 z"
         id="path16032"
         style="fill:none;stroke:#000000;stroke-width:3;stroke-linecap:round;stroke-linejoin:round;stroke-miterlimit:10;stroke-opacity:1;stroke-dasharray:none" />
    </g>
    <g
       transform="matrix(0.3,0,0,0.3,-564.10072,-777.26711)"
       id="g16034">
      <path
         d="m 459,1796 0,11 9,1 -1,-1 -1,-4 0,-3 1,-3 3,-2 3,-1 2,0 3,1 2,2 2,3 0,3 -2,4 -1,1 -2,1"
         id="path16036"
         style="fill:none;stroke:#000000;stroke-width:3;stroke-linecap:round;stroke-linejoin:round;stroke-miterlimit:10;stroke-opacity:1;stroke-dasharray:none" />
    </g>
  </g>
</svg>
