<?xml version="1.0" encoding="UTF-8" standalone="no"?>
<!-- Created with Inkscape (http://www.inkscape.org/) -->

<svg
   xmlns:dc="http://purl.org/dc/elements/1.1/"
   xmlns:cc="http://creativecommons.org/ns#"
   xmlns:rdf="http://www.w3.org/1999/02/22-rdf-syntax-ns#"
   xmlns:svg="http://www.w3.org/2000/svg"
   xmlns="http://www.w3.org/2000/svg"
   version="1.1"
   width="183.62958"
   height="53.415882"
   id="svg16767">
  <defs
     id="defs16769" />
  <metadata
     id="metadata16772">
    <rdf:RDF>
      <cc:Work
         rdf:about="">
        <dc:format>image/svg+xml</dc:format>
        <dc:type
           rdf:resource="http://purl.org/dc/dcmitype/StillImage" />
        <dc:title></dc:title>
      </cc:Work>
    </rdf:RDF>
  </metadata>
  <g
     transform="translate(328.16501,447.84728)"
     id="layer1">
    <g
       transform="matrix(0.3,0,0,0.3,-490.59096,-542.78781)"
       id="g10878">
      <path
         d="m 552,324 0,-6 23,0"
         id="path10880"
         style="fill:none;stroke:#000000;stroke-width:3;stroke-linecap:round;stroke-linejoin:round;stroke-miterlimit:10;stroke-opacity:1;stroke-dasharray:none" />
    </g>
    <g
       transform="matrix(0.3,0,0,0.3,-490.59096,-542.78781)"
       id="g14706">
      <path
         d="m 543,355 0,-34 m 2,69 0,-66 m 7,-6 0,6 m 0,66 0,-60 m 2,-6 0,63 m 6,-69 0,6 m 17,2 0,61 m 7,-61 0,61 m 2,-57 0,55 m 13,-64 0,9 m 53,70 0,-6 m 6,0 0,-41 m 3,47 0,-6 m 1,0 0,-37 m -108,14 -2,-3 m -7,-9 -1,-2 m 4,-33 4,6 m 111,63 0,-36 m 13,43 0,-6 m 1,-1 0,-36 m 1,36 0,-36 m 20,0 0,-7 m 9,44 0,-1 m 6,-39 0,39 m 1,-39 0,25 m -154,15 -6,-7 m 165,-8 0,-23 m 18,-2 0,3 m 4,-27 0,24 m -155,31 8,9 m 161,-27 0,11 m 1,-34 0,-21 m 3,44 0,16"
         id="path14708"
         style="fill:none;stroke:#000000;stroke-width:3;stroke-linecap:round;stroke-linejoin:round;stroke-miterlimit:10;stroke-opacity:1;stroke-dasharray:none" />
    </g>
    <g
       transform="matrix(0.3,0,0,0.3,-490.59096,-542.78781)"
       id="g14710">
      <path
         d="m 766,383 0,-16"
         id="path14712"
         style="fill:none;stroke:#000000;stroke-width:3;stroke-linecap:round;stroke-linejoin:round;stroke-miterlimit:10;stroke-opacity:1;stroke-dasharray:none" />
    </g>
    <g
       transform="matrix(0.3,0,0,0.3,-490.59096,-542.78781)"
       id="g14714">
      <path
         d="m 770,367 2,-13 m -17,13 -2,-13 m 16,-10 0,-21 m 1,55 0,-11 m 12,-13 0,33 m 2,3 0,-24 m 5,-47 0,2 m 0,56 0,-23 m 5,15 -6,25 m -12,0 6,-7 m -120,-30 -4,-4 m 101,14 1,0 m 42,-3 0,15 m 1,-35 0,-21 m 3,44 0,16 m 8,0 0,-16 m 2,-23 0,-21 m 1,56 0,-15 m 0,3 2,-13 m 12,18 3,-3 m -31,-2 -2,-13 m 39,40 0,-6 m 0,-69 0,2 m 4,69 0,-16 m 0,-17 0,-3 m 23,3 -1,0 m -16,10 0,11 m 1,-34 0,-21 m 3,44 0,16 m 6,0 0,-16 m 3,-23 0,-21 m 2,55 0,-11 m -5,0 1,0 m 4,0 1,-13 m -32,15 6,19 m 9,-21 -1,-13 m 6,13 1,0 m 42,1 0,11 m 1,-35 0,-21 m 2,48 0,12 m -106,-14 4,3 m 46,15 7,7 m 46,-26 1,0 m 10,15 0,-12 m 3,-27 0,-21 m 1,56 0,-11 m -3,-1 -1,3"
         id="path14716"
         style="fill:none;stroke:#000000;stroke-width:3;stroke-linecap:round;stroke-linejoin:round;stroke-miterlimit:10;stroke-opacity:1;stroke-dasharray:none" />
    </g>
    <g
       transform="matrix(0.3,0,0,0.3,-490.59096,-542.78781)"
       id="g14718">
      <path
         d="m 912,368 0,-1 2,-13"
         id="path14720"
         style="fill:none;stroke:#000000;stroke-width:3;stroke-linecap:round;stroke-linejoin:round;stroke-miterlimit:10;stroke-opacity:1;stroke-dasharray:none" />
    </g>
    <g
       transform="matrix(0.3,0,0,0.3,-490.59096,-542.78781)"
       id="g14722">
      <path
         d="m 715,354 4,2 m 118,13 13,9 m 6,5 2,1 m -11,-30 1,1 m 48,12 -1,-13 m 5,13 0,3"
         id="path14724"
         style="fill:none;stroke:#000000;stroke-width:3;stroke-linecap:round;stroke-linejoin:round;stroke-miterlimit:10;stroke-opacity:1;stroke-dasharray:none" />
    </g>
    <g
       transform="matrix(0.3,0,0,0.3,-490.59096,-542.78781)"
       id="g14726">
      <path
         d="m 897,367 0,1"
         id="path14728"
         style="fill:none;stroke:#000000;stroke-width:3;stroke-linecap:round;stroke-linejoin:round;stroke-miterlimit:10;stroke-opacity:1;stroke-dasharray:none" />
    </g>
    <g
       transform="matrix(0.3,0,0,0.3,-490.59096,-542.78781)"
       id="g14730">
      <path
         d="m 944,367 0,11 m 1,-34 0,-21 m 3,44 0,16 m 7,-16 1,0 m 3,0 2,-13 m 61,3 3,-3 m -9,30 21,-15 m -93,-2 -2,-13 m 13,29 0,-16 m 3,-23 0,-21 m 1,55 0,-11 m 63,27 6,-7 m 47,-15 4,-3 m -523,31 581,0 m -581,-6 23,0 m 11,0 547,0 m -475,-1 51,0 m 315,-3 -2,0 m -180,0 -2,0 m -60,0 -4,0 m 309,0 4,0 m -231,-5 16,0 m 9,0 26,0 m 10,0 28,0 m 9,0 26,0 m 10,0 16,0 m -126,-1 29,0 m 44,0 29,0 m -229,-1 7,0 m 40,0 8,0 m 40,0 6,0 m 40,0 8,0 m 40,0 7,0 m 39,0 9,0 m 39,0 7,0 m 41,0 6,0 m -337,-3 7,0 m 40,0 8,0 m 40,0 6,0 m 40,0 8,0 m 40,0 7,0 m 39,0 9,0 m 39,0 7,0 m 41,0 6,0 m -377,-1 -6,0 m 372,-2 -4,0 m -292,0 3,0 m 156,-10 1,0 m 42,1 0,11 m 1,-35 0,-21 m 2,48 0,12 m 9,0 0,-12 m 2,-27 0,-21 m 1,56 0,-11 m -3,-1 0,3"
         id="path14732"
         style="fill:none;stroke:#000000;stroke-width:3;stroke-linecap:round;stroke-linejoin:round;stroke-miterlimit:10;stroke-opacity:1;stroke-dasharray:none" />
    </g>
    <g
       transform="matrix(0.3,0,0,0.3,-490.59096,-542.78781)"
       id="g14734">
      <path
         d="m 1006,368 0,-1 2,-13"
         id="path14736"
         style="fill:none;stroke:#000000;stroke-width:3;stroke-linecap:round;stroke-linejoin:round;stroke-miterlimit:10;stroke-opacity:1;stroke-dasharray:none" />
    </g>
    <g
       transform="matrix(0.3,0,0,0.3,-490.59096,-542.78781)"
       id="g14738">
      <path
         d="m 759,372 7,0 m 40,0 8,0 m 40,0 6,0 m 40,0 8,0 m 40,0 7,0 m 39,0 9,0 m 39,0 7,0 m 41,0 6,0 m -337,-2 7,0 m 40,0 8,0 m 40,0 6,0 m 40,0 8,0 m 40,0 7,0 m 39,0 9,0 m 39,0 7,0 m 41,0 6,0 m -261,-2 1,0 m -81,-1 4,0 m 7,0 4,0 m 33,0 3,0 m 8,0 3,0 m 32,0 5,0 m 6,0 5,0 m 31,0 4,0 m 9,0 3,0 m 32,0 4,0 m 7,0 4,0 m 31,0 4,0 m 9,0 3,0 m 32,0 4,0 m 7,0 4,0 m 32,0 5,0 m 6,0 4,0 m 39,-10 -37,0 m -74,0 -20,0 m -142,0 1,0 m -19,0 -2,0 m -64,0 -10,0 m -18,0 -35,0 m -21,0 -36,0 m 327,0 -29,0 m -18,0 -29,0 m -18,0 -28,0 m -169,-3 416,0 m -416,-1 -40,0 m 482,0 1,0 m 6,0 3,0 m -452,-3 43,0 m 0,-20 -43,-9 m 292,46 -1,-13 m 5,13 0,3"
         id="path14740"
         style="fill:none;stroke:#000000;stroke-width:3;stroke-linecap:round;stroke-linejoin:round;stroke-miterlimit:10;stroke-opacity:1;stroke-dasharray:none" />
    </g>
    <g
       transform="matrix(0.3,0,0,0.3,-490.59096,-542.78781)"
       id="g14742">
      <path
         d="m 991,367 0,1"
         id="path14744"
         style="fill:none;stroke:#000000;stroke-width:3;stroke-linecap:round;stroke-linejoin:round;stroke-miterlimit:10;stroke-opacity:1;stroke-dasharray:none" />
    </g>
    <g
       transform="matrix(0.3,0,0,0.3,-490.59096,-542.78781)"
       id="g14746">
      <path
         d="m 1028,390 0,-2 m 0,-34 0,3 m 0,33 0,-15 m 5,18 0,-6 m 0,-68 0,2 m 5,49 -5,17 m 115,-42 -1,1 m -6,6 -2,2 m 8,-7 3,0 m -607,-2 2,0 m 7,0 2,0 m 560,0 25,0 m -383,-1 13,0 m 34,0 13,0 m 35,0 12,0 m 35,0 13,0 m 34,0 13,0 m 34,0 13,0 m 34,0 13,0 m 34,0 13,0 m 40,-6 2,0 m 6,0 5,0 m -396,-5 13,0 m 34,0 13,0 m 35,0 12,0 m 35,0 13,0 m 34,0 13,0 m 34,0 13,0 m 34,0 13,0 m 34,0 13,0 m -554,0 7,0 m 587,-1 2,0 m 6,0 5,0 m -598,-2 23,0 m 7,0 157,0 m 15,-1 13,0 m 34,0 13,0 m 35,0 12,0 m 35,0 13,0 m 34,0 13,0 m 34,0 13,0 m 34,0 13,0 m 34,0 13,0 m -554,-5 3,0 m 591,0 -32,0 m -555,0 23,0 m 181,-1 13,0 m 34,0 13,0 m 35,0 12,0 m 35,0 13,0 m 34,0 13,0 m 34,0 13,0 m 34,0 13,0 m 34,0 13,0 m -61,44 0,11 m 1,-34 0,-21 m 3,44 0,16 m 7,0 0,-16 m 3,-23 0,-21 m 1,55 0,-11 m -4,0 1,0 m 3,0 2,-13 m 77,40 7,-7 m -587,-66 -9,0 m 39,0 525,0 m 39,0 6,0 m -67,-2 -52,0 m -244,0 51,0 m -288,-1 23,0 m 532,0 32,0 m -101,49 -2,-13 m 6,13 1,0 m 41,26 0,-6 m 1,-68 0,2 m 0,42 0,14 m 0,-10 0,11 m 1,-34 0,-21 m 10,44 1,0 m -6,20 6,7 m -8,-4 0,-7 m 1,-16 0,16 m 1,0 0,4 m 5,-4 0,-16 m 3,-23 0,-21 m 1,55 0,-11 m 7,-43 0,-6 m -7,49 2,-13 m -23,15 5,18 m 1,-20 -1,-13 m 6,13 1,0 m 23,-10 0,-33 m 1,0 0,-6 m 7,82 0,-6 m 17,-7 0,-55 m 2,58 0,-64 m 6,0 0,64 m 3,-37 0,-15 m 2,-17 0,17"
         id="path14748"
         style="fill:none;stroke:#000000;stroke-width:3;stroke-linecap:round;stroke-linejoin:round;stroke-miterlimit:10;stroke-opacity:1;stroke-dasharray:none" />
    </g>
    <g
       transform="matrix(0.3,0,0,0.3,-490.59096,-542.78781)"
       id="g14750">
      <path
         d="m 577,387 2,7 5,5 6,1"
         id="path14752"
         style="fill:none;stroke:#000000;stroke-width:3;stroke-linecap:round;stroke-linejoin:round;stroke-miterlimit:10;stroke-opacity:1;stroke-dasharray:none" />
    </g>
    <g
       transform="matrix(0.3,0,0,0.3,-490.59096,-542.78781)"
       id="g14754">
      <path
         d="m 545,390 2,5 3,4 6,1"
         id="path14756"
         style="fill:none;stroke:#000000;stroke-width:3;stroke-linecap:round;stroke-linejoin:round;stroke-miterlimit:10;stroke-opacity:1;stroke-dasharray:none" />
    </g>
    <g
       transform="matrix(0.3,0,0,0.3,-490.59096,-542.78781)"
       id="g14758">
      <path
         d="m 789,358 -4,3 -1,5"
         id="path14760"
         style="fill:none;stroke:#000000;stroke-width:3;stroke-linecap:round;stroke-linejoin:round;stroke-miterlimit:10;stroke-opacity:1;stroke-dasharray:none" />
    </g>
    <g
       transform="matrix(0.3,0,0,0.3,-490.59096,-542.78781)"
       id="g14762">
      <path
         d="m 802,370 -1,0 -3,2"
         id="path14764"
         style="fill:none;stroke:#000000;stroke-width:3;stroke-linecap:round;stroke-linejoin:round;stroke-miterlimit:10;stroke-opacity:1;stroke-dasharray:none" />
    </g>
    <g
       transform="matrix(0.3,0,0,0.3,-490.59096,-542.78781)"
       id="g14766">
      <path
         d="m 584,387 2,5 4,2"
         id="path14768"
         style="fill:none;stroke:#000000;stroke-width:3;stroke-linecap:round;stroke-linejoin:round;stroke-miterlimit:10;stroke-opacity:1;stroke-dasharray:none" />
    </g>
    <g
       transform="matrix(0.3,0,0,0.3,-490.59096,-542.78781)"
       id="g14770">
      <path
         d="m 841,354 5,3"
         id="path14772"
         style="fill:none;stroke:#000000;stroke-width:3;stroke-linecap:round;stroke-linejoin:round;stroke-miterlimit:10;stroke-opacity:1;stroke-dasharray:none" />
    </g>
    <g
       transform="matrix(0.3,0,0,0.3,-490.59096,-542.78781)"
       id="g14774">
      <path
         d="m 766,383 3,-1 1,-4"
         id="path14776"
         style="fill:none;stroke:#000000;stroke-width:3;stroke-linecap:round;stroke-linejoin:round;stroke-miterlimit:10;stroke-opacity:1;stroke-dasharray:none" />
    </g>
    <g
       transform="matrix(0.3,0,0,0.3,-490.59096,-542.78781)"
       id="g14778">
      <path
         d="m 755,378 1,4 3,1"
         id="path14780"
         style="fill:none;stroke:#000000;stroke-width:3;stroke-linecap:round;stroke-linejoin:round;stroke-miterlimit:10;stroke-opacity:1;stroke-dasharray:none" />
    </g>
    <g
       transform="matrix(0.3,0,0,0.3,-490.59096,-542.78781)"
       id="g14782">
      <path
         d="m 543,355 1,2"
         id="path14784"
         style="fill:none;stroke:#000000;stroke-width:3;stroke-linecap:round;stroke-linejoin:round;stroke-miterlimit:10;stroke-opacity:1;stroke-dasharray:none" />
    </g>
    <g
       transform="matrix(0.3,0,0,0.3,-490.59096,-542.78781)"
       id="g14786">
      <path
         d="m 552,390 1,3 3,1"
         id="path14788"
         style="fill:none;stroke:#000000;stroke-width:3;stroke-linecap:round;stroke-linejoin:round;stroke-miterlimit:10;stroke-opacity:1;stroke-dasharray:none" />
    </g>
    <g
       transform="matrix(0.3,0,0,0.3,-490.59096,-542.78781)"
       id="g14790">
      <path
         d="m 814,383 2,-1 1,-3"
         id="path14792"
         style="fill:none;stroke:#000000;stroke-width:3;stroke-linecap:round;stroke-linejoin:round;stroke-miterlimit:10;stroke-opacity:1;stroke-dasharray:none" />
    </g>
    <g
       transform="matrix(0.3,0,0,0.3,-490.59096,-542.78781)"
       id="g14794">
      <path
         d="m 802,379 1,3 3,1"
         id="path14796"
         style="fill:none;stroke:#000000;stroke-width:3;stroke-linecap:round;stroke-linejoin:round;stroke-miterlimit:10;stroke-opacity:1;stroke-dasharray:none" />
    </g>
    <g
       transform="matrix(0.3,0,0,0.3,-490.59096,-542.78781)"
       id="g14798">
      <path
         d="m 835,368 -2,1 -1,2"
         id="path14800"
         style="fill:none;stroke:#000000;stroke-width:3;stroke-linecap:round;stroke-linejoin:round;stroke-miterlimit:10;stroke-opacity:1;stroke-dasharray:none" />
    </g>
    <g
       transform="matrix(0.3,0,0,0.3,-490.59096,-542.78781)"
       id="g14802">
      <path
         d="m 837,369 -2,-1"
         id="path14804"
         style="fill:none;stroke:#000000;stroke-width:3;stroke-linecap:round;stroke-linejoin:round;stroke-miterlimit:10;stroke-opacity:1;stroke-dasharray:none" />
    </g>
    <g
       transform="matrix(0.3,0,0,0.3,-490.59096,-542.78781)"
       id="g14806">
      <path
         d="m 584,326 -1,-4 -4,-3 -4,-1"
         id="path14808"
         style="fill:none;stroke:#000000;stroke-width:3;stroke-linecap:round;stroke-linejoin:round;stroke-miterlimit:10;stroke-opacity:1;stroke-dasharray:none" />
    </g>
    <g
       transform="matrix(0.3,0,0,0.3,-490.59096,-542.78781)"
       id="g14810">
      <path
         d="m 577,326 0,-1 -2,-1"
         id="path14812"
         style="fill:none;stroke:#000000;stroke-width:3;stroke-linecap:round;stroke-linejoin:round;stroke-miterlimit:10;stroke-opacity:1;stroke-dasharray:none" />
    </g>
    <g
       transform="matrix(0.3,0,0,0.3,-490.59096,-542.78781)"
       id="g14814">
      <path
         d="m 1137,400 5,-1 4,-4 1,-5"
         id="path14816"
         style="fill:none;stroke:#000000;stroke-width:3;stroke-linecap:round;stroke-linejoin:round;stroke-miterlimit:10;stroke-opacity:1;stroke-dasharray:none" />
    </g>
    <g
       transform="matrix(0.3,0,0,0.3,-490.59096,-542.78781)"
       id="g14818">
      <path
         d="m 858,384 4,1 m 150,0 4,-1"
         id="path14820"
         style="fill:none;stroke:#000000;stroke-width:3;stroke-linecap:round;stroke-linejoin:round;stroke-miterlimit:10;stroke-opacity:1;stroke-dasharray:none" />
    </g>
    <g
       transform="matrix(0.3,0,0,0.3,-490.59096,-542.78781)"
       id="g14822">
      <path
         d="m 923,385 -5,-2 -5,2"
         id="path14824"
         style="fill:none;stroke:#000000;stroke-width:3;stroke-linecap:round;stroke-linejoin:round;stroke-miterlimit:10;stroke-opacity:1;stroke-dasharray:none" />
    </g>
    <g
       transform="matrix(0.3,0,0,0.3,-490.59096,-542.78781)"
       id="g14826">
      <path
         d="m 887,385 -4,-2 -5,2"
         id="path14828"
         style="fill:none;stroke:#000000;stroke-width:3;stroke-linecap:round;stroke-linejoin:round;stroke-miterlimit:10;stroke-opacity:1;stroke-dasharray:none" />
    </g>
    <g
       transform="matrix(0.3,0,0,0.3,-490.59096,-542.78781)"
       id="g14830">
      <path
         d="m 960,385 -4,-2 -5,2"
         id="path14832"
         style="fill:none;stroke:#000000;stroke-width:3;stroke-linecap:round;stroke-linejoin:round;stroke-miterlimit:10;stroke-opacity:1;stroke-dasharray:none" />
    </g>
    <g
       transform="matrix(0.3,0,0,0.3,-490.59096,-542.78781)"
       id="g14834">
      <path
         d="m 996,385 -5,-2 -5,2"
         id="path14836"
         style="fill:none;stroke:#000000;stroke-width:3;stroke-linecap:round;stroke-linejoin:round;stroke-miterlimit:10;stroke-opacity:1;stroke-dasharray:none" />
    </g>
    <g
       transform="matrix(0.3,0,0,0.3,-490.59096,-542.78781)"
       id="g14838">
      <path
         d="m 867,358 -1,0 m 162,-1 5,-3"
         id="path14840"
         style="fill:none;stroke:#000000;stroke-width:3;stroke-linecap:round;stroke-linejoin:round;stroke-miterlimit:10;stroke-opacity:1;stroke-dasharray:none" />
    </g>
    <g
       transform="matrix(0.3,0,0,0.3,-490.59096,-542.78781)"
       id="g14842">
      <path
         d="m 867,358 4,1 3,-2"
         id="path14844"
         style="fill:none;stroke:#000000;stroke-width:3;stroke-linecap:round;stroke-linejoin:round;stroke-miterlimit:10;stroke-opacity:1;stroke-dasharray:none" />
    </g>
    <g
       transform="matrix(0.3,0,0,0.3,-490.59096,-542.78781)"
       id="g14846">
      <path
         d="m 1096,383 3,-1 1,-4"
         id="path14848"
         style="fill:none;stroke:#000000;stroke-width:3;stroke-linecap:round;stroke-linejoin:round;stroke-miterlimit:10;stroke-opacity:1;stroke-dasharray:none" />
    </g>
    <g
       transform="matrix(0.3,0,0,0.3,-490.59096,-542.78781)"
       id="g14850">
      <path
         d="m 1085,378 2,4 3,1"
         id="path14852"
         style="fill:none;stroke:#000000;stroke-width:3;stroke-linecap:round;stroke-linejoin:round;stroke-miterlimit:10;stroke-opacity:1;stroke-dasharray:none" />
    </g>
    <g
       transform="matrix(0.3,0,0,0.3,-490.59096,-542.78781)"
       id="g14854">
      <path
         d="m 1049,383 3,-1 1,-4"
         id="path14856"
         style="fill:none;stroke:#000000;stroke-width:3;stroke-linecap:round;stroke-linejoin:round;stroke-miterlimit:10;stroke-opacity:1;stroke-dasharray:none" />
    </g>
    <g
       transform="matrix(0.3,0,0,0.3,-490.59096,-542.78781)"
       id="g14858">
      <path
         d="m 1038,378 1,4 3,1"
         id="path14860"
         style="fill:none;stroke:#000000;stroke-width:3;stroke-linecap:round;stroke-linejoin:round;stroke-miterlimit:10;stroke-opacity:1;stroke-dasharray:none" />
    </g>
    <g
       transform="matrix(0.3,0,0,0.3,-490.59096,-542.78781)"
       id="g14862">
      <path
         d="m 955,383 3,-1 1,-4"
         id="path14864"
         style="fill:none;stroke:#000000;stroke-width:3;stroke-linecap:round;stroke-linejoin:round;stroke-miterlimit:10;stroke-opacity:1;stroke-dasharray:none" />
    </g>
    <g
       transform="matrix(0.3,0,0,0.3,-490.59096,-542.78781)"
       id="g14866">
      <path
         d="m 944,378 1,4 3,1"
         id="path14868"
         style="fill:none;stroke:#000000;stroke-width:3;stroke-linecap:round;stroke-linejoin:round;stroke-miterlimit:10;stroke-opacity:1;stroke-dasharray:none" />
    </g>
    <g
       transform="matrix(0.3,0,0,0.3,-490.59096,-542.78781)"
       id="g14870">
      <path
         d="m 860,383 3,-1 2,-4"
         id="path14872"
         style="fill:none;stroke:#000000;stroke-width:3;stroke-linecap:round;stroke-linejoin:round;stroke-miterlimit:10;stroke-opacity:1;stroke-dasharray:none" />
    </g>
    <g
       transform="matrix(0.3,0,0,0.3,-490.59096,-542.78781)"
       id="g14874">
      <path
         d="m 850,378 1,4 3,1"
         id="path14876"
         style="fill:none;stroke:#000000;stroke-width:3;stroke-linecap:round;stroke-linejoin:round;stroke-miterlimit:10;stroke-opacity:1;stroke-dasharray:none" />
    </g>
    <g
       transform="matrix(0.3,0,0,0.3,-490.59096,-542.78781)"
       id="g14878">
      <path
         d="m 1148,345 2,-3"
         id="path14880"
         style="fill:none;stroke:#000000;stroke-width:3;stroke-linecap:round;stroke-linejoin:round;stroke-miterlimit:10;stroke-opacity:1;stroke-dasharray:none" />
    </g>
    <g
       transform="matrix(0.3,0,0,0.3,-490.59096,-542.78781)"
       id="g14882">
      <path
         d="m 1137,394 3,-1 1,-3"
         id="path14884"
         style="fill:none;stroke:#000000;stroke-width:3;stroke-linecap:round;stroke-linejoin:round;stroke-miterlimit:10;stroke-opacity:1;stroke-dasharray:none" />
    </g>
    <g
       transform="matrix(0.3,0,0,0.3,-490.59096,-542.78781)"
       id="g14886">
      <path
         d="m 908,383 3,-1 1,-3"
         id="path14888"
         style="fill:none;stroke:#000000;stroke-width:3;stroke-linecap:round;stroke-linejoin:round;stroke-miterlimit:10;stroke-opacity:1;stroke-dasharray:none" />
    </g>
    <g
       transform="matrix(0.3,0,0,0.3,-490.59096,-542.78781)"
       id="g14890">
      <path
         d="m 897,379 1,3 2,1"
         id="path14892"
         style="fill:none;stroke:#000000;stroke-width:3;stroke-linecap:round;stroke-linejoin:round;stroke-miterlimit:10;stroke-opacity:1;stroke-dasharray:none" />
    </g>
    <g
       transform="matrix(0.3,0,0,0.3,-490.59096,-542.78781)"
       id="g14894">
      <path
         d="m 1003,383 2,-1 1,-3"
         id="path14896"
         style="fill:none;stroke:#000000;stroke-width:3;stroke-linecap:round;stroke-linejoin:round;stroke-miterlimit:10;stroke-opacity:1;stroke-dasharray:none" />
    </g>
    <g
       transform="matrix(0.3,0,0,0.3,-490.59096,-542.78781)"
       id="g14898">
      <path
         d="m 991,379 1,3 2,1"
         id="path14900"
         style="fill:none;stroke:#000000;stroke-width:3;stroke-linecap:round;stroke-linejoin:round;stroke-miterlimit:10;stroke-opacity:1;stroke-dasharray:none" />
    </g>
    <g
       transform="matrix(0.3,0,0,0.3,-490.59096,-542.78781)"
       id="g14902">
      <path
         d="m 1038,368 -1,1"
         id="path14904"
         style="fill:none;stroke:#000000;stroke-width:3;stroke-linecap:round;stroke-linejoin:round;stroke-miterlimit:10;stroke-opacity:1;stroke-dasharray:none" />
    </g>
    <g
       transform="matrix(0.3,0,0,0.3,-490.59096,-542.78781)"
       id="g14906">
      <path
         d="m 1147,326 -1,-4 -3,-3 -4,-1"
         id="path14908"
         style="fill:none;stroke:#000000;stroke-width:3;stroke-linecap:round;stroke-linejoin:round;stroke-miterlimit:10;stroke-opacity:1;stroke-dasharray:none" />
    </g>
    <g
       transform="matrix(0.3,0,0,0.3,-490.59096,-542.78781)"
       id="g14910">
      <path
         d="m 1141,326 -1,-1 -1,-1"
         id="path14912"
         style="fill:none;stroke:#000000;stroke-width:3;stroke-linecap:round;stroke-linejoin:round;stroke-miterlimit:10;stroke-opacity:1;stroke-dasharray:none" />
    </g>
    <g
       transform="matrix(0.3,0,0,0.3,-490.59096,-542.78781)"
       id="g14914">
      <path
         d="m 900,370 0,1 m 8,-1 0,1 m 86,-1 0,1 m 9,-1 0,1"
         id="path14916"
         style="fill:none;stroke:#000000;stroke-width:3;stroke-linecap:round;stroke-linejoin:round;stroke-miterlimit:10;stroke-opacity:1;stroke-dasharray:none" />
    </g>
    <g
       transform="matrix(0.3,0,0,0.3,-490.59096,-542.78781)"
       id="g14918">
      <path
         d="m 1033,393 -1,0 -1,1 -3,0"
         id="path14920"
         style="fill:none;stroke:#000000;stroke-width:3;stroke-linecap:round;stroke-linejoin:round;stroke-miterlimit:10;stroke-opacity:1;stroke-dasharray:none" />
    </g>
    <g
       transform="matrix(0.3,0,0,0.3,-490.59096,-542.78781)"
       id="g14922">
      <path
         d="m 1053,373 6,0 5,0 6,0 2,-1 2,0 1,0"
         id="path14924"
         style="fill:none;stroke:#000000;stroke-width:3;stroke-linecap:round;stroke-linejoin:round;stroke-miterlimit:10;stroke-opacity:1;stroke-dasharray:none" />
    </g>
    <g
       transform="matrix(0.3,0,0,0.3,-490.59096,-542.78781)"
       id="g14926">
      <path
         d="m 1089,390 0,1 0,2 0,1"
         id="path14928"
         style="fill:none;stroke:#000000;stroke-width:3;stroke-linecap:round;stroke-linejoin:round;stroke-miterlimit:10;stroke-opacity:1;stroke-dasharray:none" />
    </g>
    <g
       transform="matrix(0.3,0,0,0.3,-490.59096,-542.78781)"
       id="g14930">
      <path
         d="m 1089,390 0,1 0,1 0,1 0,1"
         id="path14932"
         style="fill:none;stroke:#000000;stroke-width:3;stroke-linecap:round;stroke-linejoin:round;stroke-miterlimit:10;stroke-opacity:1;stroke-dasharray:none" />
    </g>
    <g
       transform="matrix(0.3,0,0,0.3,-490.59096,-542.78781)"
       id="g14982">
      <path
         d="m 784,394 0,-1 0,-2 0,-1"
         id="path14984"
         style="fill:none;stroke:#000000;stroke-width:3;stroke-linecap:round;stroke-linejoin:round;stroke-miterlimit:10;stroke-opacity:1;stroke-dasharray:none" />
    </g>
    <g
       transform="matrix(0.3,0,0,0.3,-490.59096,-542.78781)"
       id="g14986">
      <path
         d="m 1089,394 -3,0 -1,0 0,-1 -1,0"
         id="path14988"
         style="fill:none;stroke:#000000;stroke-width:3;stroke-linecap:round;stroke-linejoin:round;stroke-miterlimit:10;stroke-opacity:1;stroke-dasharray:none" />
    </g>
    <g
       transform="matrix(0.3,0,0,0.3,-490.59096,-542.78781)"
       id="g14990">
      <path
         d="m 766,370 3,-1 1,-2"
         id="path14992"
         style="fill:none;stroke:#000000;stroke-width:3;stroke-linecap:round;stroke-linejoin:round;stroke-miterlimit:10;stroke-opacity:1;stroke-dasharray:none" />
    </g>
    <g
       transform="matrix(0.3,0,0,0.3,-490.59096,-542.78781)"
       id="g14994">
      <path
         d="m 766,372 3,-1 1,-2"
         id="path14996"
         style="fill:none;stroke:#000000;stroke-width:3;stroke-linecap:round;stroke-linejoin:round;stroke-miterlimit:10;stroke-opacity:1;stroke-dasharray:none" />
    </g>
    <g
       transform="matrix(0.3,0,0,0.3,-490.59096,-542.78781)"
       id="g14998">
      <path
         d="m 766,380 3,-1 1,-3"
         id="path15000"
         style="fill:none;stroke:#000000;stroke-width:3;stroke-linecap:round;stroke-linejoin:round;stroke-miterlimit:10;stroke-opacity:1;stroke-dasharray:none" />
    </g>
    <g
       transform="matrix(0.3,0,0,0.3,-490.59096,-542.78781)"
       id="g15002">
      <path
         d="m 766,367 2,0"
         id="path15004"
         style="fill:none;stroke:#000000;stroke-width:3;stroke-linecap:round;stroke-linejoin:round;stroke-miterlimit:10;stroke-opacity:1;stroke-dasharray:none" />
    </g>
    <g
       transform="matrix(0.3,0,0,0.3,-490.59096,-542.78781)"
       id="g15006">
      <path
         d="m 755,367 2,2 2,1"
         id="path15008"
         style="fill:none;stroke:#000000;stroke-width:3;stroke-linecap:round;stroke-linejoin:round;stroke-miterlimit:10;stroke-opacity:1;stroke-dasharray:none" />
    </g>
    <g
       transform="matrix(0.3,0,0,0.3,-490.59096,-542.78781)"
       id="g15010">
      <path
         d="m 755,369 2,2 2,1"
         id="path15012"
         style="fill:none;stroke:#000000;stroke-width:3;stroke-linecap:round;stroke-linejoin:round;stroke-miterlimit:10;stroke-opacity:1;stroke-dasharray:none" />
    </g>
    <g
       transform="matrix(0.3,0,0,0.3,-490.59096,-542.78781)"
       id="g15014">
      <path
         d="m 755,376 2,3 2,1"
         id="path15016"
         style="fill:none;stroke:#000000;stroke-width:3;stroke-linecap:round;stroke-linejoin:round;stroke-miterlimit:10;stroke-opacity:1;stroke-dasharray:none" />
    </g>
    <g
       transform="matrix(0.3,0,0,0.3,-490.59096,-542.78781)"
       id="g15018">
      <path
         d="m 757,367 2,0 m 25,27 0,-4 m 14,-18 4,1"
         id="path15020"
         style="fill:none;stroke:#000000;stroke-width:3;stroke-linecap:round;stroke-linejoin:round;stroke-miterlimit:10;stroke-opacity:1;stroke-dasharray:none" />
    </g>
    <g
       transform="matrix(0.3,0,0,0.3,-490.59096,-542.78781)"
       id="g15022">
      <path
         d="m 814,370 2,-1 1,-2"
         id="path15024"
         style="fill:none;stroke:#000000;stroke-width:3;stroke-linecap:round;stroke-linejoin:round;stroke-miterlimit:10;stroke-opacity:1;stroke-dasharray:none" />
    </g>
    <g
       transform="matrix(0.3,0,0,0.3,-490.59096,-542.78781)"
       id="g15026">
      <path
         d="m 814,372 2,-1 1,-2"
         id="path15028"
         style="fill:none;stroke:#000000;stroke-width:3;stroke-linecap:round;stroke-linejoin:round;stroke-miterlimit:10;stroke-opacity:1;stroke-dasharray:none" />
    </g>
    <g
       transform="matrix(0.3,0,0,0.3,-490.59096,-542.78781)"
       id="g15030">
      <path
         d="m 814,380 2,-1 1,-3"
         id="path15032"
         style="fill:none;stroke:#000000;stroke-width:3;stroke-linecap:round;stroke-linejoin:round;stroke-miterlimit:10;stroke-opacity:1;stroke-dasharray:none" />
    </g>
    <g
       transform="matrix(0.3,0,0,0.3,-490.59096,-542.78781)"
       id="g15034">
      <path
         d="m 802,367 1,2 3,1"
         id="path15036"
         style="fill:none;stroke:#000000;stroke-width:3;stroke-linecap:round;stroke-linejoin:round;stroke-miterlimit:10;stroke-opacity:1;stroke-dasharray:none" />
    </g>
    <g
       transform="matrix(0.3,0,0,0.3,-490.59096,-542.78781)"
       id="g15038">
      <path
         d="m 802,369 1,2 3,1"
         id="path15040"
         style="fill:none;stroke:#000000;stroke-width:3;stroke-linecap:round;stroke-linejoin:round;stroke-miterlimit:10;stroke-opacity:1;stroke-dasharray:none" />
    </g>
    <g
       transform="matrix(0.3,0,0,0.3,-490.59096,-542.78781)"
       id="g15042">
      <path
         d="m 802,376 1,3 3,1"
         id="path15044"
         style="fill:none;stroke:#000000;stroke-width:3;stroke-linecap:round;stroke-linejoin:round;stroke-miterlimit:10;stroke-opacity:1;stroke-dasharray:none" />
    </g>
    <g
       transform="matrix(0.3,0,0,0.3,-490.59096,-542.78781)"
       id="g15046">
      <path
         d="m 817,373 14,-1"
         id="path15048"
         style="fill:none;stroke:#000000;stroke-width:3;stroke-linecap:round;stroke-linejoin:round;stroke-miterlimit:10;stroke-opacity:1;stroke-dasharray:none" />
    </g>
    <g
       transform="matrix(0.3,0,0,0.3,-490.59096,-542.78781)"
       id="g15050">
      <path
         d="m 817,371 9,-1 5,2"
         id="path15052"
         style="fill:none;stroke:#000000;stroke-width:3;stroke-linecap:round;stroke-linejoin:round;stroke-miterlimit:10;stroke-opacity:1;stroke-dasharray:none" />
    </g>
    <g
       transform="matrix(0.3,0,0,0.3,-490.59096,-542.78781)"
       id="g15054">
      <path
         d="m 833,369 1,0"
         id="path15056"
         style="fill:none;stroke:#000000;stroke-width:3;stroke-linecap:round;stroke-linejoin:round;stroke-miterlimit:10;stroke-opacity:1;stroke-dasharray:none" />
    </g>
    <g
       transform="matrix(0.3,0,0,0.3,-490.59096,-542.78781)"
       id="g15058">
      <path
         d="m 844,394 0,-4 1,4"
         id="path15060"
         style="fill:none;stroke:#000000;stroke-width:3;stroke-linecap:round;stroke-linejoin:round;stroke-miterlimit:10;stroke-opacity:1;stroke-dasharray:none" />
    </g>
    <g
       transform="matrix(0.3,0,0,0.3,-490.59096,-542.78781)"
       id="g15062">
      <path
         d="m 850,367 1,2 3,1"
         id="path15064"
         style="fill:none;stroke:#000000;stroke-width:3;stroke-linecap:round;stroke-linejoin:round;stroke-miterlimit:10;stroke-opacity:1;stroke-dasharray:none" />
    </g>
    <g
       transform="matrix(0.3,0,0,0.3,-490.59096,-542.78781)"
       id="g15066">
      <path
         d="m 850,369 1,2 3,1"
         id="path15068"
         style="fill:none;stroke:#000000;stroke-width:3;stroke-linecap:round;stroke-linejoin:round;stroke-miterlimit:10;stroke-opacity:1;stroke-dasharray:none" />
    </g>
    <g
       transform="matrix(0.3,0,0,0.3,-490.59096,-542.78781)"
       id="g15070">
      <path
         d="m 850,376 1,3 3,1"
         id="path15072"
         style="fill:none;stroke:#000000;stroke-width:3;stroke-linecap:round;stroke-linejoin:round;stroke-miterlimit:10;stroke-opacity:1;stroke-dasharray:none" />
    </g>
    <g
       transform="matrix(0.3,0,0,0.3,-490.59096,-542.78781)"
       id="g15074">
      <path
         d="m 860,370 3,-1 1,-2"
         id="path15076"
         style="fill:none;stroke:#000000;stroke-width:3;stroke-linecap:round;stroke-linejoin:round;stroke-miterlimit:10;stroke-opacity:1;stroke-dasharray:none" />
    </g>
    <g
       transform="matrix(0.3,0,0,0.3,-490.59096,-542.78781)"
       id="g15078">
      <path
         d="m 860,372 3,-1 2,-2"
         id="path15080"
         style="fill:none;stroke:#000000;stroke-width:3;stroke-linecap:round;stroke-linejoin:round;stroke-miterlimit:10;stroke-opacity:1;stroke-dasharray:none" />
    </g>
    <g
       transform="matrix(0.3,0,0,0.3,-490.59096,-542.78781)"
       id="g15082">
      <path
         d="m 860,380 3,-1 2,-3"
         id="path15084"
         style="fill:none;stroke:#000000;stroke-width:3;stroke-linecap:round;stroke-linejoin:round;stroke-miterlimit:10;stroke-opacity:1;stroke-dasharray:none" />
    </g>
    <g
       transform="matrix(0.3,0,0,0.3,-490.59096,-542.78781)"
       id="g15086">
      <path
         d="m 852,367 2,0 m 6,0 2,0"
         id="path15088"
         style="fill:none;stroke:#000000;stroke-width:3;stroke-linecap:round;stroke-linejoin:round;stroke-miterlimit:10;stroke-opacity:1;stroke-dasharray:none" />
    </g>
    <g
       transform="matrix(0.3,0,0,0.3,-490.59096,-542.78781)"
       id="g15090">
      <path
         d="m 897,368 1,2 2,1"
         id="path15092"
         style="fill:none;stroke:#000000;stroke-width:3;stroke-linecap:round;stroke-linejoin:round;stroke-miterlimit:10;stroke-opacity:1;stroke-dasharray:none" />
    </g>
    <g
       transform="matrix(0.3,0,0,0.3,-490.59096,-542.78781)"
       id="g15094">
      <path
         d="m 897,367 1,3 2,0"
         id="path15096"
         style="fill:none;stroke:#000000;stroke-width:3;stroke-linecap:round;stroke-linejoin:round;stroke-miterlimit:10;stroke-opacity:1;stroke-dasharray:none" />
    </g>
    <g
       transform="matrix(0.3,0,0,0.3,-490.59096,-542.78781)"
       id="g15098">
      <path
         d="m 897,369 1,3 2,0"
         id="path15100"
         style="fill:none;stroke:#000000;stroke-width:3;stroke-linecap:round;stroke-linejoin:round;stroke-miterlimit:10;stroke-opacity:1;stroke-dasharray:none" />
    </g>
    <g
       transform="matrix(0.3,0,0,0.3,-490.59096,-542.78781)"
       id="g15102">
      <path
         d="m 897,377 1,2 2,1"
         id="path15104"
         style="fill:none;stroke:#000000;stroke-width:3;stroke-linecap:round;stroke-linejoin:round;stroke-miterlimit:10;stroke-opacity:1;stroke-dasharray:none" />
    </g>
    <g
       transform="matrix(0.3,0,0,0.3,-490.59096,-542.78781)"
       id="g15106">
      <path
         d="m 912,368 1,0"
         id="path15108"
         style="fill:none;stroke:#000000;stroke-width:3;stroke-linecap:round;stroke-linejoin:round;stroke-miterlimit:10;stroke-opacity:1;stroke-dasharray:none" />
    </g>
    <g
       transform="matrix(0.3,0,0,0.3,-490.59096,-542.78781)"
       id="g15110">
      <path
         d="m 908,371 3,-1 1,-2"
         id="path15112"
         style="fill:none;stroke:#000000;stroke-width:3;stroke-linecap:round;stroke-linejoin:round;stroke-miterlimit:10;stroke-opacity:1;stroke-dasharray:none" />
    </g>
    <g
       transform="matrix(0.3,0,0,0.3,-490.59096,-542.78781)"
       id="g15114">
      <path
         d="m 908,370 3,0 1,-3"
         id="path15116"
         style="fill:none;stroke:#000000;stroke-width:3;stroke-linecap:round;stroke-linejoin:round;stroke-miterlimit:10;stroke-opacity:1;stroke-dasharray:none" />
    </g>
    <g
       transform="matrix(0.3,0,0,0.3,-490.59096,-542.78781)"
       id="g15118">
      <path
         d="m 908,372 3,0 1,-3"
         id="path15120"
         style="fill:none;stroke:#000000;stroke-width:3;stroke-linecap:round;stroke-linejoin:round;stroke-miterlimit:10;stroke-opacity:1;stroke-dasharray:none" />
    </g>
    <g
       transform="matrix(0.3,0,0,0.3,-490.59096,-542.78781)"
       id="g15122">
      <path
         d="m 908,380 2,-1 2,-2"
         id="path15124"
         style="fill:none;stroke:#000000;stroke-width:3;stroke-linecap:round;stroke-linejoin:round;stroke-miterlimit:10;stroke-opacity:1;stroke-dasharray:none" />
    </g>
    <g
       transform="matrix(0.3,0,0,0.3,-490.59096,-542.78781)"
       id="g15126">
      <path
         d="m 944,367 1,2 3,1"
         id="path15128"
         style="fill:none;stroke:#000000;stroke-width:3;stroke-linecap:round;stroke-linejoin:round;stroke-miterlimit:10;stroke-opacity:1;stroke-dasharray:none" />
    </g>
    <g
       transform="matrix(0.3,0,0,0.3,-490.59096,-542.78781)"
       id="g15130">
      <path
         d="m 944,369 1,2 3,1"
         id="path15132"
         style="fill:none;stroke:#000000;stroke-width:3;stroke-linecap:round;stroke-linejoin:round;stroke-miterlimit:10;stroke-opacity:1;stroke-dasharray:none" />
    </g>
    <g
       transform="matrix(0.3,0,0,0.3,-490.59096,-542.78781)"
       id="g15134">
      <path
         d="m 944,376 1,3 3,1"
         id="path15136"
         style="fill:none;stroke:#000000;stroke-width:3;stroke-linecap:round;stroke-linejoin:round;stroke-miterlimit:10;stroke-opacity:1;stroke-dasharray:none" />
    </g>
    <g
       transform="matrix(0.3,0,0,0.3,-490.59096,-542.78781)"
       id="g15138">
      <path
         d="m 955,370 2,-1 2,-2"
         id="path15140"
         style="fill:none;stroke:#000000;stroke-width:3;stroke-linecap:round;stroke-linejoin:round;stroke-miterlimit:10;stroke-opacity:1;stroke-dasharray:none" />
    </g>
    <g
       transform="matrix(0.3,0,0,0.3,-490.59096,-542.78781)"
       id="g15142">
      <path
         d="m 955,372 2,-1 2,-2"
         id="path15144"
         style="fill:none;stroke:#000000;stroke-width:3;stroke-linecap:round;stroke-linejoin:round;stroke-miterlimit:10;stroke-opacity:1;stroke-dasharray:none" />
    </g>
    <g
       transform="matrix(0.3,0,0,0.3,-490.59096,-542.78781)"
       id="g15146">
      <path
         d="m 955,380 2,-1 2,-3"
         id="path15148"
         style="fill:none;stroke:#000000;stroke-width:3;stroke-linecap:round;stroke-linejoin:round;stroke-miterlimit:10;stroke-opacity:1;stroke-dasharray:none" />
    </g>
    <g
       transform="matrix(0.3,0,0,0.3,-490.59096,-542.78781)"
       id="g15150">
      <path
         d="m 946,367 2,0 m 7,0 2,0"
         id="path15152"
         style="fill:none;stroke:#000000;stroke-width:3;stroke-linecap:round;stroke-linejoin:round;stroke-miterlimit:10;stroke-opacity:1;stroke-dasharray:none" />
    </g>
    <g
       transform="matrix(0.3,0,0,0.3,-490.59096,-542.78781)"
       id="g15154">
      <path
         d="m 1028,394 0,-4 0,4 z"
         id="path15156"
         style="fill:none;stroke:#000000;stroke-width:3;stroke-linecap:round;stroke-linejoin:round;stroke-miterlimit:10;stroke-opacity:1;stroke-dasharray:none" />
    </g>
    <g
       transform="matrix(0.3,0,0,0.3,-490.59096,-542.78781)"
       id="g15158">
      <path
         d="m 991,368 1,2 2,1"
         id="path15160"
         style="fill:none;stroke:#000000;stroke-width:3;stroke-linecap:round;stroke-linejoin:round;stroke-miterlimit:10;stroke-opacity:1;stroke-dasharray:none" />
    </g>
    <g
       transform="matrix(0.3,0,0,0.3,-490.59096,-542.78781)"
       id="g15162">
      <path
         d="m 991,367 1,3 2,0"
         id="path15164"
         style="fill:none;stroke:#000000;stroke-width:3;stroke-linecap:round;stroke-linejoin:round;stroke-miterlimit:10;stroke-opacity:1;stroke-dasharray:none" />
    </g>
    <g
       transform="matrix(0.3,0,0,0.3,-490.59096,-542.78781)"
       id="g15166">
      <path
         d="m 991,369 1,3 2,0"
         id="path15168"
         style="fill:none;stroke:#000000;stroke-width:3;stroke-linecap:round;stroke-linejoin:round;stroke-miterlimit:10;stroke-opacity:1;stroke-dasharray:none" />
    </g>
    <g
       transform="matrix(0.3,0,0,0.3,-490.59096,-542.78781)"
       id="g15170">
      <path
         d="m 991,377 1,2 2,1"
         id="path15172"
         style="fill:none;stroke:#000000;stroke-width:3;stroke-linecap:round;stroke-linejoin:round;stroke-miterlimit:10;stroke-opacity:1;stroke-dasharray:none" />
    </g>
    <g
       transform="matrix(0.3,0,0,0.3,-490.59096,-542.78781)"
       id="g15174">
      <path
         d="m 1003,371 2,-1 1,-2"
         id="path15176"
         style="fill:none;stroke:#000000;stroke-width:3;stroke-linecap:round;stroke-linejoin:round;stroke-miterlimit:10;stroke-opacity:1;stroke-dasharray:none" />
    </g>
    <g
       transform="matrix(0.3,0,0,0.3,-490.59096,-542.78781)"
       id="g15178">
      <path
         d="m 1003,370 2,0 1,-3"
         id="path15180"
         style="fill:none;stroke:#000000;stroke-width:3;stroke-linecap:round;stroke-linejoin:round;stroke-miterlimit:10;stroke-opacity:1;stroke-dasharray:none" />
    </g>
    <g
       transform="matrix(0.3,0,0,0.3,-490.59096,-542.78781)"
       id="g15182">
      <path
         d="m 1003,372 2,0 1,-3"
         id="path15184"
         style="fill:none;stroke:#000000;stroke-width:3;stroke-linecap:round;stroke-linejoin:round;stroke-miterlimit:10;stroke-opacity:1;stroke-dasharray:none" />
    </g>
    <g
       transform="matrix(0.3,0,0,0.3,-490.59096,-542.78781)"
       id="g15186">
      <path
         d="m 1003,380 2,-1 1,-2"
         id="path15188"
         style="fill:none;stroke:#000000;stroke-width:3;stroke-linecap:round;stroke-linejoin:round;stroke-miterlimit:10;stroke-opacity:1;stroke-dasharray:none" />
    </g>
    <g
       transform="matrix(0.3,0,0,0.3,-490.59096,-542.78781)"
       id="g15190">
      <path
         d="m 1009,357 -1,1"
         id="path15192"
         style="fill:none;stroke:#000000;stroke-width:3;stroke-linecap:round;stroke-linejoin:round;stroke-miterlimit:10;stroke-opacity:1;stroke-dasharray:none" />
    </g>
    <g
       transform="matrix(0.3,0,0,0.3,-490.59096,-542.78781)"
       id="g15194">
      <path
         d="m 1038,367 2,2 2,1"
         id="path15196"
         style="fill:none;stroke:#000000;stroke-width:3;stroke-linecap:round;stroke-linejoin:round;stroke-miterlimit:10;stroke-opacity:1;stroke-dasharray:none" />
    </g>
    <g
       transform="matrix(0.3,0,0,0.3,-490.59096,-542.78781)"
       id="g15198">
      <path
         d="m 1038,369 2,2 2,1"
         id="path15200"
         style="fill:none;stroke:#000000;stroke-width:3;stroke-linecap:round;stroke-linejoin:round;stroke-miterlimit:10;stroke-opacity:1;stroke-dasharray:none" />
    </g>
    <g
       transform="matrix(0.3,0,0,0.3,-490.59096,-542.78781)"
       id="g15202">
      <path
         d="m 1038,376 2,3 2,1"
         id="path15204"
         style="fill:none;stroke:#000000;stroke-width:3;stroke-linecap:round;stroke-linejoin:round;stroke-miterlimit:10;stroke-opacity:1;stroke-dasharray:none" />
    </g>
    <g
       transform="matrix(0.3,0,0,0.3,-490.59096,-542.78781)"
       id="g15206">
      <path
         d="m 1049,370 3,-1 1,-2"
         id="path15208"
         style="fill:none;stroke:#000000;stroke-width:3;stroke-linecap:round;stroke-linejoin:round;stroke-miterlimit:10;stroke-opacity:1;stroke-dasharray:none" />
    </g>
    <g
       transform="matrix(0.3,0,0,0.3,-490.59096,-542.78781)"
       id="g15210">
      <path
         d="m 1049,372 3,-1 1,-2"
         id="path15212"
         style="fill:none;stroke:#000000;stroke-width:3;stroke-linecap:round;stroke-linejoin:round;stroke-miterlimit:10;stroke-opacity:1;stroke-dasharray:none" />
    </g>
    <g
       transform="matrix(0.3,0,0,0.3,-490.59096,-542.78781)"
       id="g15214">
      <path
         d="m 1049,380 3,-1 1,-3"
         id="path15216"
         style="fill:none;stroke:#000000;stroke-width:3;stroke-linecap:round;stroke-linejoin:round;stroke-miterlimit:10;stroke-opacity:1;stroke-dasharray:none" />
    </g>
    <g
       transform="matrix(0.3,0,0,0.3,-490.59096,-542.78781)"
       id="g15218">
      <path
         d="m 1040,367 2,0 m 7,0 2,0"
         id="path15220"
         style="fill:none;stroke:#000000;stroke-width:3;stroke-linecap:round;stroke-linejoin:round;stroke-miterlimit:10;stroke-opacity:1;stroke-dasharray:none" />
    </g>
    <g
       transform="matrix(0.3,0,0,0.3,-490.59096,-542.78781)"
       id="g15222">
      <path
         d="m 1085,367 2,2 3,1"
         id="path15224"
         style="fill:none;stroke:#000000;stroke-width:3;stroke-linecap:round;stroke-linejoin:round;stroke-miterlimit:10;stroke-opacity:1;stroke-dasharray:none" />
    </g>
    <g
       transform="matrix(0.3,0,0,0.3,-490.59096,-542.78781)"
       id="g15226">
      <path
         d="m 1085,369 2,2 3,1"
         id="path15228"
         style="fill:none;stroke:#000000;stroke-width:3;stroke-linecap:round;stroke-linejoin:round;stroke-miterlimit:10;stroke-opacity:1;stroke-dasharray:none" />
    </g>
    <g
       transform="matrix(0.3,0,0,0.3,-490.59096,-542.78781)"
       id="g15230">
      <path
         d="m 1085,376 2,3 3,1"
         id="path15232"
         style="fill:none;stroke:#000000;stroke-width:3;stroke-linecap:round;stroke-linejoin:round;stroke-miterlimit:10;stroke-opacity:1;stroke-dasharray:none" />
    </g>
    <g
       transform="matrix(0.3,0,0,0.3,-490.59096,-542.78781)"
       id="g15234">
      <path
         d="m 1096,370 3,-1 1,-2"
         id="path15236"
         style="fill:none;stroke:#000000;stroke-width:3;stroke-linecap:round;stroke-linejoin:round;stroke-miterlimit:10;stroke-opacity:1;stroke-dasharray:none" />
    </g>
    <g
       transform="matrix(0.3,0,0,0.3,-490.59096,-542.78781)"
       id="g15238">
      <path
         d="m 1096,372 3,-1 1,-2"
         id="path15240"
         style="fill:none;stroke:#000000;stroke-width:3;stroke-linecap:round;stroke-linejoin:round;stroke-miterlimit:10;stroke-opacity:1;stroke-dasharray:none" />
    </g>
    <g
       transform="matrix(0.3,0,0,0.3,-490.59096,-542.78781)"
       id="g15242">
      <path
         d="m 1096,380 3,-1 1,-3"
         id="path15244"
         style="fill:none;stroke:#000000;stroke-width:3;stroke-linecap:round;stroke-linejoin:round;stroke-miterlimit:10;stroke-opacity:1;stroke-dasharray:none" />
    </g>
    <g
       transform="matrix(0.3,0,0,0.3,-490.59096,-542.78781)"
       id="g15246">
      <path
         d="m 1087,367 3,0 m 6,0 2,0"
         id="path15248"
         style="fill:none;stroke:#000000;stroke-width:3;stroke-linecap:round;stroke-linejoin:round;stroke-miterlimit:10;stroke-opacity:1;stroke-dasharray:none" />
    </g>
    <g
       transform="matrix(0.3,0,0,0.3,-490.59096,-542.78781)"
       id="g15806">
      <path
         d="m 545,401 0,92 m 602,-92 0,92 m -579,-11 557,0"
         id="path15808"
         style="fill:none;stroke:#000000;stroke-width:3;stroke-linecap:round;stroke-linejoin:round;stroke-miterlimit:10;stroke-opacity:1;stroke-dasharray:none" />
    </g>
    <path
       d="m -320.19096,-399.38781 0,2.1 -6.9,-0.9 6.9,-1.2 z"
       id="path15810"
       style="fill:#000000;fill-opacity:1;fill-rule:evenodd;stroke:none" />
    <path
       d="m -153.09096,-399.38781 0,2.1 6.6,-0.9 -6.6,-1.2 z"
       id="path15812"
       style="fill:#000000;fill-opacity:1;fill-rule:evenodd;stroke:none" />
    <g
       transform="matrix(0.3,0,0,0.3,-490.59096,-542.78781)"
       id="g15814">
      <path
         d="m 802,452 2,-1 4,-4 0,23"
         id="path15816"
         style="fill:none;stroke:#000000;stroke-width:3;stroke-linecap:round;stroke-linejoin:round;stroke-miterlimit:10;stroke-opacity:1;stroke-dasharray:none" />
    </g>
    <g
       transform="matrix(0.3,0,0,0.3,-490.59096,-542.78781)"
       id="g15818">
      <path
         d="m 832,447 -11,16 16,0"
         id="path15820"
         style="fill:none;stroke:#000000;stroke-width:3;stroke-linecap:round;stroke-linejoin:round;stroke-miterlimit:10;stroke-opacity:1;stroke-dasharray:none" />
    </g>
    <g
       transform="matrix(0.3,0,0,0.3,-490.59096,-542.78781)"
       id="g15822">
      <path
         d="m 832,447 0,23"
         id="path15824"
         style="fill:none;stroke:#000000;stroke-width:3;stroke-linecap:round;stroke-linejoin:round;stroke-miterlimit:10;stroke-opacity:1;stroke-dasharray:none" />
    </g>
    <g
       transform="matrix(0.3,0,0,0.3,-490.59096,-542.78781)"
       id="g15826">
      <path
         d="m 845,468 -1,1 1,1 1,-1 -1,-1 z"
         id="path15828"
         style="fill:none;stroke:#000000;stroke-width:3;stroke-linecap:round;stroke-linejoin:round;stroke-miterlimit:10;stroke-opacity:1;stroke-dasharray:none" />
    </g>
    <g
       transform="matrix(0.3,0,0,0.3,-490.59096,-542.78781)"
       id="g15830">
      <path
         d="m 860,447 -3,1 -3,4 -1,5 0,3 1,6 3,3 3,1 2,0 3,-1 3,-3 1,-6 0,-3 -1,-5 -3,-4 -3,-1 -2,0 z"
         id="path15832"
         style="fill:none;stroke:#000000;stroke-width:3;stroke-linecap:round;stroke-linejoin:round;stroke-miterlimit:10;stroke-opacity:1;stroke-dasharray:none" />
    </g>
    <g
       transform="matrix(0.3,0,0,0.3,-490.59096,-542.78781)"
       id="g15834">
      <path
         d="m 888,447 -11,0 -1,10 1,-1 4,-1 3,0 3,1 2,2 1,3 0,3 -1,3 -2,2 -3,1 -3,0 -4,-1 -1,-1 -1,-2"
         id="path15836"
         style="fill:none;stroke:#000000;stroke-width:3;stroke-linecap:round;stroke-linejoin:round;stroke-miterlimit:10;stroke-opacity:1;stroke-dasharray:none" />
    </g>
  </g>
</svg>
