<?xml version="1.0" encoding="UTF-8" standalone="no"?>
<!-- Created with Inkscape (http://www.inkscape.org/) -->

<svg
   xmlns:dc="http://purl.org/dc/elements/1.1/"
   xmlns:cc="http://creativecommons.org/ns#"
   xmlns:rdf="http://www.w3.org/1999/02/22-rdf-syntax-ns#"
   xmlns:svg="http://www.w3.org/2000/svg"
   xmlns="http://www.w3.org/2000/svg"
   xmlns:sodipodi="http://sodipodi.sourceforge.net/DTD/sodipodi-0.dtd"
   xmlns:inkscape="http://www.inkscape.org/namespaces/inkscape"
   version="1.1"
   width="66.731773"
   height="196.92291"
   id="svg16767"
   inkscape:version="0.48.4 r9939"
   sodipodi:docname="left.svg">
  <sodipodi:namedview
     pagecolor="#ffffff"
     bordercolor="#666666"
     borderopacity="1"
     objecttolerance="10"
     gridtolerance="10"
     guidetolerance="10"
     inkscape:pageopacity="0"
     inkscape:pageshadow="2"
     inkscape:window-width="836"
     inkscape:window-height="1010"
     id="namedview68"
     showgrid="false"
     fit-margin-top="0"
     fit-margin-left="0"
     fit-margin-right="0"
     fit-margin-bottom="0"
     inkscape:zoom="3.8426391"
     inkscape:cx="-57.928168"
     inkscape:cy="106.11172"
     inkscape:window-x="0"
     inkscape:window-y="36"
     inkscape:window-maximized="0"
     inkscape:current-layer="svg16767" />
  <defs
     id="defs16769" />
  <metadata
     id="metadata16772">
    <rdf:RDF>
      <cc:Work
         rdf:about="">
        <dc:format>image/svg+xml</dc:format>
        <dc:type
           rdf:resource="http://purl.org/dc/dcmitype/StillImage" />
        <dc:title />
      </cc:Work>
    </rdf:RDF>
  </metadata>
  <path
     inkscape:connector-curvature="0"
     style="fill:none;stroke:#000000;stroke-width:0.90000004;stroke-linecap:round;stroke-linejoin:round;stroke-miterlimit:10;stroke-opacity:1;stroke-dasharray:none"
     d="m 42.174047,196.3687 24.000003,0"
     id="path17146" />
  <path
     inkscape:connector-curvature="0"
     style="fill:none;stroke:#000000;stroke-width:0.90000004;stroke-linecap:round;stroke-linejoin:round;stroke-miterlimit:10;stroke-opacity:1;stroke-dasharray:none"
     d="m 41.574047,194.5687 0.6,0"
     id="path17144" />
  <path
     inkscape:connector-curvature="0"
     style="fill:none;stroke:#000000;stroke-width:0.90000004;stroke-linecap:round;stroke-linejoin:round;stroke-miterlimit:10;stroke-opacity:1;stroke-dasharray:none"
     d="m 41.574047,192.7687 0.6,0"
     id="path17142" />
  <path
     inkscape:connector-curvature="0"
     style="fill:none;stroke:#000000;stroke-width:0.90000004;stroke-linecap:round;stroke-linejoin:round;stroke-miterlimit:10;stroke-opacity:1;stroke-dasharray:none"
     d="m 41.574047,189.1687 0.6,0"
     id="path17140" />
  <path
     inkscape:connector-curvature="0"
     style="fill:none;stroke:#000000;stroke-width:0.90000004;stroke-linecap:round;stroke-linejoin:round;stroke-miterlimit:10;stroke-opacity:1;stroke-dasharray:none"
     d="m 41.574047,187.6687 0.6,0"
     id="path17138" />
  <path
     inkscape:connector-curvature="0"
     style="fill:none;stroke:#000000;stroke-width:0.90000004;stroke-linecap:round;stroke-linejoin:round;stroke-miterlimit:10;stroke-opacity:1;stroke-dasharray:none"
     d="m 42.174047,185.8687 0.3,0"
     id="path17136" />
  <path
     inkscape:connector-curvature="0"
     style="fill:none;stroke:#000000;stroke-width:0.90000004;stroke-linecap:round;stroke-linejoin:round;stroke-miterlimit:10;stroke-opacity:1;stroke-dasharray:none"
     d="m 50.574047,182.5687 6.3,0"
     id="path17134" />
  <path
     inkscape:connector-curvature="0"
     style="fill:none;stroke:#000000;stroke-width:0.90000004;stroke-linecap:round;stroke-linejoin:round;stroke-miterlimit:10;stroke-opacity:1;stroke-dasharray:none"
     d="m 57.174047,181.6687 -7.5,0"
     id="path17132" />
  <path
     inkscape:connector-curvature="0"
     style="fill:none;stroke:#000000;stroke-width:0.90000004;stroke-linecap:round;stroke-linejoin:round;stroke-miterlimit:10;stroke-opacity:1;stroke-dasharray:none"
     d="m 49.674047,164.8687 7.5,0"
     id="path17130" />
  <path
     inkscape:connector-curvature="0"
     style="fill:none;stroke:#000000;stroke-width:0.90000004;stroke-linecap:round;stroke-linejoin:round;stroke-miterlimit:10;stroke-opacity:1;stroke-dasharray:none"
     d="m 56.874047,163.9687 -6.3,0"
     id="path17128" />
  <path
     inkscape:connector-curvature="0"
     style="fill:none;stroke:#000000;stroke-width:0.90000004;stroke-linecap:round;stroke-linejoin:round;stroke-miterlimit:10;stroke-opacity:1;stroke-dasharray:none"
     d="m 45.174047,151.0687 5.7,0"
     id="path17126" />
  <path
     inkscape:connector-curvature="0"
     style="fill:none;stroke:#000000;stroke-width:0.90000004;stroke-linecap:round;stroke-linejoin:round;stroke-miterlimit:10;stroke-opacity:1;stroke-dasharray:none"
     d="m 42.174047,150.7687 8.1,0"
     id="path17124" />
  <path
     inkscape:connector-curvature="0"
     style="fill:none;stroke:#000000;stroke-width:0.90000004;stroke-linecap:round;stroke-linejoin:round;stroke-miterlimit:10;stroke-opacity:1;stroke-dasharray:none"
     d="m 50.274047,138.1687 -8.1,0"
     id="path17122" />
  <path
     inkscape:connector-curvature="0"
     style="fill:none;stroke:#000000;stroke-width:0.90000004;stroke-linecap:round;stroke-linejoin:round;stroke-miterlimit:10;stroke-opacity:1;stroke-dasharray:none"
     d="m 45.174047,137.5687 5.7,0"
     id="path17120" />
  <path
     inkscape:connector-curvature="0"
     style="fill:none;stroke:#000000;stroke-width:0.90000004;stroke-linecap:round;stroke-linejoin:round;stroke-miterlimit:10;stroke-opacity:1;stroke-dasharray:none"
     d="m 50.574047,124.6687 6.3,0"
     id="path17118" />
  <path
     inkscape:connector-curvature="0"
     style="fill:none;stroke:#000000;stroke-width:0.90000004;stroke-linecap:round;stroke-linejoin:round;stroke-miterlimit:10;stroke-opacity:1;stroke-dasharray:none"
     d="m 57.174047,123.7687 -7.5,0"
     id="path17116" />
  <path
     inkscape:connector-curvature="0"
     style="fill:none;stroke:#000000;stroke-width:0.90000004;stroke-linecap:round;stroke-linejoin:round;stroke-miterlimit:10;stroke-opacity:1;stroke-dasharray:none"
     d="m 50.274047,138.1687 2.1,1.8"
     id="path17114" />
  <path
     inkscape:connector-curvature="0"
     style="fill:none;stroke:#000000;stroke-width:0.90000004;stroke-linecap:round;stroke-linejoin:round;stroke-miterlimit:10;stroke-opacity:1;stroke-dasharray:none"
     d="m 64.67405,106.9687 1.5,0"
     id="path17112" />
  <path
     inkscape:connector-curvature="0"
     style="fill:none;stroke:#000000;stroke-width:0.90000004;stroke-linecap:round;stroke-linejoin:round;stroke-miterlimit:10;stroke-opacity:1;stroke-dasharray:none"
     d="m 41.274047,29.8687 0,-29.39999958"
     id="path17110" />
  <path
     inkscape:connector-curvature="0"
     style="fill:none;stroke:#000000;stroke-width:0.90000004;stroke-linecap:round;stroke-linejoin:round;stroke-miterlimit:10;stroke-opacity:1;stroke-dasharray:none"
     d="m 41.574047,194.5687 0,-6.9"
     id="path17108" />
  <path
     inkscape:connector-curvature="0"
     style="fill:none;stroke:#000000;stroke-width:0.90000004;stroke-linecap:round;stroke-linejoin:round;stroke-miterlimit:10;stroke-opacity:1;stroke-dasharray:none"
     d="m 41.874047,61.9687 0,-12.9"
     id="path17106" />
  <path
     inkscape:connector-curvature="0"
     style="fill:none;stroke:#000000;stroke-width:0.90000004;stroke-linecap:round;stroke-linejoin:round;stroke-miterlimit:10;stroke-opacity:1;stroke-dasharray:none"
     d="m 42.174047,18.4687 0,177.9"
     id="path17104" />
  <path
     inkscape:connector-curvature="0"
     style="fill:none;stroke:#000000;stroke-width:0.90000004;stroke-linecap:round;stroke-linejoin:round;stroke-miterlimit:10;stroke-opacity:1;stroke-dasharray:none"
     d="m 66.17405,104.5687 -2.1,0"
     id="path17102" />
  <path
     inkscape:connector-curvature="0"
     style="fill:none;stroke:#000000;stroke-width:0.90000004;stroke-linecap:round;stroke-linejoin:round;stroke-miterlimit:10;stroke-opacity:1;stroke-dasharray:none"
     d="m 49.674047,99.468696 7.5,0"
     id="path17100" />
  <path
     inkscape:connector-curvature="0"
     style="fill:none;stroke:#000000;stroke-width:0.90000004;stroke-linecap:round;stroke-linejoin:round;stroke-miterlimit:10;stroke-opacity:1;stroke-dasharray:none"
     d="m 56.874047,98.268696 -6.3,0"
     id="path17098" />
  <path
     inkscape:connector-curvature="0"
     style="fill:none;stroke:#000000;stroke-width:0.90000004;stroke-linecap:round;stroke-linejoin:round;stroke-miterlimit:10;stroke-opacity:1;stroke-dasharray:none"
     d="m 43.074047,0.46870042 0,17.99999958"
     id="path17096" />
  <path
     inkscape:connector-curvature="0"
     style="fill:none;stroke:#000000;stroke-width:0.90000004;stroke-linecap:round;stroke-linejoin:round;stroke-miterlimit:10;stroke-opacity:1;stroke-dasharray:none"
     d="m 43.374047,193.9687 0,-41.1"
     id="path17094" />
  <path
     inkscape:connector-curvature="0"
     style="fill:none;stroke:#000000;stroke-width:0.90000004;stroke-linecap:round;stroke-linejoin:round;stroke-miterlimit:10;stroke-opacity:1;stroke-dasharray:none"
     d="m 43.374047,135.7687 0,-50.4"
     id="path17092" />
  <path
     inkscape:connector-curvature="0"
     style="fill:none;stroke:#000000;stroke-width:0.90000004;stroke-linecap:round;stroke-linejoin:round;stroke-miterlimit:10;stroke-opacity:1;stroke-dasharray:none"
     d="m 43.374047,66.7687 0,-40.8"
     id="path17090" />
  <path
     inkscape:connector-curvature="0"
     style="fill:none;stroke:#000000;stroke-width:0.90000004;stroke-linecap:round;stroke-linejoin:round;stroke-miterlimit:10;stroke-opacity:1;stroke-dasharray:none"
     d="m 43.674047,0.46870042 0,17.99999958"
     id="path17088" />
  <path
     inkscape:connector-curvature="0"
     style="fill:none;stroke:#000000;stroke-width:0.90000004;stroke-linecap:round;stroke-linejoin:round;stroke-miterlimit:10;stroke-opacity:1;stroke-dasharray:none"
     d="m 44.874047,23.5687 0,-5.1"
     id="path17086" />
  <path
     inkscape:connector-curvature="0"
     style="fill:none;stroke:#000000;stroke-width:0.90000004;stroke-linecap:round;stroke-linejoin:round;stroke-miterlimit:10;stroke-opacity:1;stroke-dasharray:none"
     d="m 49.074047,37.0687 0,15.3"
     id="path17084" />
  <path
     inkscape:connector-curvature="0"
     style="fill:none;stroke:#000000;stroke-width:0.90000004;stroke-linecap:round;stroke-linejoin:round;stroke-miterlimit:10;stroke-opacity:1;stroke-dasharray:none"
     d="m 49.074047,100.0687 0,23.1"
     id="path17082" />
  <path
     inkscape:connector-curvature="0"
     style="fill:none;stroke:#000000;stroke-width:0.90000004;stroke-linecap:round;stroke-linejoin:round;stroke-miterlimit:10;stroke-opacity:1;stroke-dasharray:none"
     d="m 49.074047,165.4687 0,15.3"
     id="path17080" />
  <path
     inkscape:connector-curvature="0"
     style="fill:none;stroke:#000000;stroke-width:0.90000004;stroke-linecap:round;stroke-linejoin:round;stroke-miterlimit:10;stroke-opacity:1;stroke-dasharray:none"
     d="m 49.674047,181.6687 0,-16.8"
     id="path17078" />
  <path
     inkscape:connector-curvature="0"
     style="fill:none;stroke:#000000;stroke-width:0.90000004;stroke-linecap:round;stroke-linejoin:round;stroke-miterlimit:10;stroke-opacity:1;stroke-dasharray:none"
     d="m 49.674047,123.7687 0,-24.300004"
     id="path17076" />
  <path
     inkscape:connector-curvature="0"
     style="fill:none;stroke:#000000;stroke-width:0.90000004;stroke-linecap:round;stroke-linejoin:round;stroke-miterlimit:10;stroke-opacity:1;stroke-dasharray:none"
     d="m 49.674047,52.9687 0,-16.5"
     id="path17074" />
  <path
     inkscape:connector-curvature="0"
     style="fill:none;stroke:#000000;stroke-width:0.90000004;stroke-linecap:round;stroke-linejoin:round;stroke-miterlimit:10;stroke-opacity:1;stroke-dasharray:none"
     d="m 52.374047,80.5687 -2.1,1.8"
     id="path17072" />
  <path
     inkscape:connector-curvature="0"
     style="fill:none;stroke:#000000;stroke-width:0.90000004;stroke-linecap:round;stroke-linejoin:round;stroke-miterlimit:10;stroke-opacity:1;stroke-dasharray:none"
     d="m 52.074047,181.6687 0,-16.8"
     id="path17070" />
  <path
     inkscape:connector-curvature="0"
     style="fill:none;stroke:#000000;stroke-width:0.90000004;stroke-linecap:round;stroke-linejoin:round;stroke-miterlimit:10;stroke-opacity:1;stroke-dasharray:none"
     d="m 52.074047,123.7687 0,-24.300004"
     id="path17068" />
  <path
     inkscape:connector-curvature="0"
     style="fill:none;stroke:#000000;stroke-width:0.90000004;stroke-linecap:round;stroke-linejoin:round;stroke-miterlimit:10;stroke-opacity:1;stroke-dasharray:none"
     d="m 52.074047,52.9687 0,-16.5"
     id="path17066" />
  <path
     inkscape:connector-curvature="0"
     style="fill:none;stroke:#000000;stroke-width:0.90000004;stroke-linecap:round;stroke-linejoin:round;stroke-miterlimit:10;stroke-opacity:1;stroke-dasharray:none"
     d="m 52.374047,148.6687 0,-8.7"
     id="path17064" />
  <path
     inkscape:connector-curvature="0"
     style="fill:none;stroke:#000000;stroke-width:0.90000004;stroke-linecap:round;stroke-linejoin:round;stroke-miterlimit:10;stroke-opacity:1;stroke-dasharray:none"
     d="m 52.374047,80.5687 0,-8.7"
     id="path17062" />
  <path
     inkscape:connector-curvature="0"
     style="fill:none;stroke:#000000;stroke-width:0.90000004;stroke-linecap:round;stroke-linejoin:round;stroke-miterlimit:10;stroke-opacity:1;stroke-dasharray:none"
     d="m 52.674047,149.2687 0,-9.9"
     id="path17060" />
  <path
     inkscape:connector-curvature="0"
     style="fill:none;stroke:#000000;stroke-width:0.90000004;stroke-linecap:round;stroke-linejoin:round;stroke-miterlimit:10;stroke-opacity:1;stroke-dasharray:none"
     d="m 52.674047,81.1687 0,-10.2"
     id="path17058" />
  <path
     inkscape:connector-curvature="0"
     style="fill:none;stroke:#000000;stroke-width:0.90000004;stroke-linecap:round;stroke-linejoin:round;stroke-miterlimit:10;stroke-opacity:1;stroke-dasharray:none"
     d="m 53.274047,181.6687 0,-16.8"
     id="path17056" />
  <path
     inkscape:connector-curvature="0"
     style="fill:none;stroke:#000000;stroke-width:0.90000004;stroke-linecap:round;stroke-linejoin:round;stroke-miterlimit:10;stroke-opacity:1;stroke-dasharray:none"
     d="m 53.274047,123.7687 0,-24.300004"
     id="path17054" />
  <path
     inkscape:connector-curvature="0"
     style="fill:none;stroke:#000000;stroke-width:0.90000004;stroke-linecap:round;stroke-linejoin:round;stroke-miterlimit:10;stroke-opacity:1;stroke-dasharray:none"
     d="m 53.274047,52.9687 0,-16.5"
     id="path17052" />
  <path
     inkscape:connector-curvature="0"
     style="fill:none;stroke:#000000;stroke-width:0.90000004;stroke-linecap:round;stroke-linejoin:round;stroke-miterlimit:10;stroke-opacity:1;stroke-dasharray:none"
     d="m 57.174047,36.4687 0,16.5"
     id="path17050" />
  <path
     inkscape:connector-curvature="0"
     style="fill:none;stroke:#000000;stroke-width:0.90000004;stroke-linecap:round;stroke-linejoin:round;stroke-miterlimit:10;stroke-opacity:1;stroke-dasharray:none"
     d="m 57.174047,99.468696 0,24.300004"
     id="path17048" />
  <path
     inkscape:connector-curvature="0"
     style="fill:none;stroke:#000000;stroke-width:0.90000004;stroke-linecap:round;stroke-linejoin:round;stroke-miterlimit:10;stroke-opacity:1;stroke-dasharray:none"
     d="m 57.174047,164.8687 0,16.8"
     id="path17046" />
  <path
     inkscape:connector-curvature="0"
     style="fill:none;stroke:#000000;stroke-width:0.90000004;stroke-linecap:round;stroke-linejoin:round;stroke-miterlimit:10;stroke-opacity:1;stroke-dasharray:none"
     d="m 58.674047,180.7687 0,-15.3"
     id="path17044" />
  <path
     inkscape:connector-curvature="0"
     style="fill:none;stroke:#000000;stroke-width:0.90000004;stroke-linecap:round;stroke-linejoin:round;stroke-miterlimit:10;stroke-opacity:1;stroke-dasharray:none"
     d="m 58.674047,123.1687 0,-23.1"
     id="path17042" />
  <path
     inkscape:connector-curvature="0"
     style="fill:none;stroke:#000000;stroke-width:0.90000004;stroke-linecap:round;stroke-linejoin:round;stroke-miterlimit:10;stroke-opacity:1;stroke-dasharray:none"
     d="m 58.674047,52.3687 0,-15.3"
     id="path17040" />
  <path
     inkscape:connector-curvature="0"
     style="fill:none;stroke:#000000;stroke-width:0.90000004;stroke-linecap:round;stroke-linejoin:round;stroke-miterlimit:10;stroke-opacity:1;stroke-dasharray:none"
     d="m 65.87405,49.6687 -1.8,12.3"
     id="path17038" />
  <path
     inkscape:connector-curvature="0"
     style="fill:none;stroke:#000000;stroke-width:0.90000004;stroke-linecap:round;stroke-linejoin:round;stroke-miterlimit:10;stroke-opacity:1;stroke-dasharray:none"
     d="m 45.774047,82.9687 5.1,0"
     id="path17036" />
  <path
     inkscape:connector-curvature="0"
     style="fill:none;stroke:#000000;stroke-width:0.90000004;stroke-linecap:round;stroke-linejoin:round;stroke-miterlimit:10;stroke-opacity:1;stroke-dasharray:none"
     d="m 42.174047,82.3687 8.1,0"
     id="path17034" />
  <path
     inkscape:connector-curvature="0"
     style="fill:none;stroke:#000000;stroke-width:0.90000004;stroke-linecap:round;stroke-linejoin:round;stroke-miterlimit:10;stroke-opacity:1;stroke-dasharray:none"
     d="m 61.67405,18.4687 0,2.4"
     id="path17032" />
  <path
     inkscape:connector-curvature="0"
     style="fill:none;stroke:#000000;stroke-width:0.90000004;stroke-linecap:round;stroke-linejoin:round;stroke-miterlimit:10;stroke-opacity:1;stroke-dasharray:none"
     d="m 62.27405,0.46870042 0,17.99999958"
     id="path17030" />
  <path
     inkscape:connector-curvature="0"
     style="fill:none;stroke:#000000;stroke-width:0.90000004;stroke-linecap:round;stroke-linejoin:round;stroke-miterlimit:10;stroke-opacity:1;stroke-dasharray:none"
     d="m 62.27405,20.8687 0,2.7"
     id="path17028" />
  <path
     inkscape:connector-curvature="0"
     style="fill:none;stroke:#000000;stroke-width:0.90000004;stroke-linecap:round;stroke-linejoin:round;stroke-miterlimit:10;stroke-opacity:1;stroke-dasharray:none"
     d="m 62.87405,196.3687 0,-172.8"
     id="path17026" />
  <path
     inkscape:connector-curvature="0"
     style="fill:none;stroke:#000000;stroke-width:0.90000004;stroke-linecap:round;stroke-linejoin:round;stroke-miterlimit:10;stroke-opacity:1;stroke-dasharray:none"
     d="m 64.07405,18.4687 0,5.1"
     id="path17024" />
  <path
     inkscape:connector-curvature="0"
     style="fill:none;stroke:#000000;stroke-width:0.90000004;stroke-linecap:round;stroke-linejoin:round;stroke-miterlimit:10;stroke-opacity:1;stroke-dasharray:none"
     d="m 64.07405,36.4687 0,70.5"
     id="path17022" />
  <path
     inkscape:connector-curvature="0"
     style="fill:none;stroke:#000000;stroke-width:0.90000004;stroke-linecap:round;stroke-linejoin:round;stroke-miterlimit:10;stroke-opacity:1;stroke-dasharray:none"
     d="m 66.17405,196.3687 0,-195.89999958"
     id="path17020" />
  <path
     inkscape:connector-curvature="0"
     style="fill:none;stroke:#000000;stroke-width:0.90000004;stroke-linecap:round;stroke-linejoin:round;stroke-miterlimit:10;stroke-opacity:1;stroke-dasharray:none"
     d="m 50.274047,69.7687 -8.1,0"
     id="path17018" />
  <path
     inkscape:connector-curvature="0"
     style="fill:none;stroke:#000000;stroke-width:0.90000004;stroke-linecap:round;stroke-linejoin:round;stroke-miterlimit:10;stroke-opacity:1;stroke-dasharray:none"
     d="m 45.774047,69.4687 5.1,0"
     id="path17016" />
  <path
     inkscape:connector-curvature="0"
     style="fill:none;stroke:#000000;stroke-width:0.90000004;stroke-linecap:round;stroke-linejoin:round;stroke-miterlimit:10;stroke-opacity:1;stroke-dasharray:none"
     d="m 50.274047,69.7687 2.1,2.1"
     id="path17014" />
  <path
     inkscape:connector-curvature="0"
     style="fill:none;stroke:#000000;stroke-width:0.90000004;stroke-linecap:round;stroke-linejoin:round;stroke-miterlimit:10;stroke-opacity:1;stroke-dasharray:none"
     d="m 50.574047,53.8687 6.3,0"
     id="path17012" />
  <path
     inkscape:connector-curvature="0"
     style="fill:none;stroke:#000000;stroke-width:0.90000004;stroke-linecap:round;stroke-linejoin:round;stroke-miterlimit:10;stroke-opacity:1;stroke-dasharray:none"
     d="m 57.174047,52.9687 -7.5,0"
     id="path17010" />
  <path
     inkscape:connector-curvature="0"
     style="fill:none;stroke:#000000;stroke-width:0.90000004;stroke-linecap:round;stroke-linejoin:round;stroke-miterlimit:10;stroke-opacity:1;stroke-dasharray:none"
     d="m 41.874047,51.7687 0.3,0"
     id="path17008" />
  <path
     inkscape:connector-curvature="0"
     style="fill:none;stroke:#000000;stroke-width:0.90000004;stroke-linecap:round;stroke-linejoin:round;stroke-miterlimit:10;stroke-opacity:1;stroke-dasharray:none"
     d="m 41.874047,49.0687 0.3,0"
     id="path17006" />
  <path
     inkscape:connector-curvature="0"
     style="fill:none;stroke:#000000;stroke-width:0.90000004;stroke-linecap:round;stroke-linejoin:round;stroke-miterlimit:10;stroke-opacity:1;stroke-dasharray:none"
     d="m 52.374047,148.6687 -2.1,2.1"
     id="path17004" />
  <path
     inkscape:connector-curvature="0"
     style="fill:none;stroke:#000000;stroke-width:0.90000004;stroke-linecap:round;stroke-linejoin:round;stroke-miterlimit:10;stroke-opacity:1;stroke-dasharray:none"
     d="m 66.17405,38.8687 -2.1,0"
     id="path17002" />
  <path
     inkscape:connector-curvature="0"
     style="fill:none;stroke:#000000;stroke-width:0.90000004;stroke-linecap:round;stroke-linejoin:round;stroke-miterlimit:10;stroke-opacity:1;stroke-dasharray:none"
     d="m 49.674047,36.4687 7.5,0"
     id="path17000" />
  <path
     inkscape:connector-curvature="0"
     style="fill:none;stroke:#000000;stroke-width:0.90000004;stroke-linecap:round;stroke-linejoin:round;stroke-miterlimit:10;stroke-opacity:1;stroke-dasharray:none"
     d="m 64.67405,36.4687 1.5,0"
     id="path16998" />
  <path
     inkscape:connector-curvature="0"
     style="fill:none;stroke:#000000;stroke-width:0.90000004;stroke-linecap:round;stroke-linejoin:round;stroke-miterlimit:10;stroke-opacity:1;stroke-dasharray:none"
     d="m 56.874047,35.2687 -6.3,0"
     id="path16996" />
  <path
     inkscape:connector-curvature="0"
     style="fill:none;stroke:#000000;stroke-width:0.90000004;stroke-linecap:round;stroke-linejoin:round;stroke-miterlimit:10;stroke-opacity:1;stroke-dasharray:none"
     d="m 42.174047,29.8687 -0.9,0"
     id="path16994" />
  <path
     inkscape:connector-curvature="0"
     style="fill:none;stroke:#000000;stroke-width:0.90000004;stroke-linecap:round;stroke-linejoin:round;stroke-miterlimit:10;stroke-opacity:1;stroke-dasharray:none"
     d="m 42.174047,27.4687 -0.9,0"
     id="path16992" />
  <path
     inkscape:connector-curvature="0"
     style="fill:none;stroke:#000000;stroke-width:0.90000004;stroke-linecap:round;stroke-linejoin:round;stroke-miterlimit:10;stroke-opacity:1;stroke-dasharray:none"
     d="m 42.174047,24.7687 1.5,0"
     id="path16990" />
  <path
     inkscape:connector-curvature="0"
     style="fill:none;stroke:#000000;stroke-width:0.90000004;stroke-linecap:round;stroke-linejoin:round;stroke-miterlimit:10;stroke-opacity:1;stroke-dasharray:none"
     d="m 45.774047,23.5687 20.400003,0"
     id="path16988" />
  <path
     inkscape:connector-curvature="0"
     style="fill:none;stroke:#000000;stroke-width:0.90000004;stroke-linecap:round;stroke-linejoin:round;stroke-miterlimit:10;stroke-opacity:1;stroke-dasharray:none"
     d="m 44.874047,20.8687 19.200003,0"
     id="path16986" />
  <path
     inkscape:connector-curvature="0"
     style="fill:none;stroke:#000000;stroke-width:0.90000004;stroke-linecap:round;stroke-linejoin:round;stroke-miterlimit:10;stroke-opacity:1;stroke-dasharray:none"
     d="m 41.274047,18.4687 24.900003,0"
     id="path16984" />
  <path
     inkscape:connector-curvature="0"
     style="fill:none;stroke:#000000;stroke-width:0.90000004;stroke-linecap:round;stroke-linejoin:round;stroke-miterlimit:10;stroke-opacity:1;stroke-dasharray:none"
     d="m 41.274047,15.7687 1.8,0"
     id="path16982" />
  <path
     inkscape:connector-curvature="0"
     style="fill:none;stroke:#000000;stroke-width:0.90000004;stroke-linecap:round;stroke-linejoin:round;stroke-miterlimit:10;stroke-opacity:1;stroke-dasharray:none"
     d="m 41.274047,2.8687004 1.8,0"
     id="path16980" />
  <path
     inkscape:connector-curvature="0"
     style="fill:none;stroke:#000000;stroke-width:0.90000004;stroke-linecap:round;stroke-linejoin:round;stroke-miterlimit:10;stroke-opacity:1;stroke-dasharray:none"
     d="m 41.274047,0.46870042 24.900003,0"
     id="path16978" />
  <g
     id="g11135"
     transform="matrix(0.3,0,0,0.3,-37.625953,-248.2313)">
    <path
       inkscape:connector-curvature="0"
       d="m 345,993 1,-6 m -80,459 -2,7 m 1,-419 1,5"
       style="fill:none;stroke:#000000;stroke-width:3;stroke-linecap:round;stroke-linejoin:round;stroke-miterlimit:10;stroke-opacity:1;stroke-dasharray:none"
       id="path11137" />
  </g>
  <g
     id="g11139"
     transform="matrix(0.3,0,0,0.3,-37.625953,-248.2313)">
    <path
       inkscape:connector-curvature="0"
       d="m 278,906 -4,1 -3,3 -1,4"
       style="fill:none;stroke:#000000;stroke-width:3;stroke-linecap:round;stroke-linejoin:round;stroke-miterlimit:10;stroke-opacity:1;stroke-dasharray:none"
       id="path11141" />
  </g>
  <g
     id="g11143"
     transform="matrix(0.3,0,0,0.3,-37.625953,-248.2313)">
    <path
       inkscape:connector-curvature="0"
       d="m 270,1474 1,4 3,3 4,1"
       style="fill:none;stroke:#000000;stroke-width:3;stroke-linecap:round;stroke-linejoin:round;stroke-miterlimit:10;stroke-opacity:1;stroke-dasharray:none"
       id="path11145" />
  </g>
  <g
     id="g11147"
     transform="matrix(0.3,0,0,0.3,-37.625953,-248.2313)">
    <path
       inkscape:connector-curvature="0"
       d="m 278,1104 -4,1 -3,3 -1,4"
       style="fill:none;stroke:#000000;stroke-width:3;stroke-linecap:round;stroke-linejoin:round;stroke-miterlimit:10;stroke-opacity:1;stroke-dasharray:none"
       id="path11149" />
  </g>
  <g
     id="g11151"
     transform="matrix(0.3,0,0,0.3,-37.625953,-248.2313)">
    <path
       inkscape:connector-curvature="0"
       d="m 270,1050 1,5 3,3 4,1"
       style="fill:none;stroke:#000000;stroke-width:3;stroke-linecap:round;stroke-linejoin:round;stroke-miterlimit:10;stroke-opacity:1;stroke-dasharray:none"
       id="path11153" />
  </g>
  <g
     id="g11155"
     transform="matrix(0.3,0,0,0.3,-37.625953,-248.2313)">
    <path
       inkscape:connector-curvature="0"
       d="m 341,949 -4,1 -2,5"
       style="fill:none;stroke:#000000;stroke-width:3;stroke-linecap:round;stroke-linejoin:round;stroke-miterlimit:10;stroke-opacity:1;stroke-dasharray:none"
       id="path11157" />
  </g>
  <g
     id="g11159"
     transform="matrix(0.3,0,0,0.3,-37.625953,-248.2313)">
    <path
       inkscape:connector-curvature="0"
       d="m 335,1178 2,4 4,2"
       style="fill:none;stroke:#000000;stroke-width:3;stroke-linecap:round;stroke-linejoin:round;stroke-miterlimit:10;stroke-opacity:1;stroke-dasharray:none"
       id="path11161" />
  </g>
  <g
     id="g11163"
     transform="matrix(0.3,0,0,0.3,-37.625953,-248.2313)">
    <path
       inkscape:connector-curvature="0"
       d="m 270,1280 2,4 4,2"
       style="fill:none;stroke:#000000;stroke-width:3;stroke-linecap:round;stroke-linejoin:round;stroke-miterlimit:10;stroke-opacity:1;stroke-dasharray:none"
       id="path11165" />
  </g>
  <g
     id="g11167"
     transform="matrix(0.3,0,0,0.3,-37.625953,-248.2313)">
    <path
       inkscape:connector-curvature="0"
       d="m 276,1331 -4,2 -2,4"
       style="fill:none;stroke:#000000;stroke-width:3;stroke-linecap:round;stroke-linejoin:round;stroke-miterlimit:10;stroke-opacity:1;stroke-dasharray:none"
       id="path11169" />
  </g>
  <g
     id="g11171"
     transform="matrix(0.3,0,0,0.3,-37.625953,-248.2313)">
    <path
       inkscape:connector-curvature="0"
       d="m 295,1331 4,-2 2,-4"
       style="fill:none;stroke:#000000;stroke-width:3;stroke-linecap:round;stroke-linejoin:round;stroke-miterlimit:10;stroke-opacity:1;stroke-dasharray:none"
       id="path11173" />
  </g>
  <g
     id="g11175"
     transform="matrix(0.3,0,0,0.3,-37.625953,-248.2313)">
    <path
       inkscape:connector-curvature="0"
       d="m 301,1292 -2,-4 -4,-2"
       style="fill:none;stroke:#000000;stroke-width:3;stroke-linecap:round;stroke-linejoin:round;stroke-miterlimit:10;stroke-opacity:1;stroke-dasharray:none"
       id="path11177" />
  </g>
  <g
     id="g11179"
     transform="matrix(0.3,0,0,0.3,-37.625953,-248.2313)">
    <path
       inkscape:connector-curvature="0"
       d="m 295,1104 4,-2 2,-4"
       style="fill:none;stroke:#000000;stroke-width:3;stroke-linecap:round;stroke-linejoin:round;stroke-miterlimit:10;stroke-opacity:1;stroke-dasharray:none"
       id="path11181" />
  </g>
  <g
     id="g11183"
     transform="matrix(0.3,0,0,0.3,-37.625953,-248.2313)">
    <path
       inkscape:connector-curvature="0"
       d="m 301,1064 -2,-3 -4,-2"
       style="fill:none;stroke:#000000;stroke-width:3;stroke-linecap:round;stroke-linejoin:round;stroke-miterlimit:10;stroke-opacity:1;stroke-dasharray:none"
       id="path11185" />
  </g>
  <g
     id="g11187"
     transform="matrix(0.3,0,0,0.3,-37.625953,-248.2313)">
    <path
       inkscape:connector-curvature="0"
       d="m 321,1379 -2,-3 -4,-2"
       style="fill:none;stroke:#000000;stroke-width:3;stroke-linecap:round;stroke-linejoin:round;stroke-miterlimit:10;stroke-opacity:1;stroke-dasharray:none"
       id="path11189" />
  </g>
  <g
     id="g11191"
     transform="matrix(0.3,0,0,0.3,-37.625953,-248.2313)">
    <path
       inkscape:connector-curvature="0"
       d="m 315,1436 4,-2 2,-4"
       style="fill:none;stroke:#000000;stroke-width:3;stroke-linecap:round;stroke-linejoin:round;stroke-miterlimit:10;stroke-opacity:1;stroke-dasharray:none"
       id="path11193" />
  </g>
  <g
     id="g11195"
     transform="matrix(0.3,0,0,0.3,-37.625953,-248.2313)">
    <path
       inkscape:connector-curvature="0"
       d="m 289,1430 1,4 4,2"
       style="fill:none;stroke:#000000;stroke-width:3;stroke-linecap:round;stroke-linejoin:round;stroke-miterlimit:10;stroke-opacity:1;stroke-dasharray:none"
       id="path11197" />
  </g>
  <g
     id="g11199"
     transform="matrix(0.3,0,0,0.3,-37.625953,-248.2313)">
    <path
       inkscape:connector-curvature="0"
       d="m 294,1374 -4,2 -1,3"
       style="fill:none;stroke:#000000;stroke-width:3;stroke-linecap:round;stroke-linejoin:round;stroke-miterlimit:10;stroke-opacity:1;stroke-dasharray:none"
       id="path11201" />
  </g>
  <g
     id="g11203"
     transform="matrix(0.3,0,0,0.3,-37.625953,-248.2313)">
    <path
       inkscape:connector-curvature="0"
       d="m 289,1238 1,4 4,1"
       style="fill:none;stroke:#000000;stroke-width:3;stroke-linecap:round;stroke-linejoin:round;stroke-miterlimit:10;stroke-opacity:1;stroke-dasharray:none"
       id="path11205" />
  </g>
  <g
     id="g11207"
     transform="matrix(0.3,0,0,0.3,-37.625953,-248.2313)">
    <path
       inkscape:connector-curvature="0"
       d="m 315,1243 4,-1 2,-4"
       style="fill:none;stroke:#000000;stroke-width:3;stroke-linecap:round;stroke-linejoin:round;stroke-miterlimit:10;stroke-opacity:1;stroke-dasharray:none"
       id="path11209" />
  </g>
  <g
     id="g11211"
     transform="matrix(0.3,0,0,0.3,-37.625953,-248.2313)">
    <path
       inkscape:connector-curvature="0"
       d="m 321,1161 -2,-4 -4,-2"
       style="fill:none;stroke:#000000;stroke-width:3;stroke-linecap:round;stroke-linejoin:round;stroke-miterlimit:10;stroke-opacity:1;stroke-dasharray:none"
       id="path11213" />
  </g>
  <g
     id="g11215"
     transform="matrix(0.3,0,0,0.3,-37.625953,-248.2313)">
    <path
       inkscape:connector-curvature="0"
       d="m 294,1155 -4,2 -1,4"
       style="fill:none;stroke:#000000;stroke-width:3;stroke-linecap:round;stroke-linejoin:round;stroke-miterlimit:10;stroke-opacity:1;stroke-dasharray:none"
       id="path11217" />
  </g>
  <g
     id="g11219"
     transform="matrix(0.3,0,0,0.3,-37.625953,-248.2313)">
    <path
       inkscape:connector-curvature="0"
       d="m 294,945 -4,2 -1,4"
       style="fill:none;stroke:#000000;stroke-width:3;stroke-linecap:round;stroke-linejoin:round;stroke-miterlimit:10;stroke-opacity:1;stroke-dasharray:none"
       id="path11221" />
  </g>
  <g
     id="g11223"
     transform="matrix(0.3,0,0,0.3,-37.625953,-248.2313)">
    <path
       inkscape:connector-curvature="0"
       d="m 289,1002 1,4 4,1"
       style="fill:none;stroke:#000000;stroke-width:3;stroke-linecap:round;stroke-linejoin:round;stroke-miterlimit:10;stroke-opacity:1;stroke-dasharray:none"
       id="path11225" />
  </g>
  <g
     id="g11227"
     transform="matrix(0.3,0,0,0.3,-37.625953,-248.2313)">
    <path
       inkscape:connector-curvature="0"
       d="m 321,951 -2,-4 -4,-2"
       style="fill:none;stroke:#000000;stroke-width:3;stroke-linecap:round;stroke-linejoin:round;stroke-miterlimit:10;stroke-opacity:1;stroke-dasharray:none"
       id="path11229" />
  </g>
  <g
     id="g11231"
     transform="matrix(0.3,0,0,0.3,-37.625953,-248.2313)">
    <path
       inkscape:connector-curvature="0"
       d="m 315,1007 4,-1 2,-4"
       style="fill:none;stroke:#000000;stroke-width:3;stroke-linecap:round;stroke-linejoin:round;stroke-miterlimit:10;stroke-opacity:1;stroke-dasharray:none"
       id="path11233" />
  </g>
  <g
     id="g16031"
     transform="matrix(0.3,0,0,0.3,-37.625953,-248.2313)">
    <path
       inkscape:connector-curvature="0"
       d="m 266,980 0,-23 m -1,23 0,-23 m 24,11 23,0 m -70,0 -115,0"
       style="fill:none;stroke:#000000;stroke-width:3;stroke-linecap:round;stroke-linejoin:round;stroke-miterlimit:10;stroke-opacity:1;stroke-dasharray:none"
       id="path16033" />
  </g>
  <path
     inkscape:connector-curvature="0"
     d="m 49.074047,40.9687 0,2.4 -6.9,-1.2 6.9,-1.2 z"
     style="fill:#000000;fill-opacity:1;fill-rule:evenodd;stroke:none"
     id="path16035" />
  <path
     inkscape:connector-curvature="0"
     d="m 34.974047,40.9687 0,2.4 6.9,-1.2 -6.9,-1.2 z"
     style="fill:#000000;fill-opacity:1;fill-rule:evenodd;stroke:none"
     id="path16037" />
  <g
     id="g16039"
     transform="matrix(0.3,0,0,0.3,-37.625953,-248.2313)">
    <path
       inkscape:connector-curvature="0"
       d="m 145,934 -4,1 -2,3 -1,6 0,3 1,6 2,3 4,1 2,0 3,-1 2,-3 1,-6 0,-3 -1,-6 -2,-3 -3,-1 -2,0 z"
       style="fill:none;stroke:#000000;stroke-width:3;stroke-linecap:round;stroke-linejoin:round;stroke-miterlimit:10;stroke-opacity:1;stroke-dasharray:none"
       id="path16041" />
  </g>
  <g
     id="g16043"
     transform="matrix(0.3,0,0,0.3,-37.625953,-248.2313)">
    <path
       inkscape:connector-curvature="0"
       d="m 162,955 -1,1 1,1 1,-1 -1,-1 z"
       style="fill:none;stroke:#000000;stroke-width:3;stroke-linecap:round;stroke-linejoin:round;stroke-miterlimit:10;stroke-opacity:1;stroke-dasharray:none"
       id="path16045" />
  </g>
  <g
     id="g16047"
     transform="matrix(0.3,0,0,0.3,-37.625953,-248.2313)">
    <path
       inkscape:connector-curvature="0"
       d="m 177,934 -3,1 -2,3 -1,6 0,3 1,6 2,3 3,1 2,0 4,-1 2,-3 1,-6 0,-3 -1,-6 -2,-3 -4,-1 -2,0 z"
       style="fill:none;stroke:#000000;stroke-width:3;stroke-linecap:round;stroke-linejoin:round;stroke-miterlimit:10;stroke-opacity:1;stroke-dasharray:none"
       id="path16049" />
  </g>
  <g
     id="g16051"
     transform="matrix(0.3,0,0,0.3,-37.625953,-248.2313)">
    <path
       inkscape:connector-curvature="0"
       d="m 195,934 12,0 -7,9 3,0 3,1 1,1 1,3 0,2 -1,4 -3,2 -3,1 -3,0 -3,-1 -1,-1 -2,-2"
       style="fill:none;stroke:#000000;stroke-width:3;stroke-linecap:round;stroke-linejoin:round;stroke-miterlimit:10;stroke-opacity:1;stroke-dasharray:none"
       id="path16053" />
  </g>
  <g
     transform="matrix(0.3,0,0,0.3,-37.625953,-248.2313)"
     id="g16789">
    <path
       inkscape:connector-curvature="0"
       id="path16791"
       style="fill:none;stroke:#000000;stroke-width:3;stroke-linecap:round;stroke-linejoin:round;stroke-miterlimit:10;stroke-opacity:1;stroke-dasharray:none"
       d="m 345,993 1,-6 m -80,459 -2,7 m 1,-419 1,5" />
  </g>
  <g
     transform="matrix(0.3,0,0,0.3,-37.625953,-248.2313)"
     id="g16793">
    <path
       inkscape:connector-curvature="0"
       id="path16795"
       style="fill:none;stroke:#000000;stroke-width:3;stroke-linecap:round;stroke-linejoin:round;stroke-miterlimit:10;stroke-opacity:1;stroke-dasharray:none"
       d="m 278,906 -4,1 -3,3 -1,4" />
  </g>
  <g
     transform="matrix(0.3,0,0,0.3,-37.625953,-248.2313)"
     id="g16797">
    <path
       inkscape:connector-curvature="0"
       id="path16799"
       style="fill:none;stroke:#000000;stroke-width:3;stroke-linecap:round;stroke-linejoin:round;stroke-miterlimit:10;stroke-opacity:1;stroke-dasharray:none"
       d="m 270,1474 1,4 3,3 4,1" />
  </g>
  <g
     transform="matrix(0.3,0,0,0.3,-37.625953,-248.2313)"
     id="g16801">
    <path
       inkscape:connector-curvature="0"
       id="path16803"
       style="fill:none;stroke:#000000;stroke-width:3;stroke-linecap:round;stroke-linejoin:round;stroke-miterlimit:10;stroke-opacity:1;stroke-dasharray:none"
       d="m 278,1104 -4,1 -3,3 -1,4" />
  </g>
  <g
     transform="matrix(0.3,0,0,0.3,-37.625953,-248.2313)"
     id="g16805">
    <path
       inkscape:connector-curvature="0"
       id="path16807"
       style="fill:none;stroke:#000000;stroke-width:3;stroke-linecap:round;stroke-linejoin:round;stroke-miterlimit:10;stroke-opacity:1;stroke-dasharray:none"
       d="m 270,1050 1,5 3,3 4,1" />
  </g>
  <g
     transform="matrix(0.3,0,0,0.3,-37.625953,-248.2313)"
     id="g16809">
    <path
       inkscape:connector-curvature="0"
       id="path16811"
       style="fill:none;stroke:#000000;stroke-width:3;stroke-linecap:round;stroke-linejoin:round;stroke-miterlimit:10;stroke-opacity:1;stroke-dasharray:none"
       d="m 341,949 -4,1 -2,5" />
  </g>
  <g
     transform="matrix(0.3,0,0,0.3,-37.625953,-248.2313)"
     id="g16813">
    <path
       inkscape:connector-curvature="0"
       id="path16815"
       style="fill:none;stroke:#000000;stroke-width:3;stroke-linecap:round;stroke-linejoin:round;stroke-miterlimit:10;stroke-opacity:1;stroke-dasharray:none"
       d="m 335,1178 2,4 4,2" />
  </g>
  <g
     transform="matrix(0.3,0,0,0.3,-37.625953,-248.2313)"
     id="g16817">
    <path
       inkscape:connector-curvature="0"
       id="path16819"
       style="fill:none;stroke:#000000;stroke-width:3;stroke-linecap:round;stroke-linejoin:round;stroke-miterlimit:10;stroke-opacity:1;stroke-dasharray:none"
       d="m 270,1280 2,4 4,2" />
  </g>
  <g
     transform="matrix(0.3,0,0,0.3,-37.625953,-248.2313)"
     id="g16821">
    <path
       inkscape:connector-curvature="0"
       id="path16823"
       style="fill:none;stroke:#000000;stroke-width:3;stroke-linecap:round;stroke-linejoin:round;stroke-miterlimit:10;stroke-opacity:1;stroke-dasharray:none"
       d="m 276,1331 -4,2 -2,4" />
  </g>
  <g
     transform="matrix(0.3,0,0,0.3,-37.625953,-248.2313)"
     id="g16825">
    <path
       inkscape:connector-curvature="0"
       id="path16827"
       style="fill:none;stroke:#000000;stroke-width:3;stroke-linecap:round;stroke-linejoin:round;stroke-miterlimit:10;stroke-opacity:1;stroke-dasharray:none"
       d="m 295,1331 4,-2 2,-4" />
  </g>
  <g
     transform="matrix(0.3,0,0,0.3,-37.625953,-248.2313)"
     id="g16829">
    <path
       inkscape:connector-curvature="0"
       id="path16831"
       style="fill:none;stroke:#000000;stroke-width:3;stroke-linecap:round;stroke-linejoin:round;stroke-miterlimit:10;stroke-opacity:1;stroke-dasharray:none"
       d="m 301,1292 -2,-4 -4,-2" />
  </g>
  <g
     transform="matrix(0.3,0,0,0.3,-37.625953,-248.2313)"
     id="g16833">
    <path
       inkscape:connector-curvature="0"
       id="path16835"
       style="fill:none;stroke:#000000;stroke-width:3;stroke-linecap:round;stroke-linejoin:round;stroke-miterlimit:10;stroke-opacity:1;stroke-dasharray:none"
       d="m 295,1104 4,-2 2,-4" />
  </g>
  <g
     transform="matrix(0.3,0,0,0.3,-37.625953,-248.2313)"
     id="g16837">
    <path
       inkscape:connector-curvature="0"
       id="path16839"
       style="fill:none;stroke:#000000;stroke-width:3;stroke-linecap:round;stroke-linejoin:round;stroke-miterlimit:10;stroke-opacity:1;stroke-dasharray:none"
       d="m 301,1064 -2,-3 -4,-2" />
  </g>
  <g
     transform="matrix(0.3,0,0,0.3,-37.625953,-248.2313)"
     id="g16841">
    <path
       inkscape:connector-curvature="0"
       id="path16843"
       style="fill:none;stroke:#000000;stroke-width:3;stroke-linecap:round;stroke-linejoin:round;stroke-miterlimit:10;stroke-opacity:1;stroke-dasharray:none"
       d="m 321,1379 -2,-3 -4,-2" />
  </g>
  <g
     transform="matrix(0.3,0,0,0.3,-37.625953,-248.2313)"
     id="g16845">
    <path
       inkscape:connector-curvature="0"
       id="path16847"
       style="fill:none;stroke:#000000;stroke-width:3;stroke-linecap:round;stroke-linejoin:round;stroke-miterlimit:10;stroke-opacity:1;stroke-dasharray:none"
       d="m 315,1436 4,-2 2,-4" />
  </g>
  <g
     transform="matrix(0.3,0,0,0.3,-37.625953,-248.2313)"
     id="g16849">
    <path
       inkscape:connector-curvature="0"
       id="path16851"
       style="fill:none;stroke:#000000;stroke-width:3;stroke-linecap:round;stroke-linejoin:round;stroke-miterlimit:10;stroke-opacity:1;stroke-dasharray:none"
       d="m 289,1430 1,4 4,2" />
  </g>
  <g
     transform="matrix(0.3,0,0,0.3,-37.625953,-248.2313)"
     id="g16853">
    <path
       inkscape:connector-curvature="0"
       id="path16855"
       style="fill:none;stroke:#000000;stroke-width:3;stroke-linecap:round;stroke-linejoin:round;stroke-miterlimit:10;stroke-opacity:1;stroke-dasharray:none"
       d="m 294,1374 -4,2 -1,3" />
  </g>
  <g
     transform="matrix(0.3,0,0,0.3,-37.625953,-248.2313)"
     id="g16857">
    <path
       inkscape:connector-curvature="0"
       id="path16859"
       style="fill:none;stroke:#000000;stroke-width:3;stroke-linecap:round;stroke-linejoin:round;stroke-miterlimit:10;stroke-opacity:1;stroke-dasharray:none"
       d="m 289,1238 1,4 4,1" />
  </g>
  <g
     transform="matrix(0.3,0,0,0.3,-37.625953,-248.2313)"
     id="g16861">
    <path
       inkscape:connector-curvature="0"
       id="path16863"
       style="fill:none;stroke:#000000;stroke-width:3;stroke-linecap:round;stroke-linejoin:round;stroke-miterlimit:10;stroke-opacity:1;stroke-dasharray:none"
       d="m 315,1243 4,-1 2,-4" />
  </g>
  <g
     transform="matrix(0.3,0,0,0.3,-37.625953,-248.2313)"
     id="g16865">
    <path
       inkscape:connector-curvature="0"
       id="path16867"
       style="fill:none;stroke:#000000;stroke-width:3;stroke-linecap:round;stroke-linejoin:round;stroke-miterlimit:10;stroke-opacity:1;stroke-dasharray:none"
       d="m 321,1161 -2,-4 -4,-2" />
  </g>
  <g
     transform="matrix(0.3,0,0,0.3,-37.625953,-248.2313)"
     id="g16869">
    <path
       inkscape:connector-curvature="0"
       id="path16871"
       style="fill:none;stroke:#000000;stroke-width:3;stroke-linecap:round;stroke-linejoin:round;stroke-miterlimit:10;stroke-opacity:1;stroke-dasharray:none"
       d="m 294,1155 -4,2 -1,4" />
  </g>
  <g
     transform="matrix(0.3,0,0,0.3,-37.625953,-248.2313)"
     id="g16873">
    <path
       inkscape:connector-curvature="0"
       id="path16875"
       style="fill:none;stroke:#000000;stroke-width:3;stroke-linecap:round;stroke-linejoin:round;stroke-miterlimit:10;stroke-opacity:1;stroke-dasharray:none"
       d="m 294,945 -4,2 -1,4" />
  </g>
  <g
     transform="matrix(0.3,0,0,0.3,-37.625953,-248.2313)"
     id="g16877">
    <path
       inkscape:connector-curvature="0"
       id="path16879"
       style="fill:none;stroke:#000000;stroke-width:3;stroke-linecap:round;stroke-linejoin:round;stroke-miterlimit:10;stroke-opacity:1;stroke-dasharray:none"
       d="m 289,1002 1,4 4,1" />
  </g>
  <g
     transform="matrix(0.3,0,0,0.3,-37.625953,-248.2313)"
     id="g16881">
    <path
       inkscape:connector-curvature="0"
       id="path16883"
       style="fill:none;stroke:#000000;stroke-width:3;stroke-linecap:round;stroke-linejoin:round;stroke-miterlimit:10;stroke-opacity:1;stroke-dasharray:none"
       d="m 321,951 -2,-4 -4,-2" />
  </g>
  <g
     transform="matrix(0.3,0,0,0.3,-37.625953,-248.2313)"
     id="g16885">
    <path
       inkscape:connector-curvature="0"
       id="path16887"
       style="fill:none;stroke:#000000;stroke-width:3;stroke-linecap:round;stroke-linejoin:round;stroke-miterlimit:10;stroke-opacity:1;stroke-dasharray:none"
       d="m 315,1007 4,-1 2,-4" />
  </g>
  <g
     transform="matrix(0.3,0,0,0.3,-37.625953,-248.2313)"
     id="g16889">
    <path
       inkscape:connector-curvature="0"
       id="path16891"
       style="fill:none;stroke:#000000;stroke-width:3;stroke-linecap:round;stroke-linejoin:round;stroke-miterlimit:10;stroke-opacity:1;stroke-dasharray:none"
       d="m 266,980 0,-23 m -1,23 0,-23 m 24,11 23,0 m -70,0 -115,0" />
  </g>
  <path
     inkscape:connector-curvature="0"
     id="path16893"
     style="fill:#000000;fill-opacity:1;fill-rule:evenodd;stroke:none"
     d="m 49.074047,40.9687 0,2.4 -6.9,-1.2 6.9,-1.2 z" />
  <path
     inkscape:connector-curvature="0"
     id="path16895"
     style="fill:#000000;fill-opacity:1;fill-rule:evenodd;stroke:none"
     d="m 34.974047,40.9687 0,2.4 6.9,-1.2 -6.9,-1.2 z" />
  <g
     transform="matrix(0.3,0,0,0.3,-37.625953,-248.2313)"
     id="g16897">
    <path
       inkscape:connector-curvature="0"
       id="path16899"
       style="fill:none;stroke:#000000;stroke-width:3;stroke-linecap:round;stroke-linejoin:round;stroke-miterlimit:10;stroke-opacity:1;stroke-dasharray:none"
       d="m 145,934 -4,1 -2,3 -1,6 0,3 1,6 2,3 4,1 2,0 3,-1 2,-3 1,-6 0,-3 -1,-6 -2,-3 -3,-1 -2,0 z" />
  </g>
  <g
     transform="matrix(0.3,0,0,0.3,-37.625953,-248.2313)"
     id="g16901">
    <path
       inkscape:connector-curvature="0"
       id="path16903"
       style="fill:none;stroke:#000000;stroke-width:3;stroke-linecap:round;stroke-linejoin:round;stroke-miterlimit:10;stroke-opacity:1;stroke-dasharray:none"
       d="m 162,955 -1,1 1,1 1,-1 -1,-1 z" />
  </g>
  <g
     transform="matrix(0.3,0,0,0.3,-37.625953,-248.2313)"
     id="g16905">
    <path
       inkscape:connector-curvature="0"
       id="path16907"
       style="fill:none;stroke:#000000;stroke-width:3;stroke-linecap:round;stroke-linejoin:round;stroke-miterlimit:10;stroke-opacity:1;stroke-dasharray:none"
       d="m 177,934 -3,1 -2,3 -1,6 0,3 1,6 2,3 3,1 2,0 4,-1 2,-3 1,-6 0,-3 -1,-6 -2,-3 -4,-1 -2,0 z" />
  </g>
  <g
     transform="matrix(0.3,0,0,0.3,-37.625953,-248.2313)"
     id="g16909">
    <path
       inkscape:connector-curvature="0"
       id="path16911"
       style="fill:none;stroke:#000000;stroke-width:3;stroke-linecap:round;stroke-linejoin:round;stroke-miterlimit:10;stroke-opacity:1;stroke-dasharray:none"
       d="m 195,934 12,0 -7,9 3,0 3,1 1,1 1,3 0,2 -1,4 -3,2 -3,1 -3,0 -3,-1 -1,-1 -2,-2" />
  </g>
</svg>
