<?xml version="1.0" encoding="UTF-8" standalone="no"?>
<!-- Created with Inkscape (http://www.inkscape.org/) -->

<svg
   xmlns:dc="http://purl.org/dc/elements/1.1/"
   xmlns:cc="http://creativecommons.org/ns#"
   xmlns:rdf="http://www.w3.org/1999/02/22-rdf-syntax-ns#"
   xmlns:svg="http://www.w3.org/2000/svg"
   xmlns="http://www.w3.org/2000/svg"
   xmlns:sodipodi="http://sodipodi.sourceforge.net/DTD/sodipodi-0.dtd"
   xmlns:inkscape="http://www.inkscape.org/namespaces/inkscape"
   version="1.1"
   width="25.829575"
   height="196.83183"
   id="svg16767"
   inkscape:version="0.48.4 r9939"
   sodipodi:docname="right.svg">
  <sodipodi:namedview
     pagecolor="#ffffff"
     bordercolor="#666666"
     borderopacity="1"
     objecttolerance="10"
     gridtolerance="10"
     guidetolerance="10"
     inkscape:pageopacity="0"
     inkscape:pageshadow="2"
     inkscape:window-width="836"
     inkscape:window-height="1010"
     id="namedview17873"
     showgrid="false"
     fit-margin-top="0"
     fit-margin-left="0"
     fit-margin-right="0"
     fit-margin-bottom="0"
     inkscape:zoom="1.1990907"
     inkscape:cx="-141.78818"
     inkscape:cy="136.76881"
     inkscape:window-x="840"
     inkscape:window-y="36"
     inkscape:window-maximized="0"
     inkscape:current-layer="svg16767" />
  <defs
     id="defs16769" />
  <metadata
     id="metadata16772">
    <rdf:RDF>
      <cc:Work
         rdf:about="">
        <dc:format>image/svg+xml</dc:format>
        <dc:type
           rdf:resource="http://purl.org/dc/dcmitype/StillImage" />
        <dc:title />
      </cc:Work>
    </rdf:RDF>
  </metadata>
  <path
     inkscape:connector-curvature="0"
     style="fill:none;stroke:#000000;stroke-width:0.90000004;stroke-linecap:round;stroke-linejoin:round;stroke-miterlimit:10;stroke-opacity:1;stroke-dasharray:none"
     d="m 0.47404544,196.37543 24.00000056,0"
     id="path16976" />
  <path
     inkscape:connector-curvature="0"
     style="fill:none;stroke:#000000;stroke-width:0.90000004;stroke-linecap:round;stroke-linejoin:round;stroke-miterlimit:10;stroke-opacity:1;stroke-dasharray:none"
     d="m 25.074046,194.57543 -0.6,0"
     id="path16974" />
  <path
     inkscape:connector-curvature="0"
     style="fill:none;stroke:#000000;stroke-width:0.90000004;stroke-linecap:round;stroke-linejoin:round;stroke-miterlimit:10;stroke-opacity:1;stroke-dasharray:none"
     d="m 25.074046,192.77543 -0.6,0"
     id="path16972" />
  <path
     inkscape:connector-curvature="0"
     style="fill:none;stroke:#000000;stroke-width:0.90000004;stroke-linecap:round;stroke-linejoin:round;stroke-miterlimit:10;stroke-opacity:1;stroke-dasharray:none"
     d="m 25.074046,189.17543 -0.6,0"
     id="path16970" />
  <path
     inkscape:connector-curvature="0"
     style="fill:none;stroke:#000000;stroke-width:0.90000004;stroke-linecap:round;stroke-linejoin:round;stroke-miterlimit:10;stroke-opacity:1;stroke-dasharray:none"
     d="m 25.074046,187.67543 -0.6,0"
     id="path16968" />
  <path
     inkscape:connector-curvature="0"
     style="fill:none;stroke:#000000;stroke-width:0.90000004;stroke-linecap:round;stroke-linejoin:round;stroke-miterlimit:10;stroke-opacity:1;stroke-dasharray:none"
     d="m 24.474046,185.87543 0.3,0"
     id="path16966" />
  <path
     inkscape:connector-curvature="0"
     style="fill:none;stroke:#000000;stroke-width:0.90000004;stroke-linecap:round;stroke-linejoin:round;stroke-miterlimit:10;stroke-opacity:1;stroke-dasharray:none"
     d="m 14.574046,177.47543 4.2,0"
     id="path16964" />
  <path
     inkscape:connector-curvature="0"
     style="fill:none;stroke:#000000;stroke-width:0.90000004;stroke-linecap:round;stroke-linejoin:round;stroke-miterlimit:10;stroke-opacity:1;stroke-dasharray:none"
     d="m 19.974046,176.57543 -6,0"
     id="path16962" />
  <path
     inkscape:connector-curvature="0"
     style="fill:none;stroke:#000000;stroke-width:0.90000004;stroke-linecap:round;stroke-linejoin:round;stroke-miterlimit:10;stroke-opacity:1;stroke-dasharray:none"
     d="m 13.974046,151.97543 6,0"
     id="path16960" />
  <path
     inkscape:connector-curvature="0"
     style="fill:none;stroke:#000000;stroke-width:0.90000004;stroke-linecap:round;stroke-linejoin:round;stroke-miterlimit:10;stroke-opacity:1;stroke-dasharray:none"
     d="m 18.774046,151.07543 -4.2,0"
     id="path16958" />
  <path
     inkscape:connector-curvature="0"
     style="fill:none;stroke:#000000;stroke-width:0.90000004;stroke-linecap:round;stroke-linejoin:round;stroke-miterlimit:10;stroke-opacity:1;stroke-dasharray:none"
     d="m 21.474046,130.97543 -5.1,0"
     id="path16956" />
  <path
     inkscape:connector-curvature="0"
     style="fill:none;stroke:#000000;stroke-width:0.90000004;stroke-linecap:round;stroke-linejoin:round;stroke-miterlimit:10;stroke-opacity:1;stroke-dasharray:none"
     d="m 24.474046,130.37543 -7.8,0"
     id="path16954" />
  <path
     inkscape:connector-curvature="0"
     style="fill:none;stroke:#000000;stroke-width:0.90000004;stroke-linecap:round;stroke-linejoin:round;stroke-miterlimit:10;stroke-opacity:1;stroke-dasharray:none"
     d="m 14.574046,0.47542839 -1.2,3.00000001"
     id="path16952" />
  <path
     inkscape:connector-curvature="0"
     style="fill:none;stroke:#000000;stroke-width:0.90000004;stroke-linecap:round;stroke-linejoin:round;stroke-miterlimit:10;stroke-opacity:1;stroke-dasharray:none"
     d="m 16.674046,0.47542839 -1.2,3.00000001"
     id="path16950" />
  <path
     inkscape:connector-curvature="0"
     style="fill:none;stroke:#000000;stroke-width:0.90000004;stroke-linecap:round;stroke-linejoin:round;stroke-miterlimit:10;stroke-opacity:1;stroke-dasharray:none"
     d="m 20.874046,34.375428 -2.1,2.1"
     id="path16948" />
  <path
     inkscape:connector-curvature="0"
     style="fill:none;stroke:#000000;stroke-width:0.90000004;stroke-linecap:round;stroke-linejoin:round;stroke-miterlimit:10;stroke-opacity:1;stroke-dasharray:none"
     d="m 14.574046,128.57543 2.1,1.8"
     id="path16946" />
  <path
     inkscape:connector-curvature="0"
     style="fill:none;stroke:#000000;stroke-width:0.90000004;stroke-linecap:round;stroke-linejoin:round;stroke-miterlimit:10;stroke-opacity:1;stroke-dasharray:none"
     d="m 24.474046,112.07543 -7.8,0"
     id="path16944" />
  <path
     inkscape:connector-curvature="0"
     style="fill:none;stroke:#000000;stroke-width:0.90000004;stroke-linecap:round;stroke-linejoin:round;stroke-miterlimit:10;stroke-opacity:1;stroke-dasharray:none"
     d="m 21.474046,111.47543 -5.1,0"
     id="path16942" />
  <path
     inkscape:connector-curvature="0"
     style="fill:none;stroke:#000000;stroke-width:0.90000004;stroke-linecap:round;stroke-linejoin:round;stroke-miterlimit:10;stroke-opacity:1;stroke-dasharray:none"
     d="m 0.47404544,196.37543 0,-195.90000161"
     id="path16940" />
  <path
     inkscape:connector-curvature="0"
     style="fill:none;stroke:#000000;stroke-width:0.90000004;stroke-linecap:round;stroke-linejoin:round;stroke-miterlimit:10;stroke-opacity:1;stroke-dasharray:none"
     d="m 2.5740454,12.475428 0,-11.99999961"
     id="path16938" />
  <path
     inkscape:connector-curvature="0"
     style="fill:none;stroke:#000000;stroke-width:0.90000004;stroke-linecap:round;stroke-linejoin:round;stroke-miterlimit:10;stroke-opacity:1;stroke-dasharray:none"
     d="m 3.7740454,196.37543 0,-183.900002"
     id="path16936" />
  <path
     inkscape:connector-curvature="0"
     style="fill:none;stroke:#000000;stroke-width:0.90000004;stroke-linecap:round;stroke-linejoin:round;stroke-miterlimit:10;stroke-opacity:1;stroke-dasharray:none"
     d="m 12.774046,70.375429 0,23.1"
     id="path16934" />
  <path
     inkscape:connector-curvature="0"
     style="fill:none;stroke:#000000;stroke-width:0.90000004;stroke-linecap:round;stroke-linejoin:round;stroke-miterlimit:10;stroke-opacity:1;stroke-dasharray:none"
     d="m 12.774046,152.87543 0,22.8"
     id="path16932" />
  <path
     inkscape:connector-curvature="0"
     style="fill:none;stroke:#000000;stroke-width:0.90000004;stroke-linecap:round;stroke-linejoin:round;stroke-miterlimit:10;stroke-opacity:1;stroke-dasharray:none"
     d="m 13.374046,177.17543 0,-25.8"
     id="path16930" />
  <path
     inkscape:connector-curvature="0"
     style="fill:none;stroke:#000000;stroke-width:0.90000004;stroke-linecap:round;stroke-linejoin:round;stroke-miterlimit:10;stroke-opacity:1;stroke-dasharray:none"
     d="m 13.374046,94.675429 0,-25.5"
     id="path16928" />
  <path
     inkscape:connector-curvature="0"
     style="fill:none;stroke:#000000;stroke-width:0.90000004;stroke-linecap:round;stroke-linejoin:round;stroke-miterlimit:10;stroke-opacity:1;stroke-dasharray:none"
     d="m 13.374046,8.5754284 0,-5.1"
     id="path16926" />
  <path
     inkscape:connector-curvature="0"
     style="fill:none;stroke:#000000;stroke-width:0.90000004;stroke-linecap:round;stroke-linejoin:round;stroke-miterlimit:10;stroke-opacity:1;stroke-dasharray:none"
     d="m 13.974046,176.57543 0,-24.6"
     id="path16924" />
  <path
     inkscape:connector-curvature="0"
     style="fill:none;stroke:#000000;stroke-width:0.90000004;stroke-linecap:round;stroke-linejoin:round;stroke-miterlimit:10;stroke-opacity:1;stroke-dasharray:none"
     d="m 13.974046,94.075429 0,-24.3"
     id="path16922" />
  <path
     inkscape:connector-curvature="0"
     style="fill:none;stroke:#000000;stroke-width:0.90000004;stroke-linecap:round;stroke-linejoin:round;stroke-miterlimit:10;stroke-opacity:1;stroke-dasharray:none"
     d="m 14.574046,113.27543 0,15.9"
     id="path16920" />
  <path
     inkscape:connector-curvature="0"
     style="fill:none;stroke:#000000;stroke-width:0.90000004;stroke-linecap:round;stroke-linejoin:round;stroke-miterlimit:10;stroke-opacity:1;stroke-dasharray:none"
     d="m 15.474046,3.4754284 0,8.9999996"
     id="path16918" />
  <path
     inkscape:connector-curvature="0"
     style="fill:none;stroke:#000000;stroke-width:0.90000004;stroke-linecap:round;stroke-linejoin:round;stroke-miterlimit:10;stroke-opacity:1;stroke-dasharray:none"
     d="m 16.674046,176.57543 0,-24.6"
     id="path16916" />
  <path
     inkscape:connector-curvature="0"
     style="fill:none;stroke:#000000;stroke-width:0.90000004;stroke-linecap:round;stroke-linejoin:round;stroke-miterlimit:10;stroke-opacity:1;stroke-dasharray:none"
     d="m 16.674046,94.075429 0,-24.3"
     id="path10913" />
  <g
     id="g10915"
     transform="matrix(0.3,0,0,0.3,-413.22595,-248.22457)">
    <path
       inkscape:connector-curvature="0"
       d="m 1422,1132 -2,0 m 0,-12 2,0 m -1,22 1,0 m 4,3 14,0 m 4,-4 -20,0 m 14,275 0,-82 m 0,-193 0,-81 m 2,-126 0,66 m 4,416 0,-82 m 0,-193 0,-81 m 2,353 0,-76 m 0,-198 0,-77 m 4,-233 0,40 m 0,58 0,15 m 3,-113 0,17 m 0,23 0,58 m 2,547 0,-204 m 0,-77 0,-178 m 4,467 0,-555 m 1,107 0,-43 m 1,462 0,23 m 1,-647 0,98 m -40,184 -2,0 m 2,-22 -2,1 m 0,9 2,0 m 4,108 7,-6 m -11,-133 -2,0 m 0,10 2,-1 m -2,-13 2,0 m -2,-1 2,0 m 2,-3 20,0 m -4,-3 -14,0 m 24,-228 8,40 m 2,131 -1,0 m 0,-2 -12,0 m 13,-7 -1,0 m -19,0 7,7 m -61,-146 4,4 m 50,86 19,0 m -12,-15 15,0 m -83,-58 83,0 m -33,-13 -39,0 m -11,-2 7,0 m 0,-15 36,0 m -43,-2 7,0 m -7,-8 83,0"
       style="fill:none;stroke:#000000;stroke-width:3;stroke-linecap:round;stroke-linejoin:round;stroke-miterlimit:10;stroke-opacity:1;stroke-dasharray:none"
       id="path10917" />
  </g>
  <g
     id="g11235"
     transform="matrix(0.3,0,0,0.3,-413.22595,-248.22457)">
    <path
       inkscape:connector-curvature="0"
       d="m 1461,1453 -2,-7 m 0,-407 1,-5"
       style="fill:none;stroke:#000000;stroke-width:3;stroke-linecap:round;stroke-linejoin:round;stroke-miterlimit:10;stroke-opacity:1;stroke-dasharray:none"
       id="path11237" />
  </g>
  <g
     id="g11239"
     transform="matrix(0.3,0,0,0.3,-413.22595,-248.22457)">
    <path
       inkscape:connector-curvature="0"
       d="m 1455,1015 -1,-4 -3,-3 -4,-2"
       style="fill:none;stroke:#000000;stroke-width:3;stroke-linecap:round;stroke-linejoin:round;stroke-miterlimit:10;stroke-opacity:1;stroke-dasharray:none"
       id="path11241" />
  </g>
  <g
     id="g11243"
     transform="matrix(0.3,0,0,0.3,-413.22595,-248.22457)">
    <path
       inkscape:connector-curvature="0"
       d="m 1447,1482 4,-1 3,-3 1,-4"
       style="fill:none;stroke:#000000;stroke-width:3;stroke-linecap:round;stroke-linejoin:round;stroke-miterlimit:10;stroke-opacity:1;stroke-dasharray:none"
       id="path11245" />
  </g>
  <g
     id="g11247"
     transform="matrix(0.3,0,0,0.3,-413.22595,-248.22457)">
    <path
       inkscape:connector-curvature="0"
       d="m 1447,927 -5,2 -2,5"
       style="fill:none;stroke:#000000;stroke-width:3;stroke-linecap:round;stroke-linejoin:round;stroke-miterlimit:10;stroke-opacity:1;stroke-dasharray:none"
       id="path11249" />
  </g>
  <g
     id="g11251"
     transform="matrix(0.3,0,0,0.3,-413.22595,-248.22457)">
    <path
       inkscape:connector-curvature="0"
       d="m 1440,1000 2,4 5,2"
       style="fill:none;stroke:#000000;stroke-width:3;stroke-linecap:round;stroke-linejoin:round;stroke-miterlimit:10;stroke-opacity:1;stroke-dasharray:none"
       id="path11253" />
  </g>
  <g
     id="g11255"
     transform="matrix(0.3,0,0,0.3,-413.22595,-248.22457)">
    <path
       inkscape:connector-curvature="0"
       d="m 1449,1199 4,-2 2,-4"
       style="fill:none;stroke:#000000;stroke-width:3;stroke-linecap:round;stroke-linejoin:round;stroke-miterlimit:10;stroke-opacity:1;stroke-dasharray:none"
       id="path11257" />
  </g>
  <g
     id="g11259"
     transform="matrix(0.3,0,0,0.3,-413.22595,-248.22457)">
    <path
       inkscape:connector-curvature="0"
       d="m 1455,1270 -2,-5 -4,-1"
       style="fill:none;stroke:#000000;stroke-width:3;stroke-linecap:round;stroke-linejoin:round;stroke-miterlimit:10;stroke-opacity:1;stroke-dasharray:none"
       id="path11261" />
  </g>
  <g
     id="g11263"
     transform="matrix(0.3,0,0,0.3,-413.22595,-248.22457)">
    <path
       inkscape:connector-curvature="0"
       d="m 1432,1199 -4,2 -2,4"
       style="fill:none;stroke:#000000;stroke-width:3;stroke-linecap:round;stroke-linejoin:round;stroke-miterlimit:10;stroke-opacity:1;stroke-dasharray:none"
       id="path11265" />
  </g>
  <g
     id="g11267"
     transform="matrix(0.3,0,0,0.3,-413.22595,-248.22457)">
    <path
       inkscape:connector-curvature="0"
       d="m 1426,1258 2,4 4,2"
       style="fill:none;stroke:#000000;stroke-width:3;stroke-linecap:round;stroke-linejoin:round;stroke-miterlimit:10;stroke-opacity:1;stroke-dasharray:none"
       id="path11269" />
  </g>
  <g
     id="g11271"
     transform="matrix(0.3,0,0,0.3,-413.22595,-248.22457)">
    <path
       inkscape:connector-curvature="0"
       d="m 1426,1057 -4,1 -2,4"
       style="fill:none;stroke:#000000;stroke-width:3;stroke-linecap:round;stroke-linejoin:round;stroke-miterlimit:10;stroke-opacity:1;stroke-dasharray:none"
       id="path11273" />
  </g>
  <g
     id="g11275"
     transform="matrix(0.3,0,0,0.3,-413.22595,-248.22457)">
    <path
       inkscape:connector-curvature="0"
       d="m 1420,1139 2,4 4,2"
       style="fill:none;stroke:#000000;stroke-width:3;stroke-linecap:round;stroke-linejoin:round;stroke-miterlimit:10;stroke-opacity:1;stroke-dasharray:none"
       id="path11277" />
  </g>
  <g
     id="g11279"
     transform="matrix(0.3,0,0,0.3,-413.22595,-248.22457)">
    <path
       inkscape:connector-curvature="0"
       d="m 1440,1145 4,-2 2,-4"
       style="fill:none;stroke:#000000;stroke-width:3;stroke-linecap:round;stroke-linejoin:round;stroke-miterlimit:10;stroke-opacity:1;stroke-dasharray:none"
       id="path11281" />
  </g>
  <g
     id="g11283"
     transform="matrix(0.3,0,0,0.3,-413.22595,-248.22457)">
    <path
       inkscape:connector-curvature="0"
       d="m 1446,1062 -2,-4 -4,-1"
       style="fill:none;stroke:#000000;stroke-width:3;stroke-linecap:round;stroke-linejoin:round;stroke-miterlimit:10;stroke-opacity:1;stroke-dasharray:none"
       id="path11285" />
  </g>
  <g
     id="g11287"
     transform="matrix(0.3,0,0,0.3,-413.22595,-248.22457)">
    <path
       inkscape:connector-curvature="0"
       d="m 1420,1413 2,4 4,2"
       style="fill:none;stroke:#000000;stroke-width:3;stroke-linecap:round;stroke-linejoin:round;stroke-miterlimit:10;stroke-opacity:1;stroke-dasharray:none"
       id="path11289" />
  </g>
  <g
     id="g11291"
     transform="matrix(0.3,0,0,0.3,-413.22595,-248.22457)">
    <path
       inkscape:connector-curvature="0"
       d="m 1440,1419 4,-2 2,-4"
       style="fill:none;stroke:#000000;stroke-width:3;stroke-linecap:round;stroke-linejoin:round;stroke-miterlimit:10;stroke-opacity:1;stroke-dasharray:none"
       id="path11293" />
  </g>
  <g
     id="g11295"
     transform="matrix(0.3,0,0,0.3,-413.22595,-248.22457)">
    <path
       inkscape:connector-curvature="0"
       d="m 1426,1331 -4,2 -2,4"
       style="fill:none;stroke:#000000;stroke-width:3;stroke-linecap:round;stroke-linejoin:round;stroke-miterlimit:10;stroke-opacity:1;stroke-dasharray:none"
       id="path11297" />
  </g>
  <g
     id="g11299"
     transform="matrix(0.3,0,0,0.3,-413.22595,-248.22457)">
    <path
       inkscape:connector-curvature="0"
       d="m 1446,1337 -2,-4 -4,-2"
       style="fill:none;stroke:#000000;stroke-width:3;stroke-linecap:round;stroke-linejoin:round;stroke-miterlimit:10;stroke-opacity:1;stroke-dasharray:none"
       id="path11301" />
  </g>
</svg>
