  0
SECTION
  2
HEADER
  9
$ACADVER
  1
AC1009
  9
$EXTMIN
 10
0.0
 20
0.0
 30
0.0
  9
$EXTMAX
 10
1000.0
 20
1000.0
 30
0.0
  9
$FILLMODE
 70
 0
  9
$SPLFRAME
 70
 1
  0
ENDSEC
  0
SECTION
  2
TABLES
  0
TABLE
  2
LAYER
 70
1
  0
LAYER
  2
0
 70
     0
 62
     7
  6
CONTINUOUS
  0
ENDTAB
  0
ENDSEC
  0
SECTION
  2
ENTITIES
  0
LINE
  8
0
 62
     0
 10
4.03627
 20
0.19706
 30
0.0
 11
4.05419
 21
0.0137804
 31
0.0
  0
LINE
  8
0
 62
     0
 10
4.05419
 20
0.0137804
 30
0.0
 11
3.3569
 21
0.0592557
 31
0.0
  0
LINE
  8
0
 62
     0
 10
3.3569
 20
0.0592557
 30
0.0
 11
3.2191
 21
0.333485
 31
0.0
  0
LINE
  8
0
 62
     0
 10
3.2191
 20
0.333485
 30
0.0
 11
0.527787
 21
0.338998
 31
0.0
  0
LINE
  8
0
 62
     0
 10
0.527787
 20
0.338998
 30
0.0
 11
0.373447
 21
0.424438
 31
0.0
  0
LINE
  8
0
 62
     0
 10
0.373447
 20
0.424438
 30
0.0
 11
0.3514
 21
0.538812
 31
0.0
  0
LINE
  8
0
 62
     0
 10
0.3514
 20
0.538812
 30
0.0
 11
0.523656
 21
0.576019
 31
0.0
  0
LINE
  8
0
 62
     0
 10
0.523656
 20
0.576019
 30
0.0
 11
0.654569
 21
0.573264
 31
0.0
  0
LINE
  8
0
 62
     0
 10
0.654569
 20
0.573264
 30
0.0
 11
1.99126
 21
0.573264
 31
0.0
  0
LINE
  8
0
 62
     0
 10
1.99126
 20
0.573264
 30
0.0
 11
2.14009
 21
0.607716
 31
0.0
  0
LINE
  8
0
 62
     0
 10
2.14009
 20
0.607716
 30
0.0
 11
2.25309
 21
0.578778
 31
0.0
  0
LINE
  8
0
 62
     0
 10
2.25309
 20
0.578778
 30
0.0
 11
2.5287
 21
0.653189
 31
0.0
  0
LINE
  8
0
 62
     0
 10
2.5287
 20
0.653189
 30
0.0
 11
2.55075
 21
0.596692
 31
0.0
  0
LINE
  8
0
 62
     0
 10
2.55075
 20
0.596692
 30
0.0
 11
3.01377
 21
0.607716
 31
0.0
  0
LINE
  8
0
 62
     0
 10
3.01377
 20
0.607716
 30
0.0
 11
3.01377
 21
0.990808
 31
0.0
  0
LINE
  8
0
 62
     0
 10
3.01377
 20
0.990808
 30
0.0
 11
2.95727
 21
1.10932
 31
0.0
  0
LINE
  8
0
 62
     0
 10
2.95727
 20
1.10932
 30
0.0
 11
2.81947
 21
1.21405
 31
0.0
  0
LINE
  8
0
 62
     0
 10
2.81947
 20
1.21405
 30
0.0
 11
2.49149
 21
1.29398
 31
0.0
  0
LINE
  8
0
 62
     0
 10
2.49149
 20
1.29398
 30
0.0
 11
2.24758
 21
1.38493
 31
0.0
  0
LINE
  8
0
 62
     0
 10
2.24758
 20
1.38493
 30
0.0
 11
0.591178
 21
1.29398
 31
0.0
  0
LINE
  8
0
 62
     0
 10
0.591178
 20
1.29398
 30
0.0
 11
0.511253
 21
1.16858
 31
0.0
  0
LINE
  8
0
 62
     0
 10
0.511253
 20
1.16858
 30
0.0
 11
0.402389
 21
1.15617
 31
0.0
  0
LINE
  8
0
 62
     0
 10
0.402389
 20
1.15617
 30
0.0
 11
0.21084
 21
1.24024
 31
0.0
  0
LINE
  8
0
 62
     0
 10
0.21084
 20
1.24024
 30
0.0
 11
0.0992188
 21
1.28846
 31
0.0
  0
LINE
  8
0
 62
     0
 10
0.0992188
 20
1.28846
 30
0.0
 11
0.0440972
 21
1.36977
 31
0.0
  0
LINE
  8
0
 62
     0
 10
0.0440972
 20
1.36977
 30
0.0
 11
0.0192925
 21
1.45934
 31
0.0
  0
LINE
  8
0
 62
     0
 10
0.0192925
 20
1.45934
 30
0.0
 11
0.232888
 21
1.46072
 31
0.0
  0
LINE
  8
0
 62
     0
 10
0.232888
 20
1.46072
 30
0.0
 11
0.418924
 21
1.45383
 31
0.0
  0
LINE
  8
0
 62
     0
 10
0.418924
 20
1.45383
 30
0.0
 11
2.00229
 21
1.65916
 31
0.0
  0
LINE
  8
0
 62
     0
 10
2.00229
 20
1.65916
 30
0.0
 11
2.4474
 21
1.65916
 31
0.0
  0
LINE
  8
0
 62
     0
 10
2.4474
 20
1.65916
 30
0.0
 11
3.40238
 21
1.47588
 31
0.0
  0
LINE
  8
0
 62
     0
 10
3.40238
 20
1.47588
 30
0.0
 11
3.44785
 21
1.38493
 31
0.0
  0
LINE
  8
0
 62
     0
 10
3.44785
 20
1.38493
 30
0.0
 11
3.50435
 21
1.37942
 31
0.0
  0
LINE
  8
0
 62
     0
 10
3.50435
 20
1.37942
 30
0.0
 11
3.51675
 21
1.08727
 31
0.0
  0
LINE
  8
0
 62
     0
 10
3.51675
 20
1.08727
 30
0.0
 11
3.43958
 21
1.04042
 31
0.0
  0
LINE
  8
0
 62
     0
 10
3.43958
 20
1.04042
 30
0.0
 11
3.4258
 21
0.932931
 31
0.0
  0
LINE
  8
0
 62
     0
 10
3.4258
 20
0.932931
 30
0.0
 11
3.55671
 21
0.785481
 31
0.0
  0
LINE
  8
0
 62
     0
 10
3.55671
 20
0.785481
 30
0.0
 11
3.5512
 21
0.327973
 31
0.0
  0
LINE
  8
0
 62
     0
 10
3.5512
 20
0.327973
 30
0.0
 11
3.64765
 21
0.230132
 31
0.0
  0
LINE
  8
0
 62
     0
 10
3.64765
 20
0.230132
 30
0.0
 11
3.87092
 21
0.216352
 31
0.0
  0
LINE
  8
0
 62
     0
 10
3.87092
 20
0.216352
 30
0.0
 11
4.03627
 21
0.19706
 31
0.0
  0
ENDSEC
  0
EOF
