solid OpenSCAD_Model
  facet normal -1 0 0
    outer loop
      vertex -15.25 -1 0.1
      vertex -15.25 -1 1.9
      vertex -15.25 0 0.1
    endloop
  endfacet
  facet normal -1 0 0
    outer loop
      vertex -15.25 0 0.1
      vertex -15.25 -1 1.9
      vertex -15.25 0 1.9
    endloop
  endfacet
  facet normal 0 -1 0
    outer loop
      vertex -13.825 -1 0.122792
      vertex -15.25 -1 0.1
      vertex -12.825 -1 0.1
    endloop
  endfacet
  facet normal 0 -1 0
    outer loop
      vertex -13.825 -1 0.122792
      vertex -13.825 -1 1.051
      vertex -15.25 -1 1.9
    endloop
  endfacet
  facet normal 0 -1 0
    outer loop
      vertex -15.25 -1 1.9
      vertex -15.25 -1 0.1
      vertex -13.825 -1 0.122792
    endloop
  endfacet
  facet normal 0 -1 0
    outer loop
      vertex -13.815 -1 1.051
      vertex -15.25 -1 1.9
      vertex -13.825 -1 1.051
    endloop
  endfacet
  facet normal 0 -1 0
    outer loop
      vertex -13.815 -1 1.65
      vertex -15.25 -1 1.9
      vertex -13.815 -1 1.051
    endloop
  endfacet
  facet normal 0 -1 0
    outer loop
      vertex -12.825 -1 1.65
      vertex -15.25 -1 1.9
      vertex -13.815 -1 1.65
    endloop
  endfacet
  facet normal 0 -1 0
    outer loop
      vertex -12.825 -1 1.9
      vertex -15.25 -1 1.9
      vertex -12.825 -1 1.65
    endloop
  endfacet
  facet normal 0 -1 0
    outer loop
      vertex -12.825 -1 0.122792
      vertex -13.825 -1 0.122792
      vertex -12.825 -1 0.1
    endloop
  endfacet
  facet normal 0 0 -1
    outer loop
      vertex -15.25 -1 0.1
      vertex -15.25 0 0.1
      vertex -12.825 -1 0.1
    endloop
  endfacet
  facet normal 0 0 -1
    outer loop
      vertex -12.825 -1 0.1
      vertex -15.25 0 0.1
      vertex -12.825 0 0.1
    endloop
  endfacet
  facet normal 0 1 0
    outer loop
      vertex -15.25 0 0.1
      vertex -15.25 0 1.9
      vertex -12.825 0 0.1
    endloop
  endfacet
  facet normal 0 1 0
    outer loop
      vertex -12.825 0 1.65
      vertex -15.25 0 1.9
      vertex -12.825 0 1.9
    endloop
  endfacet
  facet normal 0 1 0
    outer loop
      vertex -12.825 0 0.1
      vertex -15.25 0 1.9
      vertex -12.825 0 0.35
    endloop
  endfacet
  facet normal 0 1 0
    outer loop
      vertex -12.825 0 1.65
      vertex -12.815 0 1.65
      vertex -12.825 0 0.35
    endloop
  endfacet
  facet normal 0 1 0
    outer loop
      vertex -12.825 0 1.65
      vertex -12.825 0 0.35
      vertex -15.25 0 1.9
    endloop
  endfacet
  facet normal 0 1 0
    outer loop
      vertex -12.825 0 0.35
      vertex -12.815 0 1.65
      vertex -12.815 0 0.35
    endloop
  endfacet
  facet normal 0 0 1
    outer loop
      vertex -15.25 0 1.9
      vertex -15.25 -1 1.9
      vertex -12.825 -1 1.9
    endloop
  endfacet
  facet normal 0 0 1
    outer loop
      vertex -12.825 0 1.9
      vertex -15.25 0 1.9
      vertex -12.825 -1 1.9
    endloop
  endfacet
  facet normal 1 0 0
    outer loop
      vertex -12.825 -1 1.9
      vertex -12.825 -1 1.65
      vertex -12.825 0 1.65
    endloop
  endfacet
  facet normal 1 0 0
    outer loop
      vertex -12.825 0 1.9
      vertex -12.825 -1 1.9
      vertex -12.825 0 1.65
    endloop
  endfacet
  facet normal 0 0 1
    outer loop
      vertex -13.815 -1 1.65
      vertex -13.815 -3.4 1.65
      vertex -12.815 -3.4 1.65
    endloop
  endfacet
  facet normal 0 0 1
    outer loop
      vertex -12.825 -1 1.65
      vertex -13.815 -1 1.65
      vertex -12.815 -3.4 1.65
    endloop
  endfacet
  facet normal 0 0 1
    outer loop
      vertex -12.815 0 1.65
      vertex -12.825 -1 1.65
      vertex -12.815 -3.4 1.65
    endloop
  endfacet
  facet normal 0 0 1
    outer loop
      vertex -12.825 0 1.65
      vertex -12.825 -1 1.65
      vertex -12.815 0 1.65
    endloop
  endfacet
  facet normal -1 0 0
    outer loop
      vertex -13.815 -3.183 0.903
      vertex -13.815 -3.4 1.65
      vertex -13.815 -3.048 1.051
    endloop
  endfacet
  facet normal -1 0 0
    outer loop
      vertex -13.815 -3.4 0.35
      vertex -13.815 -3.4 1.65
      vertex -13.815 -3.183 0.903
    endloop
  endfacet
  facet normal -1 0 0
    outer loop
      vertex -13.815 -2.537 0.608
      vertex -13.815 -1.51776 0.35
      vertex -13.815 -2.678 0.628
    endloop
  endfacet
  facet normal -1 0 0
    outer loop
      vertex -13.815 -3.4 0.35
      vertex -13.815 -3.172 0.768
      vertex -13.815 -3.102 0.721
    endloop
  endfacet
  facet normal -1 0 0
    outer loop
      vertex -13.815 -3.4 0.35
      vertex -13.815 -3.102 0.721
      vertex -13.815 -1.51776 0.35
    endloop
  endfacet
  facet normal -1 0 0
    outer loop
      vertex -13.815 -3.102 0.721
      vertex -13.815 -2.873 0.673
      vertex -13.815 -1.51776 0.35
    endloop
  endfacet
  facet normal -1 0 0
    outer loop
      vertex -13.815 -2.873 0.673
      vertex -13.815 -2.678 0.628
      vertex -13.815 -1.51776 0.35
    endloop
  endfacet
  facet normal -1 0 0
    outer loop
      vertex -13.815 -1.984 0.591
      vertex -13.815 -1.51776 0.35
      vertex -13.815 -2.336 0.597
    endloop
  endfacet
  facet normal -1 0 0
    outer loop
      vertex -13.815 -2.537 0.608
      vertex -13.815 -2.336 0.597
      vertex -13.815 -1.51776 0.35
    endloop
  endfacet
  facet normal -1 0 0
    outer loop
      vertex -13.815 -3.172 0.768
      vertex -13.815 -3.4 0.35
      vertex -13.815 -3.183 0.903
    endloop
  endfacet
  facet normal -1 0 0
    outer loop
      vertex -13.815 -1.51776 0.35
      vertex -13.815 -1.695 0.574
      vertex -13.815 -1.604 0.544
    endloop
  endfacet
  facet normal -1 0 0
    outer loop
      vertex -13.815 -1.51776 0.35
      vertex -13.815 -1.604 0.544
      vertex -13.815 -1.519 0.398
    endloop
  endfacet
  facet normal -1 0 0
    outer loop
      vertex -13.815 -3.048 1.051
      vertex -13.815 -3.4 1.65
      vertex -13.815 -1 1.65
    endloop
  endfacet
  facet normal -1 0 0
    outer loop
      vertex -13.815 -3.048 1.051
      vertex -13.815 -1 1.65
      vertex -13.815 -1 1.051
    endloop
  endfacet
  facet normal -1 0 0
    outer loop
      vertex -13.815 -1.695 0.574
      vertex -13.815 -1.51776 0.35
      vertex -13.815 -1.984 0.591
    endloop
  endfacet
  facet normal 2.22045e-16 4.93038e-32 1
    outer loop
      vertex -13.815 -1 1.051
      vertex -13.825 -1 1.051
      vertex -13.825 -3.048 1.051
    endloop
  endfacet
  facet normal 2.22045e-16 4.93038e-32 1
    outer loop
      vertex -13.815 -3.048 1.051
      vertex -13.815 -1 1.051
      vertex -13.825 -3.048 1.051
    endloop
  endfacet
  facet normal -1 -2.22045e-16 2.22045e-16
    outer loop
      vertex -13.825 -1 0.122792
      vertex -13.825 -1.512 0.128
      vertex -13.825 -1 1.051
    endloop
  endfacet
  facet normal -1 -2.22045e-16 2.22045e-16
    outer loop
      vertex -13.825 -1 1.051
      vertex -13.825 -1.512 0.128
      vertex -13.825 -1.519 0.398
    endloop
  endfacet
  facet normal -1 -2.22045e-16 2.22045e-16
    outer loop
      vertex -13.825 -1 1.051
      vertex -13.825 -1.519 0.398
      vertex -13.825 -1.604 0.544
    endloop
  endfacet
  facet normal -1 -2.22045e-16 2.22045e-16
    outer loop
      vertex -13.825 -1.604 0.544
      vertex -13.825 -1.695 0.574
      vertex -13.825 -1 1.051
    endloop
  endfacet
  facet normal -1 -2.22045e-16 2.22045e-16
    outer loop
      vertex -13.825 -1.695 0.574
      vertex -13.825 -1.984 0.591
      vertex -13.825 -1 1.051
    endloop
  endfacet
  facet normal -1 -2.22045e-16 2.22045e-16
    outer loop
      vertex -13.825 -1.984 0.591
      vertex -13.825 -2.336 0.597
      vertex -13.825 -1 1.051
    endloop
  endfacet
  facet normal -1 -2.22045e-16 2.22045e-16
    outer loop
      vertex -13.825 -1 1.051
      vertex -13.825 -2.336 0.597
      vertex -13.825 -2.537 0.608
    endloop
  endfacet
  facet normal -1 -2.22045e-16 2.22045e-16
    outer loop
      vertex -13.825 -1 1.051
      vertex -13.825 -2.537 0.608
      vertex -13.825 -2.678 0.628
    endloop
  endfacet
  facet normal -1 -2.22045e-16 2.22045e-16
    outer loop
      vertex -13.825 -1 1.051
      vertex -13.825 -2.678 0.628
      vertex -13.825 -2.873 0.673
    endloop
  endfacet
  facet normal -1 -2.22045e-16 2.22045e-16
    outer loop
      vertex -13.825 -2.873 0.673
      vertex -13.825 -3.102 0.721
      vertex -13.825 -1 1.051
    endloop
  endfacet
  facet normal -1 -2.22045e-16 2.22045e-16
    outer loop
      vertex -13.825 -1 1.051
      vertex -13.825 -3.102 0.721
      vertex -13.825 -3.172 0.768
    endloop
  endfacet
  facet normal -1 -2.22045e-16 2.22045e-16
    outer loop
      vertex -13.825 -1 1.051
      vertex -13.825 -3.172 0.768
      vertex -13.825 -3.183 0.903
    endloop
  endfacet
  facet normal -1 -2.22045e-16 2.22045e-16
    outer loop
      vertex -13.825 -1 1.051
      vertex -13.825 -3.183 0.903
      vertex -13.825 -3.048 1.051
    endloop
  endfacet
  facet normal -2.19775e-16 -0.0101716 -0.999948
    outer loop
      vertex -13.825 -1 0.122792
      vertex -12.825 -1 0.122792
      vertex -13.825 -1.512 0.128
    endloop
  endfacet
  facet normal -2.19775e-16 -0.0101716 -0.999948
    outer loop
      vertex 12.825 -0.234 0.115
      vertex -12.825 -1 0.122792
      vertex -12.825 -0.234 0.115
    endloop
  endfacet
  facet normal -2.19775e-16 -0.0101716 -0.999948
    outer loop
      vertex -13.825 -1.512 0.128
      vertex -12.825 -1 0.122792
      vertex 12.825 -0.234 0.115
    endloop
  endfacet
  facet normal -2.19775e-16 -0.0101716 -0.999948
    outer loop
      vertex -13.825 -1.512 0.128
      vertex 12.825 -0.234 0.115
      vertex 12.825 -1 0.122792
    endloop
  endfacet
  facet normal -2.19775e-16 -0.0101716 -0.999948
    outer loop
      vertex -13.825 -1.512 0.128
      vertex 12.825 -1 0.122792
      vertex 13.825 -1 0.122792
    endloop
  endfacet
  facet normal -2.19775e-16 -0.0101716 -0.999948
    outer loop
      vertex -13.825 -1.512 0.128
      vertex 13.825 -1 0.122792
      vertex 13.825 -1.512 0.128
    endloop
  endfacet
  facet normal 1 0 0
    outer loop
      vertex -12.825 -1 0.122792
      vertex -12.825 -1 0.1
      vertex -12.825 0 0.1
    endloop
  endfacet
  facet normal 1 0 0
    outer loop
      vertex -12.825 -0.234 0.115
      vertex -12.825 -1 0.122792
      vertex -12.825 0 0.1
    endloop
  endfacet
  facet normal 1 0 0
    outer loop
      vertex -12.825 0 0.35
      vertex -12.825 -0.018 0.327
      vertex -12.825 0 0.1
    endloop
  endfacet
  facet normal 1 0 0
    outer loop
      vertex -12.825 -0.018 0.327
      vertex -12.825 -0.128 0.132
      vertex -12.825 0 0.1
    endloop
  endfacet
  facet normal 1 0 0
    outer loop
      vertex -12.825 -0.128 0.132
      vertex -12.825 -0.234 0.115
      vertex -12.825 0 0.1
    endloop
  endfacet
  facet normal 1 0 0
    outer loop
      vertex -12.825 -0.017939 0.35
      vertex -12.825 -0.018 0.327
      vertex -12.825 0 0.35
    endloop
  endfacet
  facet normal 0 0 -1
    outer loop
      vertex -12.825 -0.017939 0.35
      vertex -12.825 0 0.35
      vertex -12.815 -0.017939 0.35
    endloop
  endfacet
  facet normal 0 0 -1
    outer loop
      vertex -12.815 -0.017939 0.35
      vertex -12.825 0 0.35
      vertex -12.815 0 0.35
    endloop
  endfacet
  facet normal 1 0 0
    outer loop
      vertex -12.815 -1.984 0.591
      vertex -12.815 -3.4 0.35
      vertex -12.815 -1.51776 0.35
    endloop
  endfacet
  facet normal 1 0 0
    outer loop
      vertex -12.815 -3.183 0.903
      vertex -12.815 -3.048 1.051
      vertex -12.815 -3.4 1.65
    endloop
  endfacet
  facet normal 1 0 0
    outer loop
      vertex -12.815 -1.604 0.544
      vertex -12.815 -1.695 0.574
      vertex -12.815 -1.519 0.398
    endloop
  endfacet
  facet normal 1 0 0
    outer loop
      vertex -12.815 -2.336 0.597
      vertex -12.815 -3.4 0.35
      vertex -12.815 -1.984 0.591
    endloop
  endfacet
  facet normal 1 0 0
    outer loop
      vertex -12.815 -2.537 0.608
      vertex -12.815 -3.4 0.35
      vertex -12.815 -2.336 0.597
    endloop
  endfacet
  facet normal 1 0 0
    outer loop
      vertex -12.815 -2.678 0.628
      vertex -12.815 -3.4 0.35
      vertex -12.815 -2.537 0.608
    endloop
  endfacet
  facet normal 1 0 0
    outer loop
      vertex -12.815 -2.873 0.673
      vertex -12.815 -3.4 0.35
      vertex -12.815 -2.678 0.628
    endloop
  endfacet
  facet normal 1 0 0
    outer loop
      vertex -12.815 -3.102 0.721
      vertex -12.815 -3.4 0.35
      vertex -12.815 -2.873 0.673
    endloop
  endfacet
  facet normal 1 0 0
    outer loop
      vertex -12.815 -3.172 0.768
      vertex -12.815 -3.4 0.35
      vertex -12.815 -3.102 0.721
    endloop
  endfacet
  facet normal 1 0 0
    outer loop
      vertex -12.815 -3.4 1.65
      vertex -12.815 -3.4 0.35
      vertex -12.815 -3.172 0.768
    endloop
  endfacet
  facet normal 1 0 0
    outer loop
      vertex -12.815 -3.4 1.65
      vertex -12.815 -3.172 0.768
      vertex -12.815 -3.183 0.903
    endloop
  endfacet
  facet normal 1 0 0
    outer loop
      vertex -12.815 0 1.65
      vertex -12.815 -3.4 1.65
      vertex -12.815 -0.194 1.051
    endloop
  endfacet
  facet normal 1 0 0
    outer loop
      vertex -12.815 0 1.65
      vertex -12.815 -0.194 1.051
      vertex -12.815 -0.05 0.975
    endloop
  endfacet
  facet normal 1 0 0
    outer loop
      vertex -12.815 0 1.65
      vertex -12.815 -0.05 0.975
      vertex -12.815 -0.021 0.898
    endloop
  endfacet
  facet normal 1 0 0
    outer loop
      vertex -12.815 0 0.35
      vertex -12.815 -0.021 0.898
      vertex -12.815 -0.017 0.704
    endloop
  endfacet
  facet normal 1 0 0
    outer loop
      vertex -12.815 0 0.35
      vertex -12.815 -0.017 0.704
      vertex -12.815 -0.017939 0.35
    endloop
  endfacet
  facet normal 1 0 0
    outer loop
      vertex -12.815 0 1.65
      vertex -12.815 -0.021 0.898
      vertex -12.815 0 0.35
    endloop
  endfacet
  facet normal 1 0 0
    outer loop
      vertex -12.815 -1.695 0.574
      vertex -12.815 -1.51776 0.35
      vertex -12.815 -1.519 0.398
    endloop
  endfacet
  facet normal 1 0 0
    outer loop
      vertex -12.815 -1.695 0.574
      vertex -12.815 -1.984 0.591
      vertex -12.815 -1.51776 0.35
    endloop
  endfacet
  facet normal 1 0 0
    outer loop
      vertex -12.815 -3.048 1.051
      vertex -12.815 -0.194 1.051
      vertex -12.815 -3.4 1.65
    endloop
  endfacet
  facet normal 0 -1 0
    outer loop
      vertex -13.815 -3.4 1.65
      vertex -13.815 -3.4 0.35
      vertex -12.815 -3.4 0.35
    endloop
  endfacet
  facet normal 0 -1 0
    outer loop
      vertex -12.815 -3.4 1.65
      vertex -13.815 -3.4 1.65
      vertex -12.815 -3.4 0.35
    endloop
  endfacet
  facet normal 0 0 -1
    outer loop
      vertex -13.815 -3.4 0.35
      vertex -13.815 -1.51776 0.35
      vertex -12.815 -3.4 0.35
    endloop
  endfacet
  facet normal 0 0 -1
    outer loop
      vertex -12.815 -3.4 0.35
      vertex -13.815 -1.51776 0.35
      vertex -12.815 -1.51776 0.35
    endloop
  endfacet
  facet normal 2.16215e-16 -0.999664 -0.0259172
    outer loop
      vertex -12.815 -1.51776 0.35
      vertex -13.825 -1.512 0.128
      vertex 13.825 -1.512 0.128
    endloop
  endfacet
  facet normal 2.16215e-16 -0.999664 -0.0259172
    outer loop
      vertex -13.815 -1.51776 0.35
      vertex -13.815 -1.519 0.398
      vertex -13.825 -1.519 0.398
    endloop
  endfacet
  facet normal 2.16215e-16 -0.999664 -0.0259172
    outer loop
      vertex 13.825 -1.519 0.398
      vertex -12.815 -1.519 0.398
      vertex 13.825 -1.512 0.128
    endloop
  endfacet
  facet normal 2.16215e-16 -0.999664 -0.0259172
    outer loop
      vertex -13.815 -1.51776 0.35
      vertex -13.825 -1.512 0.128
      vertex -12.815 -1.51776 0.35
    endloop
  endfacet
  facet normal 2.16215e-16 -0.999664 -0.0259172
    outer loop
      vertex -13.825 -1.519 0.398
      vertex -13.825 -1.512 0.128
      vertex -13.815 -1.51776 0.35
    endloop
  endfacet
  facet normal 2.16215e-16 -0.999664 -0.0259172
    outer loop
      vertex -12.815 -1.519 0.398
      vertex -12.815 -1.51776 0.35
      vertex 13.825 -1.512 0.128
    endloop
  endfacet
  facet normal 8.01744e-17 -0.864208 -0.503135
    outer loop
      vertex -13.825 -1.604 0.544
      vertex -13.825 -1.519 0.398
      vertex -13.815 -1.519 0.398
    endloop
  endfacet
  facet normal 8.01744e-17 -0.864208 -0.503135
    outer loop
      vertex -13.815 -1.604 0.544
      vertex -13.825 -1.604 0.544
      vertex -13.815 -1.519 0.398
    endloop
  endfacet
  facet normal -1.4136e-16 -0.313095 -0.949722
    outer loop
      vertex -13.825 -1.604 0.544
      vertex -13.815 -1.604 0.544
      vertex -13.825 -1.695 0.574
    endloop
  endfacet
  facet normal -1.4136e-16 -0.313095 -0.949722
    outer loop
      vertex -13.825 -1.695 0.574
      vertex -13.815 -1.604 0.544
      vertex -13.815 -1.695 0.574
    endloop
  endfacet
  facet normal -2.08623e-16 -0.058722 -0.998274
    outer loop
      vertex -13.825 -1.695 0.574
      vertex -13.815 -1.695 0.574
      vertex -13.825 -1.984 0.591
    endloop
  endfacet
  facet normal -2.08623e-16 -0.058722 -0.998274
    outer loop
      vertex -13.825 -1.984 0.591
      vertex -13.815 -1.695 0.574
      vertex -13.815 -1.984 0.591
    endloop
  endfacet
  facet normal -2.18228e-16 -0.017043 -0.999855
    outer loop
      vertex -13.825 -1.984 0.591
      vertex -13.815 -1.984 0.591
      vertex -13.825 -2.336 0.597
    endloop
  endfacet
  facet normal -2.18228e-16 -0.017043 -0.999855
    outer loop
      vertex -13.825 -2.336 0.597
      vertex -13.815 -1.984 0.591
      vertex -13.815 -2.336 0.597
    endloop
  endfacet
  facet normal -2.09579e-16 -0.0546446 -0.998506
    outer loop
      vertex -13.825 -2.336 0.597
      vertex -13.815 -2.336 0.597
      vertex -13.825 -2.537 0.608
    endloop
  endfacet
  facet normal -2.09579e-16 -0.0546446 -0.998506
    outer loop
      vertex -13.825 -2.537 0.608
      vertex -13.815 -2.336 0.597
      vertex -13.815 -2.537 0.608
    endloop
  endfacet
  facet normal -1.8866e-16 -0.140438 -0.990089
    outer loop
      vertex -13.825 -2.537 0.608
      vertex -13.815 -2.537 0.608
      vertex -13.825 -2.678 0.628
    endloop
  endfacet
  facet normal -1.8866e-16 -0.140438 -0.990089
    outer loop
      vertex -13.825 -2.678 0.628
      vertex -13.815 -2.537 0.608
      vertex -13.815 -2.678 0.628
    endloop
  endfacet
  facet normal -1.66429e-16 -0.22486 -0.974391
    outer loop
      vertex -13.825 -2.678 0.628
      vertex -13.815 -2.678 0.628
      vertex -13.825 -2.873 0.673
    endloop
  endfacet
  facet normal -1.66429e-16 -0.22486 -0.974391
    outer loop
      vertex -13.825 -2.873 0.673
      vertex -13.815 -2.678 0.628
      vertex -13.815 -2.873 0.673
    endloop
  endfacet
  facet normal -1.7177e-16 -0.205149 -0.978731
    outer loop
      vertex -13.825 -2.873 0.673
      vertex -13.815 -2.873 0.673
      vertex -13.825 -3.102 0.721
    endloop
  endfacet
  facet normal -1.7177e-16 -0.205149 -0.978731
    outer loop
      vertex -13.825 -3.102 0.721
      vertex -13.815 -2.873 0.673
      vertex -13.815 -3.102 0.721
    endloop
  endfacet
  facet normal -6.05709e-17 -0.557434 -0.830221
    outer loop
      vertex -13.825 -3.102 0.721
      vertex -13.815 -3.102 0.721
      vertex -13.825 -3.172 0.768
    endloop
  endfacet
  facet normal -6.05709e-17 -0.557434 -0.830221
    outer loop
      vertex -13.825 -3.172 0.768
      vertex -13.815 -3.102 0.721
      vertex -13.815 -3.172 0.768
    endloop
  endfacet
  facet normal 2.03278e-16 -0.996697 -0.0812123
    outer loop
      vertex -13.825 -3.183 0.903
      vertex -13.825 -3.172 0.768
      vertex -13.815 -3.172 0.768
    endloop
  endfacet
  facet normal 2.03278e-16 -0.996697 -0.0812123
    outer loop
      vertex -13.815 -3.183 0.903
      vertex -13.825 -3.183 0.903
      vertex -13.815 -3.172 0.768
    endloop
  endfacet
  facet normal 3.13688e-16 -0.73881 0.673914
    outer loop
      vertex -13.825 -3.048 1.051
      vertex -13.825 -3.183 0.903
      vertex -13.815 -3.183 0.903
    endloop
  endfacet
  facet normal 3.13688e-16 -0.73881 0.673914
    outer loop
      vertex -13.815 -3.048 1.051
      vertex -13.825 -3.048 1.051
      vertex -13.815 -3.183 0.903
    endloop
  endfacet
  facet normal 1 2.22045e-16 -2.22045e-16
    outer loop
      vertex 13.825 -1.512 0.128
      vertex 13.825 -1 0.122792
      vertex 13.825 -1 1.051
    endloop
  endfacet
  facet normal 1 2.22045e-16 -2.22045e-16
    outer loop
      vertex 13.825 -1.519 0.398
      vertex 13.825 -1.512 0.128
      vertex 13.825 -1 1.051
    endloop
  endfacet
  facet normal 1 2.22045e-16 -2.22045e-16
    outer loop
      vertex 13.825 -2.336 0.597
      vertex 13.825 -1.984 0.591
      vertex 13.825 -3.048 1.051
    endloop
  endfacet
  facet normal 1 2.22045e-16 -2.22045e-16
    outer loop
      vertex 13.825 -2.678 0.628
      vertex 13.825 -2.537 0.608
      vertex 13.825 -3.183 0.903
    endloop
  endfacet
  facet normal 1 2.22045e-16 -2.22045e-16
    outer loop
      vertex 13.825 -3.172 0.768
      vertex 13.825 -2.873 0.673
      vertex 13.825 -3.183 0.903
    endloop
  endfacet
  facet normal 1 2.22045e-16 -2.22045e-16
    outer loop
      vertex 13.825 -2.873 0.673
      vertex 13.825 -2.678 0.628
      vertex 13.825 -3.183 0.903
    endloop
  endfacet
  facet normal 1 2.22045e-16 -2.22045e-16
    outer loop
      vertex 13.825 -3.183 0.903
      vertex 13.825 -2.537 0.608
      vertex 13.825 -3.048 1.051
    endloop
  endfacet
  facet normal 1 2.22045e-16 -2.22045e-16
    outer loop
      vertex 13.825 -2.537 0.608
      vertex 13.825 -2.336 0.597
      vertex 13.825 -3.048 1.051
    endloop
  endfacet
  facet normal 1 2.22045e-16 -2.22045e-16
    outer loop
      vertex 13.825 -3.048 1.051
      vertex 13.825 -1.984 0.591
      vertex 13.825 -1 1.051
    endloop
  endfacet
  facet normal 1 2.22045e-16 -2.22045e-16
    outer loop
      vertex 13.825 -1.984 0.591
      vertex 13.825 -1.695 0.574
      vertex 13.825 -1 1.051
    endloop
  endfacet
  facet normal 1 2.22045e-16 -2.22045e-16
    outer loop
      vertex 13.825 -1.695 0.574
      vertex 13.825 -1.604 0.544
      vertex 13.825 -1 1.051
    endloop
  endfacet
  facet normal 1 2.22045e-16 -2.22045e-16
    outer loop
      vertex 13.825 -1.604 0.544
      vertex 13.825 -1.519 0.398
      vertex 13.825 -1 1.051
    endloop
  endfacet
  facet normal 1 2.22045e-16 -2.22045e-16
    outer loop
      vertex 13.825 -3.102 0.721
      vertex 13.825 -2.873 0.673
      vertex 13.825 -3.172 0.768
    endloop
  endfacet
  facet normal 0 -1 0
    outer loop
      vertex 12.825 -1 0.122792
      vertex 12.825 -1 0.1
      vertex 15.25 -1 0.1
    endloop
  endfacet
  facet normal 0 -1 0
    outer loop
      vertex 13.825 -1 0.122792
      vertex 12.825 -1 0.122792
      vertex 15.25 -1 0.1
    endloop
  endfacet
  facet normal 0 -1 0
    outer loop
      vertex 12.825 -1 1.9
      vertex 12.825 -1 1.5
      vertex 15.25 -1 1.9
    endloop
  endfacet
  facet normal 0 -1 0
    outer loop
      vertex 12.825 -1 1.5
      vertex 13.815 -1 1.5
      vertex 15.25 -1 1.9
    endloop
  endfacet
  facet normal 0 -1 0
    outer loop
      vertex 13.815 -1 1.5
      vertex 13.815 -1 1.051
      vertex 15.25 -1 1.9
    endloop
  endfacet
  facet normal 0 -1 0
    outer loop
      vertex 13.815 -1 1.051
      vertex 13.825 -1 1.051
      vertex 15.25 -1 1.9
    endloop
  endfacet
  facet normal 0 -1 0
    outer loop
      vertex 15.25 -1 1.9
      vertex 13.825 -1 0.122792
      vertex 15.25 -1 0.1
    endloop
  endfacet
  facet normal 0 -1 0
    outer loop
      vertex 13.825 -1 1.051
      vertex 13.825 -1 0.122792
      vertex 15.25 -1 1.9
    endloop
  endfacet
  facet normal -1 0 0
    outer loop
      vertex 12.825 -1 0.1
      vertex 12.825 -1 0.122792
      vertex 12.825 0 0.1
    endloop
  endfacet
  facet normal -1 0 0
    outer loop
      vertex 12.825 0 0.1
      vertex 12.825 -1 0.122792
      vertex 12.825 -0.234 0.115
    endloop
  endfacet
  facet normal -1 0 0
    outer loop
      vertex 12.825 0 0.1
      vertex 12.825 -0.234 0.115
      vertex 12.825 -0.128 0.132
    endloop
  endfacet
  facet normal -1 0 0
    outer loop
      vertex 12.825 -0.128 0.132
      vertex 12.825 -0.018 0.327
      vertex 12.825 0 0.1
    endloop
  endfacet
  facet normal -1 0 0
    outer loop
      vertex 12.825 -0.018 0.327
      vertex 12.825 -0.0175411 0.5
      vertex 12.825 0 0.1
    endloop
  endfacet
  facet normal -1 0 0
    outer loop
      vertex 12.825 0 0.1
      vertex 12.825 -0.0175411 0.5
      vertex 12.825 0 0.5
    endloop
  endfacet
  facet normal -2.54405e-16 0.158354 -0.987382
    outer loop
      vertex -12.825 -0.234 0.115
      vertex -12.825 -0.128 0.132
      vertex 12.825 -0.234 0.115
    endloop
  endfacet
  facet normal -2.54405e-16 0.158354 -0.987382
    outer loop
      vertex 12.825 -0.234 0.115
      vertex -12.825 -0.128 0.132
      vertex 12.825 -0.128 0.132
    endloop
  endfacet
  facet normal -3.02491e-16 0.870978 -0.491321
    outer loop
      vertex -12.825 -0.128 0.132
      vertex -12.825 -0.018 0.327
      vertex 12.825 -0.128 0.132
    endloop
  endfacet
  facet normal -3.02491e-16 0.870978 -0.491321
    outer loop
      vertex 12.825 -0.128 0.132
      vertex -12.825 -0.018 0.327
      vertex 12.825 -0.018 0.327
    endloop
  endfacet
  facet normal -2.22633e-16 0.999996 -0.00265251
    outer loop
      vertex -12.825 -0.018 0.327
      vertex -12.825 -0.017939 0.35
      vertex 12.825 -0.018 0.327
    endloop
  endfacet
  facet normal -2.22633e-16 0.999996 -0.00265251
    outer loop
      vertex 12.825 -0.018 0.327
      vertex -12.825 -0.017939 0.35
      vertex -12.815 -0.017939 0.35
    endloop
  endfacet
  facet normal -2.22633e-16 0.999996 -0.00265251
    outer loop
      vertex 12.825 -0.018 0.327
      vertex -12.815 -0.017939 0.35
      vertex -12.815 -0.017 0.704
    endloop
  endfacet
  facet normal -2.22633e-16 0.999996 -0.00265251
    outer loop
      vertex 12.815 -0.0175411 0.5
      vertex -12.815 -0.017 0.704
      vertex 12.815 -0.017 0.704
    endloop
  endfacet
  facet normal -2.22633e-16 0.999996 -0.00265251
    outer loop
      vertex 12.825 -0.018 0.327
      vertex -12.815 -0.017 0.704
      vertex 12.815 -0.0175411 0.5
    endloop
  endfacet
  facet normal -2.22633e-16 0.999996 -0.00265251
    outer loop
      vertex 12.825 -0.0175411 0.5
      vertex 12.825 -0.018 0.327
      vertex 12.815 -0.0175411 0.5
    endloop
  endfacet
  facet normal -2.1742e-16 0.999788 0.0206142
    outer loop
      vertex -12.815 -0.021 0.898
      vertex 12.815 -0.021 0.898
      vertex -12.815 -0.017 0.704
    endloop
  endfacet
  facet normal -2.1742e-16 0.999788 0.0206142
    outer loop
      vertex -12.815 -0.017 0.704
      vertex 12.815 -0.021 0.898
      vertex 12.815 -0.017 0.704
    endloop
  endfacet
  facet normal -1.29535e-16 0.935829 0.352455
    outer loop
      vertex -12.815 -0.05 0.975
      vertex 12.815 -0.05 0.975
      vertex -12.815 -0.021 0.898
    endloop
  endfacet
  facet normal -1.29535e-16 0.935829 0.352455
    outer loop
      vertex -12.815 -0.021 0.898
      vertex 12.815 -0.05 0.975
      vertex 12.815 -0.021 0.898
    endloop
  endfacet
  facet normal 9.27316e-17 0.466759 0.884385
    outer loop
      vertex -12.815 -0.05 0.975
      vertex -12.815 -0.194 1.051
      vertex 12.815 -0.194 1.051
    endloop
  endfacet
  facet normal 9.27316e-17 0.466759 0.884385
    outer loop
      vertex 12.815 -0.05 0.975
      vertex -12.815 -0.05 0.975
      vertex 12.815 -0.194 1.051
    endloop
  endfacet
  facet normal 2.22045e-16 4.93038e-32 1
    outer loop
      vertex -12.815 -0.194 1.051
      vertex -12.815 -3.048 1.051
      vertex 12.815 -3.048 1.051
    endloop
  endfacet
  facet normal 2.22045e-16 4.93038e-32 1
    outer loop
      vertex 12.815 -0.194 1.051
      vertex -12.815 -0.194 1.051
      vertex 12.815 -3.048 1.051
    endloop
  endfacet
  facet normal 3.13688e-16 -0.73881 0.673914
    outer loop
      vertex -12.815 -3.048 1.051
      vertex -12.815 -3.183 0.903
      vertex 12.815 -3.183 0.903
    endloop
  endfacet
  facet normal 3.13688e-16 -0.73881 0.673914
    outer loop
      vertex 12.815 -3.048 1.051
      vertex -12.815 -3.048 1.051
      vertex 12.815 -3.183 0.903
    endloop
  endfacet
  facet normal 2.03278e-16 -0.996697 -0.0812123
    outer loop
      vertex 12.815 -3.183 0.903
      vertex -12.815 -3.183 0.903
      vertex -12.815 -3.172 0.768
    endloop
  endfacet
  facet normal 2.03278e-16 -0.996697 -0.0812123
    outer loop
      vertex 12.815 -3.172 0.768
      vertex 12.815 -3.183 0.903
      vertex -12.815 -3.172 0.768
    endloop
  endfacet
  facet normal -6.05709e-17 -0.557434 -0.830221
    outer loop
      vertex -12.815 -3.172 0.768
      vertex -12.815 -3.102 0.721
      vertex 12.815 -3.172 0.768
    endloop
  endfacet
  facet normal -6.05709e-17 -0.557434 -0.830221
    outer loop
      vertex 12.815 -3.172 0.768
      vertex -12.815 -3.102 0.721
      vertex 12.815 -3.102 0.721
    endloop
  endfacet
  facet normal -1.7177e-16 -0.205149 -0.978731
    outer loop
      vertex -12.815 -3.102 0.721
      vertex -12.815 -2.873 0.673
      vertex 12.815 -3.102 0.721
    endloop
  endfacet
  facet normal -1.7177e-16 -0.205149 -0.978731
    outer loop
      vertex 12.815 -3.102 0.721
      vertex -12.815 -2.873 0.673
      vertex 12.815 -2.873 0.673
    endloop
  endfacet
  facet normal -1.66429e-16 -0.22486 -0.974391
    outer loop
      vertex -12.815 -2.873 0.673
      vertex -12.815 -2.678 0.628
      vertex 12.815 -2.873 0.673
    endloop
  endfacet
  facet normal -1.66429e-16 -0.22486 -0.974391
    outer loop
      vertex 12.815 -2.873 0.673
      vertex -12.815 -2.678 0.628
      vertex 12.815 -2.678 0.628
    endloop
  endfacet
  facet normal -1.8866e-16 -0.140438 -0.990089
    outer loop
      vertex -12.815 -2.678 0.628
      vertex -12.815 -2.537 0.608
      vertex 12.815 -2.678 0.628
    endloop
  endfacet
  facet normal -1.8866e-16 -0.140438 -0.990089
    outer loop
      vertex 12.815 -2.678 0.628
      vertex -12.815 -2.537 0.608
      vertex 12.815 -2.537 0.608
    endloop
  endfacet
  facet normal -2.09579e-16 -0.0546446 -0.998506
    outer loop
      vertex -12.815 -2.537 0.608
      vertex -12.815 -2.336 0.597
      vertex 12.815 -2.537 0.608
    endloop
  endfacet
  facet normal -2.09579e-16 -0.0546446 -0.998506
    outer loop
      vertex 12.815 -2.537 0.608
      vertex -12.815 -2.336 0.597
      vertex 12.815 -2.336 0.597
    endloop
  endfacet
  facet normal -2.18228e-16 -0.017043 -0.999855
    outer loop
      vertex -12.815 -2.336 0.597
      vertex -12.815 -1.984 0.591
      vertex 12.815 -2.336 0.597
    endloop
  endfacet
  facet normal -2.18228e-16 -0.017043 -0.999855
    outer loop
      vertex 12.815 -2.336 0.597
      vertex -12.815 -1.984 0.591
      vertex 12.815 -1.984 0.591
    endloop
  endfacet
  facet normal -2.08623e-16 -0.058722 -0.998274
    outer loop
      vertex -12.815 -1.984 0.591
      vertex -12.815 -1.695 0.574
      vertex 12.815 -1.984 0.591
    endloop
  endfacet
  facet normal -2.08623e-16 -0.058722 -0.998274
    outer loop
      vertex 12.815 -1.984 0.591
      vertex -12.815 -1.695 0.574
      vertex 12.815 -1.695 0.574
    endloop
  endfacet
  facet normal -1.4136e-16 -0.313095 -0.949722
    outer loop
      vertex -12.815 -1.695 0.574
      vertex -12.815 -1.604 0.544
      vertex 12.815 -1.695 0.574
    endloop
  endfacet
  facet normal -1.4136e-16 -0.313095 -0.949722
    outer loop
      vertex 12.815 -1.695 0.574
      vertex -12.815 -1.604 0.544
      vertex 12.815 -1.604 0.544
    endloop
  endfacet
  facet normal 8.01744e-17 -0.864208 -0.503135
    outer loop
      vertex 12.815 -1.604 0.544
      vertex -12.815 -1.604 0.544
      vertex -12.815 -1.519 0.398
    endloop
  endfacet
  facet normal 8.01744e-17 -0.864208 -0.503135
    outer loop
      vertex 12.815 -1.57838 0.5
      vertex 12.815 -1.604 0.544
      vertex -12.815 -1.519 0.398
    endloop
  endfacet
  facet normal 8.01744e-17 -0.864208 -0.503135
    outer loop
      vertex 13.825 -1.604 0.544
      vertex 13.815 -1.604 0.544
      vertex 13.825 -1.519 0.398
    endloop
  endfacet
  facet normal 8.01744e-17 -0.864208 -0.503135
    outer loop
      vertex 13.815 -1.604 0.544
      vertex 13.815 -1.57838 0.5
      vertex 13.825 -1.519 0.398
    endloop
  endfacet
  facet normal 8.01744e-17 -0.864208 -0.503135
    outer loop
      vertex 13.825 -1.519 0.398
      vertex 12.815 -1.57838 0.5
      vertex -12.815 -1.519 0.398
    endloop
  endfacet
  facet normal 8.01744e-17 -0.864208 -0.503135
    outer loop
      vertex 13.815 -1.57838 0.5
      vertex 12.815 -1.57838 0.5
      vertex 13.825 -1.519 0.398
    endloop
  endfacet
  facet normal -1.4136e-16 -0.313095 -0.949722
    outer loop
      vertex 13.815 -1.695 0.574
      vertex 13.815 -1.604 0.544
      vertex 13.825 -1.695 0.574
    endloop
  endfacet
  facet normal -1.4136e-16 -0.313095 -0.949722
    outer loop
      vertex 13.825 -1.695 0.574
      vertex 13.815 -1.604 0.544
      vertex 13.825 -1.604 0.544
    endloop
  endfacet
  facet normal -2.08623e-16 -0.058722 -0.998274
    outer loop
      vertex 13.815 -1.984 0.591
      vertex 13.815 -1.695 0.574
      vertex 13.825 -1.984 0.591
    endloop
  endfacet
  facet normal -2.08623e-16 -0.058722 -0.998274
    outer loop
      vertex 13.825 -1.984 0.591
      vertex 13.815 -1.695 0.574
      vertex 13.825 -1.695 0.574
    endloop
  endfacet
  facet normal -2.18228e-16 -0.017043 -0.999855
    outer loop
      vertex 13.815 -2.336 0.597
      vertex 13.815 -1.984 0.591
      vertex 13.825 -2.336 0.597
    endloop
  endfacet
  facet normal -2.18228e-16 -0.017043 -0.999855
    outer loop
      vertex 13.825 -2.336 0.597
      vertex 13.815 -1.984 0.591
      vertex 13.825 -1.984 0.591
    endloop
  endfacet
  facet normal -2.09579e-16 -0.0546446 -0.998506
    outer loop
      vertex 13.815 -2.537 0.608
      vertex 13.815 -2.336 0.597
      vertex 13.825 -2.537 0.608
    endloop
  endfacet
  facet normal -2.09579e-16 -0.0546446 -0.998506
    outer loop
      vertex 13.825 -2.537 0.608
      vertex 13.815 -2.336 0.597
      vertex 13.825 -2.336 0.597
    endloop
  endfacet
  facet normal -1.8866e-16 -0.140438 -0.990089
    outer loop
      vertex 13.815 -2.678 0.628
      vertex 13.815 -2.537 0.608
      vertex 13.825 -2.678 0.628
    endloop
  endfacet
  facet normal -1.8866e-16 -0.140438 -0.990089
    outer loop
      vertex 13.825 -2.678 0.628
      vertex 13.815 -2.537 0.608
      vertex 13.825 -2.537 0.608
    endloop
  endfacet
  facet normal -1.66429e-16 -0.22486 -0.974391
    outer loop
      vertex 13.815 -2.873 0.673
      vertex 13.815 -2.678 0.628
      vertex 13.825 -2.873 0.673
    endloop
  endfacet
  facet normal -1.66429e-16 -0.22486 -0.974391
    outer loop
      vertex 13.825 -2.873 0.673
      vertex 13.815 -2.678 0.628
      vertex 13.825 -2.678 0.628
    endloop
  endfacet
  facet normal -1.7177e-16 -0.205149 -0.978731
    outer loop
      vertex 13.815 -3.102 0.721
      vertex 13.815 -2.873 0.673
      vertex 13.825 -3.102 0.721
    endloop
  endfacet
  facet normal -1.7177e-16 -0.205149 -0.978731
    outer loop
      vertex 13.825 -3.102 0.721
      vertex 13.815 -2.873 0.673
      vertex 13.825 -2.873 0.673
    endloop
  endfacet
  facet normal -6.05709e-17 -0.557434 -0.830221
    outer loop
      vertex 13.815 -3.172 0.768
      vertex 13.815 -3.102 0.721
      vertex 13.825 -3.172 0.768
    endloop
  endfacet
  facet normal -6.05709e-17 -0.557434 -0.830221
    outer loop
      vertex 13.825 -3.172 0.768
      vertex 13.815 -3.102 0.721
      vertex 13.825 -3.102 0.721
    endloop
  endfacet
  facet normal 2.03278e-16 -0.996697 -0.0812123
    outer loop
      vertex 13.825 -3.183 0.903
      vertex 13.815 -3.183 0.903
      vertex 13.815 -3.172 0.768
    endloop
  endfacet
  facet normal 2.03278e-16 -0.996697 -0.0812123
    outer loop
      vertex 13.825 -3.172 0.768
      vertex 13.825 -3.183 0.903
      vertex 13.815 -3.172 0.768
    endloop
  endfacet
  facet normal 3.13688e-16 -0.73881 0.673914
    outer loop
      vertex 13.815 -3.048 1.051
      vertex 13.815 -3.183 0.903
      vertex 13.825 -3.183 0.903
    endloop
  endfacet
  facet normal 3.13688e-16 -0.73881 0.673914
    outer loop
      vertex 13.825 -3.048 1.051
      vertex 13.815 -3.048 1.051
      vertex 13.825 -3.183 0.903
    endloop
  endfacet
  facet normal 2.22045e-16 4.93038e-32 1
    outer loop
      vertex 13.815 -1 1.051
      vertex 13.815 -3.048 1.051
      vertex 13.825 -3.048 1.051
    endloop
  endfacet
  facet normal 2.22045e-16 4.93038e-32 1
    outer loop
      vertex 13.825 -1 1.051
      vertex 13.815 -1 1.051
      vertex 13.825 -3.048 1.051
    endloop
  endfacet
  facet normal 1 0 0
    outer loop
      vertex 13.815 -1.984 0.591
      vertex 13.815 -3.4 0.5
      vertex 13.815 -1.57838 0.5
    endloop
  endfacet
  facet normal 1 0 0
    outer loop
      vertex 13.815 -1.604 0.544
      vertex 13.815 -1.695 0.574
      vertex 13.815 -1.57838 0.5
    endloop
  endfacet
  facet normal 1 0 0
    outer loop
      vertex 13.815 -2.336 0.597
      vertex 13.815 -3.4 0.5
      vertex 13.815 -1.984 0.591
    endloop
  endfacet
  facet normal 1 0 0
    outer loop
      vertex 13.815 -2.537 0.608
      vertex 13.815 -3.4 0.5
      vertex 13.815 -2.336 0.597
    endloop
  endfacet
  facet normal 1 0 0
    outer loop
      vertex 13.815 -2.678 0.628
      vertex 13.815 -3.4 0.5
      vertex 13.815 -2.537 0.608
    endloop
  endfacet
  facet normal 1 0 0
    outer loop
      vertex 13.815 -2.873 0.673
      vertex 13.815 -3.4 0.5
      vertex 13.815 -2.678 0.628
    endloop
  endfacet
  facet normal 1 0 0
    outer loop
      vertex 13.815 -3.102 0.721
      vertex 13.815 -3.4 0.5
      vertex 13.815 -2.873 0.673
    endloop
  endfacet
  facet normal 1 0 0
    outer loop
      vertex 13.815 -3.172 0.768
      vertex 13.815 -3.4 0.5
      vertex 13.815 -3.102 0.721
    endloop
  endfacet
  facet normal 1 0 0
    outer loop
      vertex 13.815 -3.4 1.5
      vertex 13.815 -3.4 0.5
      vertex 13.815 -3.172 0.768
    endloop
  endfacet
  facet normal 1 0 0
    outer loop
      vertex 13.815 -3.4 1.5
      vertex 13.815 -3.172 0.768
      vertex 13.815 -3.183 0.903
    endloop
  endfacet
  facet normal 1 0 0
    outer loop
      vertex 13.815 -1 1.5
      vertex 13.815 -3.4 1.5
      vertex 13.815 -1 1.051
    endloop
  endfacet
  facet normal 1 0 0
    outer loop
      vertex 13.815 -1.695 0.574
      vertex 13.815 -1.984 0.591
      vertex 13.815 -1.57838 0.5
    endloop
  endfacet
  facet normal 1 0 0
    outer loop
      vertex 13.815 -3.183 0.903
      vertex 13.815 -3.048 1.051
      vertex 13.815 -3.4 1.5
    endloop
  endfacet
  facet normal 1 0 0
    outer loop
      vertex 13.815 -3.048 1.051
      vertex 13.815 -1 1.051
      vertex 13.815 -3.4 1.5
    endloop
  endfacet
  facet normal 0 0 1
    outer loop
      vertex 12.825 -1 1.5
      vertex 12.815 -3.4 1.5
      vertex 13.815 -3.4 1.5
    endloop
  endfacet
  facet normal 0 0 1
    outer loop
      vertex 12.825 -1 1.5
      vertex 12.825 0 1.5
      vertex 12.815 0 1.5
    endloop
  endfacet
  facet normal 0 0 1
    outer loop
      vertex 12.815 0 1.5
      vertex 12.815 -3.4 1.5
      vertex 12.825 -1 1.5
    endloop
  endfacet
  facet normal 0 0 1
    outer loop
      vertex 13.815 -1 1.5
      vertex 12.825 -1 1.5
      vertex 13.815 -3.4 1.5
    endloop
  endfacet
  facet normal -1 0 0
    outer loop
      vertex 12.825 -1 1.5
      vertex 12.825 -1 1.9
      vertex 12.825 0 1.5
    endloop
  endfacet
  facet normal -1 0 0
    outer loop
      vertex 12.825 0 1.5
      vertex 12.825 -1 1.9
      vertex 12.825 0 1.9
    endloop
  endfacet
  facet normal 0 0 1
    outer loop
      vertex 12.825 0 1.9
      vertex 12.825 -1 1.9
      vertex 15.25 -1 1.9
    endloop
  endfacet
  facet normal 0 0 1
    outer loop
      vertex 15.25 0 1.9
      vertex 12.825 0 1.9
      vertex 15.25 -1 1.9
    endloop
  endfacet
  facet normal 1 0 0
    outer loop
      vertex 15.25 -1 1.9
      vertex 15.25 -1 0.1
      vertex 15.25 0 0.1
    endloop
  endfacet
  facet normal 1 0 0
    outer loop
      vertex 15.25 0 1.9
      vertex 15.25 -1 1.9
      vertex 15.25 0 0.1
    endloop
  endfacet
  facet normal 0 0 -1
    outer loop
      vertex 12.825 -1 0.1
      vertex 12.825 0 0.1
      vertex 15.25 -1 0.1
    endloop
  endfacet
  facet normal 0 0 -1
    outer loop
      vertex 15.25 -1 0.1
      vertex 12.825 0 0.1
      vertex 15.25 0 0.1
    endloop
  endfacet
  facet normal 0 1 0
    outer loop
      vertex 12.815 0 0.5
      vertex 12.815 0 1.5
      vertex 12.825 0 0.5
    endloop
  endfacet
  facet normal 0 1 0
    outer loop
      vertex 12.825 0 0.5
      vertex 12.815 0 1.5
      vertex 12.825 0 1.5
    endloop
  endfacet
  facet normal 0 1 0
    outer loop
      vertex 12.825 0 1.5
      vertex 12.825 0 1.9
      vertex 15.25 0 1.9
    endloop
  endfacet
  facet normal 0 1 0
    outer loop
      vertex 12.825 0 1.5
      vertex 15.25 0 1.9
      vertex 12.825 0 0.5
    endloop
  endfacet
  facet normal 0 1 0
    outer loop
      vertex 12.825 0 0.5
      vertex 15.25 0 1.9
      vertex 15.25 0 0.1
    endloop
  endfacet
  facet normal 0 1 0
    outer loop
      vertex 12.825 0 0.5
      vertex 15.25 0 0.1
      vertex 12.825 0 0.1
    endloop
  endfacet
  facet normal 0 0 -1
    outer loop
      vertex 12.815 -0.0175411 0.5
      vertex 12.815 0 0.5
      vertex 12.825 -0.0175411 0.5
    endloop
  endfacet
  facet normal 0 0 -1
    outer loop
      vertex 12.825 -0.0175411 0.5
      vertex 12.815 0 0.5
      vertex 12.825 0 0.5
    endloop
  endfacet
  facet normal -1 0 0
    outer loop
      vertex 12.815 -3.172 0.768
      vertex 12.815 -3.4 0.5
      vertex 12.815 -3.183 0.903
    endloop
  endfacet
  facet normal -1 0 0
    outer loop
      vertex 12.815 -0.0175411 0.5
      vertex 12.815 0 1.5
      vertex 12.815 0 0.5
    endloop
  endfacet
  facet normal -1 0 0
    outer loop
      vertex 12.815 -0.017 0.704
      vertex 12.815 0 1.5
      vertex 12.815 -0.0175411 0.5
    endloop
  endfacet
  facet normal -1 0 0
    outer loop
      vertex 12.815 -0.021 0.898
      vertex 12.815 0 1.5
      vertex 12.815 -0.017 0.704
    endloop
  endfacet
  facet normal -1 0 0
    outer loop
      vertex 12.815 -0.05 0.975
      vertex 12.815 0 1.5
      vertex 12.815 -0.021 0.898
    endloop
  endfacet
  facet normal -1 0 0
    outer loop
      vertex 12.815 -0.194 1.051
      vertex 12.815 0 1.5
      vertex 12.815 -0.05 0.975
    endloop
  endfacet
  facet normal -1 0 0
    outer loop
      vertex 12.815 -3.183 0.903
      vertex 12.815 -3.4 1.5
      vertex 12.815 -3.048 1.051
    endloop
  endfacet
  facet normal -1 0 0
    outer loop
      vertex 12.815 -3.4 0.5
      vertex 12.815 -3.4 1.5
      vertex 12.815 -3.183 0.903
    endloop
  endfacet
  facet normal -1 0 0
    outer loop
      vertex 12.815 -2.336 0.597
      vertex 12.815 -1.57838 0.5
      vertex 12.815 -2.537 0.608
    endloop
  endfacet
  facet normal -1 0 0
    outer loop
      vertex 12.815 -3.4 0.5
      vertex 12.815 -3.172 0.768
      vertex 12.815 -3.102 0.721
    endloop
  endfacet
  facet normal -1 0 0
    outer loop
      vertex 12.815 -3.4 0.5
      vertex 12.815 -3.102 0.721
      vertex 12.815 -2.873 0.673
    endloop
  endfacet
  facet normal -1 0 0
    outer loop
      vertex 12.815 -3.4 0.5
      vertex 12.815 -2.873 0.673
      vertex 12.815 -2.678 0.628
    endloop
  endfacet
  facet normal -1 0 0
    outer loop
      vertex 12.815 -3.4 0.5
      vertex 12.815 -2.678 0.628
      vertex 12.815 -2.537 0.608
    endloop
  endfacet
  facet normal -1 0 0
    outer loop
      vertex 12.815 -3.4 0.5
      vertex 12.815 -2.537 0.608
      vertex 12.815 -1.57838 0.5
    endloop
  endfacet
  facet normal -1 0 0
    outer loop
      vertex 12.815 -1.984 0.591
      vertex 12.815 -1.57838 0.5
      vertex 12.815 -2.336 0.597
    endloop
  endfacet
  facet normal -1 0 0
    outer loop
      vertex 12.815 -1.695 0.574
      vertex 12.815 -1.57838 0.5
      vertex 12.815 -1.984 0.591
    endloop
  endfacet
  facet normal -1 0 0
    outer loop
      vertex 12.815 -1.57838 0.5
      vertex 12.815 -1.695 0.574
      vertex 12.815 -1.604 0.544
    endloop
  endfacet
  facet normal -1 0 0
    outer loop
      vertex 12.815 -3.048 1.051
      vertex 12.815 -3.4 1.5
      vertex 12.815 0 1.5
    endloop
  endfacet
  facet normal -1 0 0
    outer loop
      vertex 12.815 -3.048 1.051
      vertex 12.815 0 1.5
      vertex 12.815 -0.194 1.051
    endloop
  endfacet
  facet normal 0 0 -1
    outer loop
      vertex 12.815 -3.4 0.5
      vertex 12.815 -1.57838 0.5
      vertex 13.815 -3.4 0.5
    endloop
  endfacet
  facet normal 0 0 -1
    outer loop
      vertex 13.815 -3.4 0.5
      vertex 12.815 -1.57838 0.5
      vertex 13.815 -1.57838 0.5
    endloop
  endfacet
  facet normal 0 -1 0
    outer loop
      vertex 12.815 -3.4 1.5
      vertex 12.815 -3.4 0.5
      vertex 13.815 -3.4 0.5
    endloop
  endfacet
  facet normal 0 -1 0
    outer loop
      vertex 13.815 -3.4 1.5
      vertex 12.815 -3.4 1.5
      vertex 13.815 -3.4 0.5
    endloop
  endfacet
endsolid OpenSCAD_Model
